<?xml version="1.0" encoding="UTF-8"?><svg id="Layer_1" xmlns="http://www.w3.org/2000/svg" viewBox="0 0 413.55 342.36"><defs><style>.cls-1{fill:#79638a;stroke-width:.85px;}.cls-1,.cls-2,.cls-3,.cls-4,.cls-5,.cls-6,.cls-7,.cls-8,.cls-9,.cls-10,.cls-11,.cls-12,.cls-13,.cls-14,.cls-15,.cls-16,.cls-17,.cls-18,.cls-19,.cls-20,.cls-21,.cls-22,.cls-23,.cls-24,.cls-25,.cls-26,.cls-27,.cls-28,.cls-29,.cls-30,.cls-31,.cls-32,.cls-33,.cls-34,.cls-35,.cls-36,.cls-37,.cls-38,.cls-39,.cls-40,.cls-41,.cls-42,.cls-43,.cls-44,.cls-45,.cls-46,.cls-47,.cls-48,.cls-49,.cls-50,.cls-51,.cls-52,.cls-53,.cls-54,.cls-55,.cls-56,.cls-57,.cls-58,.cls-59,.cls-60,.cls-61,.cls-62,.cls-63,.cls-64,.cls-65,.cls-66,.cls-67,.cls-68,.cls-69,.cls-70,.cls-71,.cls-72,.cls-73,.cls-74,.cls-75,.cls-76,.cls-77,.cls-78,.cls-79,.cls-80,.cls-81,.cls-82,.cls-83,.cls-84,.cls-85,.cls-86,.cls-87,.cls-88,.cls-89,.cls-90,.cls-91,.cls-92,.cls-93,.cls-94,.cls-95,.cls-96,.cls-97,.cls-98,.cls-99,.cls-100,.cls-101,.cls-102,.cls-103,.cls-104,.cls-105,.cls-106,.cls-107,.cls-108,.cls-109,.cls-110,.cls-111,.cls-112,.cls-113,.cls-114,.cls-115,.cls-116,.cls-117,.cls-118,.cls-119,.cls-120,.cls-121,.cls-122,.cls-123,.cls-124,.cls-125,.cls-126,.cls-127,.cls-128,.cls-129,.cls-130,.cls-131,.cls-132,.cls-133,.cls-134,.cls-135,.cls-136,.cls-137,.cls-138,.cls-139,.cls-140,.cls-141,.cls-142,.cls-143,.cls-144,.cls-145,.cls-146,.cls-147,.cls-148,.cls-149,.cls-150,.cls-151,.cls-152,.cls-153,.cls-154,.cls-155,.cls-156,.cls-157,.cls-158,.cls-159,.cls-160,.cls-161,.cls-162,.cls-163,.cls-164,.cls-165,.cls-166,.cls-167,.cls-168,.cls-169,.cls-170,.cls-171,.cls-172,.cls-173,.cls-174,.cls-175,.cls-176,.cls-177,.cls-178,.cls-179,.cls-180,.cls-181,.cls-182,.cls-183,.cls-184,.cls-185,.cls-186,.cls-187,.cls-188,.cls-189,.cls-190,.cls-191,.cls-192,.cls-193,.cls-194,.cls-195,.cls-196,.cls-197,.cls-198,.cls-199,.cls-200,.cls-201,.cls-202,.cls-203,.cls-204,.cls-205,.cls-206,.cls-207,.cls-208,.cls-209,.cls-210,.cls-211,.cls-212,.cls-213,.cls-214,.cls-215,.cls-216,.cls-217,.cls-218,.cls-219,.cls-220,.cls-221,.cls-222,.cls-223,.cls-224,.cls-225,.cls-226,.cls-227,.cls-228,.cls-229,.cls-230,.cls-231,.cls-232,.cls-233,.cls-234,.cls-235,.cls-236,.cls-237{stroke:#2a0c4e;stroke-miterlimit:10;}.cls-2{fill:#baacbc;stroke-width:1.56px;}.cls-3{fill:#3c205c;stroke-width:.2px;}.cls-4{fill:#8d7a9a;stroke-width:1.07px;}.cls-5{fill:#d5cad0;stroke-width:1.86px;}.cls-6{fill:#391d5a;stroke-width:.17px;}.cls-7{fill:#41255f;stroke-width:.24px;}.cls-8{fill:#a08fa8;stroke-width:1.28px;}.cls-9{fill:#766088;stroke-width:.82px;}.cls-10{fill:#412660;stroke-width:.25px;}.cls-11{fill:#a291a9;stroke-width:1.3px;}.cls-12{fill:#3e225d;stroke-width:.21px;}.cls-13{fill:#67507d;stroke-width:.66px;}.cls-14{fill:#f3ebe7;stroke-width:2.18px;}.cls-15{fill:#4f356a;stroke-width:.4px;}.cls-16{fill:#816c90;stroke-width:.94px;}.cls-17{fill:#b4a5b7;stroke-width:1.49px;}.cls-18{fill:#94819e;stroke-width:1.14px;}.cls-19{fill:#2e1051;stroke-width:.04px;}.cls-20{fill:#6a537f;stroke-width:.69px;}.cls-21{fill:#ded3d7;stroke-width:1.94px;}.cls-22{fill:#eee5e3;stroke-width:2.12px;}.cls-23{fill:#9684a0;stroke-width:1.17px;}.cls-24{fill:#4a2f66;stroke-width:.34px;}.cls-25{fill:#583f71;stroke-width:.5px;}.cls-26{fill:#faf2ec;stroke-width:2.25px;}.cls-27{fill:#594072;stroke-width:.51px;}.cls-28{fill:#a796ad;stroke-width:1.35px;}.cls-29{fill:#d1c5cd;stroke-width:1.81px;}.cls-30{fill:#2f1252;stroke-width:.06px;}.cls-31{fill:#e4dadb;stroke-width:2.01px;}.cls-32{fill:#ebe2e1;stroke-width:2.09px;}.cls-33{fill:#dfd4d7;stroke-width:1.95px;}.cls-34{fill:#69527e;stroke-width:.68px;}.cls-238{fill:#ff7e6b;}.cls-35{fill:#735d86;stroke-width:.79px;}.cls-36{fill:#806b8f;stroke-width:.93px;}.cls-37{fill:#f2eae6;stroke-width:2.17px;}.cls-38{fill:#301353;stroke-width:.07px;}.cls-39{fill:#b8a9ba;stroke-width:1.53px;}.cls-40{fill:#52386c;stroke-width:.43px;}.cls-41{fill:#4d3369;stroke-width:.38px;}.cls-42{fill:#b1a2b5;stroke-width:1.46px;}.cls-43{fill:#ab9bb0;stroke-width:1.4px;}.cls-44{fill:#c3b5c2;stroke-width:1.65px;}.cls-45{fill:#6d5681;stroke-width:.72px;}.cls-46{fill:#826e91;stroke-width:.96px;}.cls-47{fill:#f9f1eb;stroke-width:2.24px;}.cls-48{fill:#9987a2;stroke-width:1.2px;}.cls-49{fill:#a493ab;stroke-width:1.32px;}.cls-50{fill:#442962;stroke-width:.28px;}.cls-51{fill:#452a63;stroke-width:.29px;}.cls-52{fill:#917e9c;stroke-width:1.11px;}.cls-53{fill:#7e698e;stroke-width:.91px;}.cls-54{fill:#472c64;stroke-width:.31px;}.cls-55{fill:#8f7c9b;stroke-width:1.09px;}.cls-56{fill:#5a4172;stroke-width:.52px;}.cls-57{fill:#c3b6c3;stroke-width:1.66px;}.cls-58{fill:#543b6e;stroke-width:.46px;}.cls-59{fill:#9e8da7;stroke-width:1.26px;}.cls-60{fill:#e8dede;stroke-width:2.05px;}.cls-61{fill:#d8cdd2;stroke-width:1.88px;}.cls-62{fill:#b0a1b4;stroke-width:1.46px;}.cls-63{fill:#341756;stroke-width:.11px;}.cls-239{fill:#2a0c4e;}.cls-64{fill:#b3a4b6;stroke-width:1.48px;}.cls-65{fill:#a999af;stroke-width:1.38px;}.cls-66{fill:#ac9cb1;stroke-width:1.41px;}.cls-67{fill:none;stroke-width:3.32px;}.cls-68{fill:#faf3ed;stroke-width:2.26px;}.cls-69{fill:#573e70;stroke-width:.49px;}.cls-70{fill:#897596;stroke-width:1.03px;}.cls-71{fill:#cbbec8;stroke-width:1.74px;}.cls-72{fill:#321554;stroke-width:.09px;}.cls-73{fill:#715b84;stroke-width:.77px;}.cls-74{fill:#877395;stroke-width:1.01px;}.cls-75{fill:#68517d;stroke-width:.67px;}.cls-76{fill:#432861;stroke-width:.27px;}.cls-77{fill:#bdafbe;stroke-width:1.59px;}.cls-78{fill:#361957;stroke-width:.13px;}.cls-79{fill:#ccc0ca;stroke-width:1.76px;}.cls-80{fill:#efe6e4;stroke-width:2.13px;}.cls-81{fill:#5f4777;stroke-width:.58px;}.cls-82{fill:#664e7b;stroke-width:.64px;}.cls-83{fill:#dcd1d5;stroke-width:1.92px;}.cls-84{fill:#5d4575;stroke-width:.56px;}.cls-85{fill:#9886a2;stroke-width:1.19px;}.cls-86{fill:#c8bbc6;stroke-width:1.71px;}.cls-87{fill:#93809e;stroke-width:1.13px;}.cls-88{fill:#cabdc7;stroke-width:1.73px;}.cls-89{fill:#8c7999;stroke-width:1.06px;}.cls-90{fill:#725c85;stroke-width:.78px;}.cls-91{fill:#c0b2c0;stroke-width:1.62px;}.cls-92{fill:#b2a3b6;stroke-width:1.47px;}.cls-93{fill:#ece3e2;stroke-width:2.1px;}.cls-94{fill:#927f9d;stroke-width:1.12px;}.cls-95{fill:#f7efea;stroke-width:2.22px;}.cls-96{fill:#f6eee9;stroke-width:2.21px;}.cls-97{fill:#51376c;stroke-width:.42px;}.cls-98{fill:#7c678c;stroke-width:.89px;}.cls-99{fill:#5e4676;stroke-width:.57px;}.cls-100{fill:#f4ece8;stroke-width:2.19px;}.cls-101{fill:#311453;stroke-width:.08px;}.cls-102{fill:#9583a0;stroke-width:1.16px;}.cls-103{fill:#331655;stroke-width:.1px;}.cls-104{fill:#8e7b9a;stroke-width:1.08px;}.cls-105{fill:#c2b4c1;stroke-width:1.64px;}.cls-106{fill:#a797ad;stroke-width:1.36px;}.cls-107{fill:#2b0d4f;stroke-width:0px;}.cls-108{fill:#8a7697;stroke-width:1.04px;}.cls-109{fill:#624a79;stroke-width:.61px;}.cls-110{fill:#462b63;stroke-width:.3px;}.cls-111{fill:#563d70;stroke-width:.48px;}.cls-112{fill:#836f92;stroke-width:.97px;}.cls-113{fill:#634b79;stroke-width:.62px;}.cls-240,.cls-147{fill:#fff8f0;}.cls-114{fill:#381c59;stroke-width:.16px;}.cls-115{fill:#2c0e4f;stroke-width:.02px;}.cls-116{fill:#857193;stroke-width:.99px;}.cls-117{fill:#d3c7ce;stroke-width:1.83px;}.cls-118{fill:#a898ae;stroke-width:1.37px;}.cls-119{fill:#7b668c;stroke-width:.88px;}.cls-120{fill:#50366b;stroke-width:.41px;}.cls-121{fill:#644c7a;stroke-width:.62px;}.cls-122{fill:#baabbb;stroke-width:1.55px;}.cls-123{fill:#543a6e;stroke-width:.45px;}.cls-124{fill:#847093;stroke-width:.98px;}.cls-125{fill:#776188;stroke-width:.83px;}.cls-126{fill:#b7a8b9;stroke-width:1.52px;}.cls-127{fill:#d4c8cf;stroke-width:1.84px;}.cls-128{fill:#dbd0d5;stroke-width:1.91px;}.cls-129{fill:#e0d6d9;stroke-width:1.97px;}.cls-130{fill:#53396d;stroke-width:.44px;}.cls-131{fill:#5b4273;stroke-width:.53px;}.cls-132{fill:#ede4e2;stroke-width:2.11px;}.cls-133{fill:#6b547f;stroke-width:.7px;}.cls-134{fill:#af9fb3;stroke-width:1.44px;}.cls-135{fill:#867294;stroke-width:1px;}.cls-136{fill:#492e65;stroke-width:.33px;}.cls-137{fill:#381b58;stroke-width:.15px;}.cls-138{fill:#7a658b;stroke-width:.87px;}.cls-139{fill:#dfd5d8;stroke-width:1.96px;}.cls-140{fill:#786289;stroke-width:.84px;}.cls-141{fill:#9a88a3;stroke-width:1.21px;}.cls-142{fill:#c9bcc7;stroke-width:1.72px;}.cls-143{fill:#7f6a8f;stroke-width:.92px;}.cls-144{fill:#f1e9e6;stroke-width:2.16px;}.cls-145{fill:#705a84;stroke-width:.76px;}.cls-146{fill:#dacfd4;stroke-width:1.9px;}.cls-147{stroke-width:2.3px;}.cls-148{fill:#d2c6ce;stroke-width:1.82px;}.cls-149{fill:#2f1151;stroke-width:.05px;}.cls-150{fill:#f5ede8;stroke-width:2.2px;}.cls-151{fill:#351856;stroke-width:.12px;}.cls-152{fill:#c7bac5;stroke-width:1.7px;}.cls-153{fill:#d9ced3;stroke-width:1.89px;}.cls-154{fill:#9c8aa4;stroke-width:1.23px;}.cls-155{fill:#4b3167;stroke-width:.36px;}.cls-156{fill:#ddd2d6;stroke-width:1.93px;}.cls-157{fill:#5d4474;stroke-width:.55px;}.cls-158{fill:#aa9aaf;stroke-width:1.39px;}.cls-159{fill:#6c5580;stroke-width:.71px;}.cls-160{fill:#d5c9d0;stroke-width:1.85px;}.cls-161{fill:#371a58;stroke-width:.14px;}.cls-162{fill:#eae1e0;stroke-width:2.08px;}.cls-163{fill:#a190a9;stroke-width:1.29px;}.cls-164{fill:#a594ab;stroke-width:1.33px;}.cls-165{fill:#bfb1bf;stroke-width:1.61px;}.cls-166{fill:#4a3067;stroke-width:.35px;}.cls-167{fill:#f8f0eb;stroke-width:2.23px;}.cls-168{fill:#fdf6ef;stroke-width:2.29px;}.cls-169{fill:#654d7b;stroke-width:.63px;}.cls-170{fill:#c6b9c5;stroke-width:1.69px;}.cls-171{fill:#d0c4cc;stroke-width:1.8px;}.cls-172{fill:#755f87;stroke-width:.81px;}.cls-173{fill:#3d215c;stroke-width:.21px;}.cls-174{fill:#2d0f50;stroke-width:.03px;}.cls-175{fill:#745e86;stroke-width:.8px;}.cls-176{fill:#664f7c;stroke-width:.65px;}.cls-177{fill:#9785a1;stroke-width:1.18px;}.cls-178{fill:#8b7898;stroke-width:1.05px;}.cls-179{fill:#a392aa;stroke-width:1.31px;}.cls-180{fill:#4c3268;stroke-width:.37px;}.cls-181{fill:#c4b7c3;stroke-width:1.67px;}.cls-182{fill:#ae9eb2;stroke-width:1.43px;}.cls-183{fill:#ad9db2;stroke-width:1.42px;}.cls-184{fill:#e6dcdd;stroke-width:2.03px;}.cls-185{fill:#9d8ba5;stroke-width:1.24px;}.cls-186{fill:#cdc1ca;stroke-width:1.77px;}.cls-187{fill:#79648a;stroke-width:.86px;}.cls-188{fill:#826d91;stroke-width:.95px;}.cls-189{fill:#9e8ca6;stroke-width:1.25px;}.cls-190{fill:#40245e;stroke-width:.23px;}.cls-191{fill:#cfc3cc;stroke-width:1.79px;}.cls-192{fill:#c1b3c1;stroke-width:1.63px;}.cls-193{fill:#d7ccd2;stroke-width:1.87px;}.cls-194{fill:#422761;stroke-width:.26px;}.cls-195{fill:#cec2cb;stroke-width:1.78px;}.cls-196{fill:#887495;stroke-width:1.02px;}.cls-197{fill:#553c6f;stroke-width:.47px;}.cls-198{fill:#bcaebd;stroke-width:1.58px;}.cls-199{fill:#9f8ea7;stroke-width:1.27px;}.cls-200{fill:#614978;stroke-width:.6px;}.cls-201{fill:#907d9c;stroke-width:1.1px;}.cls-202{fill:#7d688d;stroke-width:.9px;}.cls-203{fill:#3a1e5a;stroke-width:.18px;}.cls-204{fill:#3b1f5b;stroke-width:.19px;}.cls-205{fill:#6e5781;stroke-width:.73px;}.cls-206{fill:#e1d7d9;stroke-width:1.98px;}.cls-207{fill:#b6a7b8;stroke-width:1.51px;}.cls-208{fill:#e7dddd;stroke-width:2.04px;}.cls-209{fill:#f0e7e4;stroke-width:2.14px;}.cls-210{fill:#b5a6b8;stroke-width:1.5px;}.cls-211{fill:#beb0bf;stroke-width:1.6px;}.cls-212{fill:#8b7797;stroke-width:1.04px;}.cls-213{fill:#e9e0e0;stroke-width:2.07px;}.cls-214{fill:#e2d8da;stroke-width:1.99px;}.cls-215{fill:#d6cbd1;stroke-width:1.87px;}.cls-216{fill:#fef7ef;stroke-width:2.29px;}.cls-217{fill:#3f235e;stroke-width:.22px;}.cls-218{fill:#fcf5ee;stroke-width:2.28px;}.cls-219{fill:#6f5882;stroke-width:.74px;}.cls-220{fill:#e3d9db;stroke-width:2px;}.cls-221{fill:#b0a0b4;stroke-width:1.45px;}.cls-222{fill:#6f5983;stroke-width:.75px;}.cls-223{fill:#604877;stroke-width:.59px;}.cls-224{fill:#b9aaba;stroke-width:1.54px;}.cls-225{fill:#f1e8e5;stroke-width:2.15px;}.cls-226{fill:#bbadbd;stroke-width:1.57px;}.cls-227{fill:#5c4374;stroke-width:.54px;}.cls-228{fill:#e5dbdc;stroke-width:2.02px;}.cls-229{fill:#e8dfdf;stroke-width:2.06px;}.cls-230{fill:#9b89a4;stroke-width:1.22px;}.cls-231{fill:#482d65;stroke-width:.32px;}.cls-232{fill:#4e3469;stroke-width:.39px;}.cls-233{fill:#fbf4ed;stroke-width:2.27px;}.cls-234{fill:#95829f;stroke-width:1.15px;}.cls-235{fill:#a695ac;stroke-width:1.34px;}.cls-236{fill:#c5b8c4;stroke-width:1.68px;}.cls-237{fill:#ccbfc9;stroke-width:1.75px;}</style></defs><g><g><path class="cls-239" d="M368.05,184.02c0,13.14-21.29,23.3-24.53,35.42-3.35,12.54,9.9,31.96,3.55,42.94-6.44,11.13-29.95,9.32-38.99,18.36-9.04,9.04-7.23,32.55-18.36,38.99-10.98,6.35-30.4-6.9-42.94-3.55s-22.28,24.53-35.42,24.53-23.3-21.29-35.42-24.53c-12.54-3.35-31.96,9.9-42.94,3.55-11.13-6.44-9.32-29.95-18.36-38.99-9.04-9.04-32.55-7.23-38.99-18.36-6.35-10.98,6.9-30.4,3.55-42.94-3.24-12.12-24.53-22.28-24.53-35.42s21.29-23.3,24.53-35.42c3.35-12.54-9.9-31.96-3.55-42.94,6.44-11.13,29.95-9.32,38.99-18.36s7.23-32.55,18.36-38.99,30.4,6.9,42.94,3.55,22.28-24.53,35.42-24.53,23.3,21.29,35.42,24.53c12.54,3.35,31.96-9.9,42.94-3.55,11.13,6.44,9.32,29.95,18.36,38.99,9.04,9.04,32.55,7.23,38.99,18.36,6.35,10.98-6.9,30.4-3.55,42.94,3.24,12.12,24.53,22.28,24.53,35.42Z"/><g><path class="cls-238" d="M360.17,184.02c0,13.14-21.29,23.3-24.53,35.42-3.35,12.54,9.9,31.96,3.55,42.94-6.44,11.13-29.95,9.32-38.99,18.36-9.04,9.04-7.23,32.55-18.36,38.99s-30.4-6.9-42.94-3.55c-12.12,3.24-22.28,24.53-35.42,24.53s-23.3-21.29-35.42-24.53-31.96,9.9-42.94,3.55c-11.13-6.44-9.32-29.95-18.36-38.99-9.04-9.04-32.55-7.23-38.99-18.36-6.35-10.98,6.9-30.4,3.55-42.94-3.24-12.12-24.53-22.28-24.53-35.42s21.29-23.3,24.53-35.42c3.35-12.54-9.9-31.96-3.55-42.94,6.44-11.13,29.95-9.32,38.99-18.36,9.04-9.04,7.23-32.55,18.36-38.99,10.98-6.35,30.4,6.9,42.94,3.55,12.12-3.24,22.28-24.53,35.42-24.53s23.3,21.29,35.42,24.53c12.54,3.35,31.96-9.9,42.94-3.55,11.13,6.44,9.32,29.95,18.36,38.99,9.04,9.04,32.55,7.23,38.99,18.36,6.35,10.98-6.9,30.4-3.55,42.94,3.24,12.12,24.53,22.28,24.53,35.42Z"/><path class="cls-67" d="M360.17,184.02c0,13.14-21.29,23.3-24.53,35.42-3.35,12.54,9.9,31.96,3.55,42.94-6.44,11.13-29.95,9.32-38.99,18.36-9.04,9.04-7.23,32.55-18.36,38.99s-30.4-6.9-42.94-3.55c-12.12,3.24-22.28,24.53-35.42,24.53s-23.3-21.29-35.42-24.53-31.96,9.9-42.94,3.55c-11.13-6.44-9.32-29.95-18.36-38.99-9.04-9.04-32.55-7.23-38.99-18.36-6.35-10.98,6.9-30.4,3.55-42.94-3.24-12.12-24.53-22.28-24.53-35.42s21.29-23.3,24.53-35.42c3.35-12.54-9.9-31.96-3.55-42.94,6.44-11.13,29.95-9.32,38.99-18.36,9.04-9.04,7.23-32.55,18.36-38.99,10.98-6.35,30.4,6.9,42.94,3.55,12.12-3.24,22.28-24.53,35.42-24.53s23.3,21.29,35.42,24.53c12.54,3.35,31.96-9.9,42.94-3.55,11.13,6.44,9.32,29.95,18.36,38.99,9.04,9.04,32.55,7.23,38.99,18.36,6.35,10.98-6.9,30.4-3.55,42.94,3.24,12.12,24.53,22.28,24.53,35.42Z"/></g></g><g><path class="cls-239" d="M171.29,151.83h-14.5l-16.58,47.3-14.23-43.01-7.25-4.29h-16.36l26.79,81.43,6.68,6.32h13.57l27.36-81.65-5.48-6.1Zm-27.5,80.28h-12.78l-25.86-78.29h11.94l20.38,61.54,20.82-61.54h11.85l-26.35,78.29Z"/><polygon class="cls-240" points="170.14 153.82 143.79 232.11 131.02 232.11 105.16 153.82 117.09 153.82 137.47 215.36 158.29 153.82 170.14 153.82"/><path class="cls-239" d="M227.52,217.97h-20.47v-13h25.2v-14.81l-6.68-5.66h-18.52v-12.16h26.57v-14.72l-7.12-5.79h-40.49v79.97l5.39,6.63h42.7v-14.81l-6.59-5.66Zm-.93,13h-38.64v-77.14h38.2v11.01h-26.79v21.62h25.42v11.05h-25.42v22.46h27.23v11.01Z"/><polygon class="cls-240" points="226.6 219.96 226.6 230.96 187.96 230.96 187.96 153.82 226.15 153.82 226.15 164.83 199.36 164.83 199.36 186.45 224.78 186.45 224.78 197.5 199.36 197.5 199.36 219.96 226.6 219.96"/><path class="cls-239" d="M315.9,151.83h-14.5v44.43l-29.66-40.94-8.75-3.49h-16.22v79.71l5.97,6.9h15.07v-53.09l38.2,53.09h16.45v-81.17l-6.54-5.44Zm-1.06,79.13h-11.49l-43.1-59.33v59.33h-11.54v-77.28h12.69l41.95,57.74v-57.74h11.49v77.28Z"/><polygon class="cls-240" points="314.84 153.69 314.84 230.96 303.34 230.96 260.24 171.64 260.24 230.96 248.7 230.96 248.7 153.69 261.39 153.69 303.34 211.42 303.34 153.69 314.84 153.69"/><path class="cls-239" d="M407.01,151.83h-14.5v44.43l-29.66-40.94-8.75-3.49h-16.22v79.71l5.97,6.9h15.08v-53.09l38.2,53.09h16.45v-81.17l-6.54-5.44Zm-1.06,79.13h-11.49l-43.1-59.33v59.33h-11.54v-77.28h12.69l41.95,57.74v-57.74h11.49v77.28Z"/><polygon class="cls-240" points="405.95 153.69 405.95 230.96 394.45 230.96 351.35 171.64 351.35 230.96 339.81 230.96 339.81 153.69 352.5 153.69 394.45 211.42 394.45 153.69 405.95 153.69"/></g></g><g><polygon class="cls-239" points="334.16 2.78 242.24 94.7 198.57 51.02 198.57 77.68 242.24 121.35 334.16 29.44 334.16 2.78"/><polygon class="cls-107" points="334.13 2.78 242.21 94.7 198.54 51.02 198.54 77.68 242.21 121.35 334.13 29.44 334.13 2.78"/><polygon class="cls-115" points="334.1 2.78 242.18 94.7 198.51 51.02 198.51 77.68 242.18 121.35 334.1 29.44 334.1 2.78"/><polygon class="cls-174" points="334.07 2.78 242.15 94.7 198.48 51.02 198.48 77.68 242.15 121.35 334.07 29.44 334.07 2.78"/><polygon class="cls-19" points="334.04 2.78 242.12 94.7 198.45 51.02 198.45 77.68 242.12 121.35 334.04 29.44 334.04 2.78"/><polygon class="cls-149" points="334.01 2.78 242.09 94.7 198.42 51.02 198.42 77.68 242.09 121.35 334.01 29.44 334.01 2.78"/><polygon class="cls-30" points="333.98 2.78 242.06 94.7 198.39 51.02 198.39 77.68 242.06 121.35 333.98 29.44 333.98 2.78"/><polygon class="cls-38" points="333.95 2.78 242.04 94.7 198.36 51.02 198.36 77.68 242.04 121.35 333.95 29.44 333.95 2.78"/><polygon class="cls-101" points="333.92 2.78 242.01 94.7 198.33 51.02 198.33 77.68 242.01 121.35 333.92 29.44 333.92 2.78"/><polygon class="cls-72" points="333.89 2.78 241.98 94.7 198.3 51.02 198.3 77.68 241.98 121.35 333.89 29.44 333.89 2.78"/><polygon class="cls-103" points="333.86 2.78 241.95 94.7 198.27 51.02 198.27 77.68 241.95 121.35 333.86 29.44 333.86 2.78"/><polygon class="cls-63" points="333.83 2.78 241.92 94.7 198.24 51.02 198.24 77.68 241.92 121.35 333.83 29.44 333.83 2.78"/><polygon class="cls-151" points="333.8 2.78 241.89 94.7 198.21 51.02 198.21 77.68 241.89 121.35 333.8 29.44 333.8 2.78"/><polygon class="cls-78" points="333.77 2.78 241.86 94.7 198.18 51.02 198.18 77.68 241.86 121.35 333.77 29.44 333.77 2.78"/><polygon class="cls-161" points="333.75 2.78 241.83 94.7 198.16 51.02 198.16 77.68 241.83 121.35 333.75 29.44 333.75 2.78"/><polygon class="cls-137" points="333.72 2.78 241.8 94.7 198.13 51.02 198.13 77.68 241.8 121.35 333.72 29.44 333.72 2.78"/><polygon class="cls-114" points="333.69 2.78 241.77 94.7 198.1 51.02 198.1 77.68 241.77 121.35 333.69 29.44 333.69 2.78"/><polygon class="cls-6" points="333.66 2.78 241.74 94.7 198.07 51.02 198.07 77.68 241.74 121.35 333.66 29.44 333.66 2.78"/><polygon class="cls-203" points="333.63 2.78 241.71 94.7 198.04 51.02 198.04 77.68 241.71 121.35 333.63 29.44 333.63 2.78"/><polygon class="cls-204" points="333.6 2.78 241.68 94.7 198.01 51.02 198.01 77.68 241.68 121.35 333.6 29.44 333.6 2.78"/><polygon class="cls-3" points="333.57 2.78 241.65 94.7 197.98 51.02 197.98 77.68 241.65 121.35 333.57 29.44 333.57 2.78"/><polygon class="cls-173" points="333.54 2.78 241.63 94.7 197.95 51.02 197.95 77.68 241.63 121.35 333.54 29.44 333.54 2.78"/><polygon class="cls-12" points="333.51 2.78 241.6 94.7 197.92 51.02 197.92 77.68 241.6 121.35 333.51 29.44 333.51 2.78"/><polygon class="cls-217" points="333.48 2.78 241.57 94.7 197.89 51.02 197.89 77.68 241.57 121.35 333.48 29.44 333.48 2.78"/><polygon class="cls-190" points="333.45 2.78 241.54 94.7 197.86 51.02 197.86 77.68 241.54 121.35 333.45 29.44 333.45 2.78"/><polygon class="cls-7" points="333.42 2.78 241.51 94.7 197.83 51.02 197.83 77.68 241.51 121.35 333.42 29.44 333.42 2.78"/><polygon class="cls-10" points="333.39 2.78 241.48 94.7 197.8 51.02 197.8 77.68 241.48 121.35 333.39 29.44 333.39 2.78"/><polygon class="cls-194" points="333.36 2.78 241.45 94.7 197.77 51.02 197.77 77.68 241.45 121.35 333.36 29.44 333.36 2.78"/><polygon class="cls-76" points="333.34 2.78 241.42 94.7 197.74 51.02 197.74 77.68 241.42 121.35 333.34 29.44 333.34 2.78"/><polygon class="cls-50" points="333.31 2.78 241.39 94.7 197.72 51.02 197.72 77.68 241.39 121.35 333.31 29.44 333.31 2.78"/><polygon class="cls-51" points="333.28 2.78 241.36 94.7 197.69 51.02 197.69 77.68 241.36 121.35 333.28 29.44 333.28 2.78"/><polygon class="cls-110" points="333.25 2.78 241.33 94.7 197.66 51.02 197.66 77.68 241.33 121.35 333.25 29.44 333.25 2.78"/><polygon class="cls-54" points="333.22 2.78 241.3 94.7 197.63 51.02 197.63 77.68 241.3 121.35 333.22 29.44 333.22 2.78"/><polygon class="cls-231" points="333.19 2.78 241.27 94.7 197.6 51.02 197.6 77.68 241.27 121.35 333.19 29.44 333.19 2.78"/><polygon class="cls-136" points="333.16 2.78 241.24 94.7 197.57 51.02 197.57 77.68 241.24 121.35 333.16 29.44 333.16 2.78"/><polygon class="cls-24" points="333.13 2.78 241.22 94.7 197.54 51.02 197.54 77.68 241.22 121.35 333.13 29.44 333.13 2.78"/><polygon class="cls-166" points="333.1 2.78 241.19 94.7 197.51 51.02 197.51 77.68 241.19 121.35 333.1 29.44 333.1 2.78"/><polygon class="cls-155" points="333.07 2.78 241.16 94.7 197.48 51.02 197.48 77.68 241.16 121.35 333.07 29.44 333.07 2.78"/><polygon class="cls-180" points="333.04 2.78 241.13 94.7 197.45 51.02 197.45 77.68 241.13 121.35 333.04 29.44 333.04 2.78"/><polygon class="cls-41" points="333.01 2.78 241.1 94.7 197.42 51.02 197.42 77.68 241.1 121.35 333.01 29.44 333.01 2.78"/><polygon class="cls-232" points="332.98 2.78 241.07 94.7 197.39 51.02 197.39 77.68 241.07 121.35 332.98 29.44 332.98 2.78"/><polygon class="cls-15" points="332.95 2.78 241.04 94.7 197.36 51.02 197.36 77.68 241.04 121.35 332.95 29.44 332.95 2.78"/><polygon class="cls-120" points="332.93 2.78 241.01 94.7 197.33 51.02 197.33 77.68 241.01 121.35 332.93 29.44 332.93 2.78"/><polygon class="cls-97" points="332.9 2.78 240.98 94.7 197.31 51.02 197.31 77.68 240.98 121.35 332.9 29.44 332.9 2.78"/><polygon class="cls-40" points="332.87 2.78 240.95 94.7 197.28 51.02 197.28 77.68 240.95 121.35 332.87 29.44 332.87 2.78"/><polygon class="cls-130" points="332.84 2.78 240.92 94.7 197.25 51.02 197.25 77.68 240.92 121.35 332.84 29.44 332.84 2.78"/><polygon class="cls-123" points="332.81 2.78 240.89 94.7 197.22 51.02 197.22 77.68 240.89 121.35 332.81 29.44 332.81 2.78"/><polygon class="cls-58" points="332.78 2.78 240.86 94.7 197.19 51.02 197.19 77.68 240.86 121.35 332.78 29.44 332.78 2.78"/><polygon class="cls-197" points="332.75 2.78 240.83 94.7 197.16 51.02 197.16 77.68 240.83 121.35 332.75 29.44 332.75 2.78"/><polygon class="cls-111" points="332.72 2.78 240.8 94.7 197.13 51.02 197.13 77.68 240.8 121.35 332.72 29.44 332.72 2.78"/><polygon class="cls-69" points="332.69 2.78 240.78 94.7 197.1 51.02 197.1 77.68 240.78 121.35 332.69 29.44 332.69 2.78"/><polygon class="cls-25" points="332.66 2.78 240.75 94.7 197.07 51.02 197.07 77.68 240.75 121.35 332.66 29.44 332.66 2.78"/><polygon class="cls-27" points="332.63 2.78 240.72 94.7 197.04 51.02 197.04 77.68 240.72 121.35 332.63 29.44 332.63 2.78"/><polygon class="cls-56" points="332.6 2.78 240.69 94.7 197.01 51.02 197.01 77.68 240.69 121.35 332.6 29.44 332.6 2.78"/><polygon class="cls-131" points="332.57 2.78 240.66 94.7 196.98 51.02 196.98 77.68 240.66 121.35 332.57 29.44 332.57 2.78"/><polygon class="cls-227" points="332.54 2.78 240.63 94.7 196.95 51.02 196.95 77.68 240.63 121.35 332.54 29.44 332.54 2.78"/><polygon class="cls-157" points="332.52 2.78 240.6 94.7 196.92 51.02 196.92 77.68 240.6 121.35 332.52 29.44 332.52 2.78"/><polygon class="cls-84" points="332.49 2.78 240.57 94.7 196.9 51.02 196.9 77.68 240.57 121.35 332.49 29.44 332.49 2.78"/><polygon class="cls-99" points="332.46 2.78 240.54 94.7 196.87 51.02 196.87 77.68 240.54 121.35 332.46 29.44 332.46 2.78"/><polygon class="cls-81" points="332.43 2.78 240.51 94.7 196.84 51.02 196.84 77.68 240.51 121.35 332.43 29.44 332.43 2.78"/><polygon class="cls-223" points="332.4 2.78 240.48 94.7 196.81 51.02 196.81 77.68 240.48 121.35 332.4 29.44 332.4 2.78"/><polygon class="cls-200" points="332.37 2.78 240.45 94.7 196.78 51.02 196.78 77.68 240.45 121.35 332.37 29.44 332.37 2.78"/><polygon class="cls-109" points="332.34 2.78 240.42 94.7 196.75 51.02 196.75 77.68 240.42 121.35 332.34 29.44 332.34 2.78"/><polygon class="cls-113" points="332.31 2.78 240.39 94.7 196.72 51.02 196.72 77.68 240.39 121.35 332.31 29.44 332.31 2.78"/><polygon class="cls-121" points="332.28 2.78 240.37 94.7 196.69 51.02 196.69 77.68 240.37 121.35 332.28 29.44 332.28 2.78"/><polygon class="cls-169" points="332.25 2.78 240.34 94.7 196.66 51.02 196.66 77.68 240.34 121.35 332.25 29.44 332.25 2.78"/><polygon class="cls-82" points="332.22 2.78 240.31 94.7 196.63 51.02 196.63 77.68 240.31 121.35 332.22 29.44 332.22 2.78"/><polygon class="cls-176" points="332.19 2.78 240.28 94.7 196.6 51.02 196.6 77.68 240.28 121.35 332.19 29.44 332.19 2.78"/><polygon class="cls-13" points="332.16 2.78 240.25 94.7 196.57 51.02 196.57 77.68 240.25 121.35 332.16 29.44 332.16 2.78"/><polygon class="cls-75" points="332.13 2.78 240.22 94.7 196.54 51.02 196.54 77.68 240.22 121.35 332.13 29.44 332.13 2.78"/><polygon class="cls-34" points="332.1 2.78 240.19 94.7 196.51 51.02 196.51 77.68 240.19 121.35 332.1 29.44 332.1 2.78"/><polygon class="cls-20" points="332.08 2.78 240.16 94.7 196.49 51.02 196.49 77.68 240.16 121.35 332.08 29.44 332.08 2.78"/><polygon class="cls-133" points="332.05 2.78 240.13 94.7 196.46 51.02 196.46 77.68 240.13 121.35 332.05 29.44 332.05 2.78"/><polygon class="cls-159" points="332.02 2.78 240.1 94.7 196.43 51.02 196.43 77.68 240.1 121.35 332.02 29.44 332.02 2.78"/><polygon class="cls-45" points="331.99 2.78 240.07 94.7 196.4 51.02 196.4 77.68 240.07 121.35 331.99 29.44 331.99 2.78"/><polygon class="cls-205" points="331.96 2.78 240.04 94.7 196.37 51.02 196.37 77.68 240.04 121.35 331.96 29.44 331.96 2.78"/><polygon class="cls-219" points="331.93 2.78 240.01 94.7 196.34 51.02 196.34 77.68 240.01 121.35 331.93 29.44 331.93 2.78"/><polygon class="cls-222" points="331.9 2.78 239.98 94.7 196.31 51.02 196.31 77.68 239.98 121.35 331.9 29.44 331.9 2.78"/><polygon class="cls-145" points="331.87 2.78 239.96 94.7 196.28 51.02 196.28 77.68 239.96 121.35 331.87 29.44 331.87 2.78"/><polygon class="cls-73" points="331.84 2.78 239.93 94.7 196.25 51.02 196.25 77.68 239.93 121.35 331.84 29.44 331.84 2.78"/><polygon class="cls-90" points="331.81 2.78 239.9 94.7 196.22 51.02 196.22 77.68 239.9 121.35 331.81 29.44 331.81 2.78"/><polygon class="cls-35" points="331.78 2.78 239.87 94.7 196.19 51.02 196.19 77.68 239.87 121.35 331.78 29.44 331.78 2.78"/><polygon class="cls-175" points="331.75 2.78 239.84 94.7 196.16 51.02 196.16 77.68 239.84 121.35 331.75 29.44 331.75 2.78"/><polygon class="cls-172" points="331.72 2.78 239.81 94.7 196.13 51.02 196.13 77.68 239.81 121.35 331.72 29.44 331.72 2.78"/><polygon class="cls-9" points="331.69 2.78 239.78 94.7 196.1 51.02 196.1 77.68 239.78 121.35 331.69 29.44 331.69 2.78"/><polygon class="cls-125" points="331.67 2.78 239.75 94.7 196.08 51.02 196.08 77.68 239.75 121.35 331.67 29.44 331.67 2.78"/><polygon class="cls-140" points="331.64 2.78 239.72 94.7 196.05 51.02 196.05 77.68 239.72 121.35 331.64 29.44 331.64 2.78"/><polygon class="cls-1" points="331.61 2.78 239.69 94.7 196.02 51.02 196.02 77.68 239.69 121.35 331.61 29.44 331.61 2.78"/><polygon class="cls-187" points="331.58 2.78 239.66 94.7 195.99 51.02 195.99 77.68 239.66 121.35 331.58 29.44 331.58 2.78"/><polygon class="cls-138" points="331.55 2.78 239.63 94.7 195.96 51.02 195.96 77.68 239.63 121.35 331.55 29.44 331.55 2.78"/><polygon class="cls-119" points="331.52 2.78 239.6 94.7 195.93 51.02 195.93 77.68 239.6 121.35 331.52 29.44 331.52 2.78"/><polygon class="cls-98" points="331.49 2.78 239.57 94.7 195.9 51.02 195.9 77.68 239.57 121.35 331.49 29.44 331.49 2.78"/><polygon class="cls-202" points="331.46 2.78 239.55 94.7 195.87 51.02 195.87 77.68 239.55 121.35 331.46 29.44 331.46 2.78"/><polygon class="cls-53" points="331.43 2.78 239.52 94.7 195.84 51.02 195.84 77.68 239.52 121.35 331.43 29.44 331.43 2.78"/><polygon class="cls-143" points="331.4 2.78 239.49 94.7 195.81 51.02 195.81 77.68 239.49 121.35 331.4 29.44 331.4 2.78"/><polygon class="cls-36" points="331.37 2.78 239.46 94.7 195.78 51.02 195.78 77.68 239.46 121.35 331.37 29.44 331.37 2.78"/><polygon class="cls-16" points="331.34 2.78 239.43 94.7 195.75 51.02 195.75 77.68 239.43 121.35 331.34 29.44 331.34 2.78"/><polygon class="cls-188" points="331.31 2.78 239.4 94.7 195.72 51.02 195.72 77.68 239.4 121.35 331.31 29.44 331.31 2.78"/><polygon class="cls-46" points="331.28 2.78 239.37 94.7 195.69 51.02 195.69 77.68 239.37 121.35 331.28 29.44 331.28 2.78"/><polygon class="cls-112" points="331.26 2.78 239.34 94.7 195.66 51.02 195.66 77.68 239.34 121.35 331.26 29.44 331.26 2.78"/><polygon class="cls-124" points="331.23 2.78 239.31 94.7 195.64 51.02 195.64 77.68 239.31 121.35 331.23 29.44 331.23 2.78"/><polygon class="cls-116" points="331.2 2.78 239.28 94.7 195.61 51.02 195.61 77.68 239.28 121.35 331.2 29.44 331.2 2.78"/><polygon class="cls-135" points="331.17 2.78 239.25 94.7 195.58 51.02 195.58 77.68 239.25 121.35 331.17 29.44 331.17 2.78"/><polygon class="cls-74" points="331.14 2.78 239.22 94.7 195.55 51.02 195.55 77.68 239.22 121.35 331.14 29.44 331.14 2.78"/><polygon class="cls-196" points="331.11 2.78 239.19 94.7 195.52 51.02 195.52 77.68 239.19 121.35 331.11 29.44 331.11 2.78"/><polygon class="cls-70" points="331.08 2.78 239.16 94.7 195.49 51.02 195.49 77.68 239.16 121.35 331.08 29.44 331.08 2.78"/><polygon class="cls-108" points="331.05 2.78 239.14 94.7 195.46 51.02 195.46 77.68 239.14 121.35 331.05 29.44 331.05 2.78"/><polygon class="cls-212" points="331.02 2.78 239.11 94.7 195.43 51.02 195.43 77.68 239.11 121.35 331.02 29.44 331.02 2.78"/><polygon class="cls-178" points="330.99 2.78 239.08 94.7 195.4 51.02 195.4 77.68 239.08 121.35 330.99 29.44 330.99 2.78"/><polygon class="cls-89" points="330.96 2.78 239.05 94.7 195.37 51.02 195.37 77.68 239.05 121.35 330.96 29.44 330.96 2.78"/><polygon class="cls-4" points="330.93 2.78 239.02 94.7 195.34 51.02 195.34 77.68 239.02 121.35 330.93 29.44 330.93 2.78"/><polygon class="cls-104" points="330.9 2.78 238.99 94.7 195.31 51.02 195.31 77.68 238.99 121.35 330.9 29.44 330.9 2.78"/><polygon class="cls-55" points="330.87 2.78 238.96 94.7 195.28 51.02 195.28 77.68 238.96 121.35 330.87 29.44 330.87 2.78"/><polygon class="cls-201" points="330.85 2.78 238.93 94.7 195.25 51.02 195.25 77.68 238.93 121.35 330.85 29.44 330.85 2.78"/><polygon class="cls-52" points="330.82 2.78 238.9 94.7 195.23 51.02 195.23 77.68 238.9 121.35 330.82 29.44 330.82 2.78"/><polygon class="cls-94" points="330.79 2.78 238.87 94.7 195.2 51.02 195.2 77.68 238.87 121.35 330.79 29.44 330.79 2.78"/><polygon class="cls-87" points="330.76 2.78 238.84 94.7 195.17 51.02 195.17 77.68 238.84 121.35 330.76 29.44 330.76 2.78"/><polygon class="cls-18" points="330.73 2.78 238.81 94.7 195.14 51.02 195.14 77.68 238.81 121.35 330.73 29.44 330.73 2.78"/><polygon class="cls-234" points="330.7 2.78 238.78 94.7 195.11 51.02 195.11 77.68 238.78 121.35 330.7 29.44 330.7 2.78"/><polygon class="cls-102" points="330.67 2.78 238.75 94.7 195.08 51.02 195.08 77.68 238.75 121.35 330.67 29.44 330.67 2.78"/><polygon class="cls-23" points="330.64 2.78 238.72 94.7 195.05 51.02 195.05 77.68 238.72 121.35 330.64 29.44 330.64 2.78"/><polygon class="cls-177" points="330.61 2.78 238.7 94.7 195.02 51.02 195.02 77.68 238.7 121.35 330.61 29.44 330.61 2.78"/><polygon class="cls-85" points="330.58 2.78 238.67 94.7 194.99 51.02 194.99 77.68 238.67 121.35 330.58 29.44 330.58 2.78"/><polygon class="cls-48" points="330.55 2.78 238.64 94.7 194.96 51.02 194.96 77.68 238.64 121.35 330.55 29.44 330.55 2.78"/><polygon class="cls-141" points="330.52 2.78 238.61 94.7 194.93 51.02 194.93 77.68 238.61 121.35 330.52 29.44 330.52 2.78"/><polygon class="cls-230" points="330.49 2.78 238.58 94.7 194.9 51.02 194.9 77.68 238.58 121.35 330.49 29.44 330.49 2.78"/><polygon class="cls-154" points="330.46 2.78 238.55 94.7 194.87 51.02 194.87 77.68 238.55 121.35 330.46 29.44 330.46 2.78"/><polygon class="cls-185" points="330.44 2.78 238.52 94.7 194.84 51.02 194.84 77.68 238.52 121.35 330.44 29.44 330.44 2.78"/><polygon class="cls-189" points="330.41 2.78 238.49 94.7 194.82 51.02 194.82 77.68 238.49 121.35 330.41 29.44 330.41 2.78"/><polygon class="cls-59" points="330.38 2.78 238.46 94.7 194.79 51.02 194.79 77.68 238.46 121.35 330.38 29.44 330.38 2.78"/><polygon class="cls-199" points="330.35 2.78 238.43 94.7 194.76 51.02 194.76 77.68 238.43 121.35 330.35 29.44 330.35 2.78"/><polygon class="cls-8" points="330.32 2.78 238.4 94.7 194.73 51.02 194.73 77.68 238.4 121.35 330.32 29.44 330.32 2.78"/><polygon class="cls-163" points="330.29 2.78 238.37 94.7 194.7 51.02 194.7 77.68 238.37 121.35 330.29 29.44 330.29 2.78"/><polygon class="cls-11" points="330.26 2.78 238.34 94.7 194.67 51.02 194.67 77.68 238.34 121.35 330.26 29.44 330.26 2.78"/><polygon class="cls-179" points="330.23 2.78 238.31 94.7 194.64 51.02 194.64 77.68 238.31 121.35 330.23 29.44 330.23 2.78"/><polygon class="cls-49" points="330.2 2.78 238.29 94.7 194.61 51.02 194.61 77.68 238.29 121.35 330.2 29.44 330.2 2.78"/><polygon class="cls-164" points="330.17 2.78 238.26 94.7 194.58 51.02 194.58 77.68 238.26 121.35 330.17 29.44 330.17 2.78"/><polygon class="cls-235" points="330.14 2.78 238.23 94.7 194.55 51.02 194.55 77.68 238.23 121.35 330.14 29.44 330.14 2.78"/><polygon class="cls-28" points="330.11 2.78 238.2 94.7 194.52 51.02 194.52 77.68 238.2 121.35 330.11 29.44 330.11 2.78"/><polygon class="cls-106" points="330.08 2.78 238.17 94.7 194.49 51.02 194.49 77.68 238.17 121.35 330.08 29.44 330.08 2.78"/><polygon class="cls-118" points="330.05 2.78 238.14 94.7 194.46 51.02 194.46 77.68 238.14 121.35 330.05 29.44 330.05 2.78"/><polygon class="cls-65" points="330.02 2.78 238.11 94.7 194.43 51.02 194.43 77.68 238.11 121.35 330.02 29.44 330.02 2.78"/><polygon class="cls-158" points="330 2.78 238.08 94.7 194.41 51.02 194.41 77.68 238.08 121.35 330 29.44 330 2.78"/><polygon class="cls-43" points="329.97 2.78 238.05 94.7 194.38 51.02 194.38 77.68 238.05 121.35 329.97 29.44 329.97 2.78"/><polygon class="cls-66" points="329.94 2.78 238.02 94.7 194.35 51.02 194.35 77.68 238.02 121.35 329.94 29.44 329.94 2.78"/><polygon class="cls-183" points="329.91 2.78 237.99 94.7 194.32 51.02 194.32 77.68 237.99 121.35 329.91 29.44 329.91 2.78"/><polygon class="cls-182" points="329.88 2.78 237.96 94.7 194.29 51.02 194.29 77.68 237.96 121.35 329.88 29.44 329.88 2.78"/><polygon class="cls-134" points="329.85 2.78 237.93 94.7 194.26 51.02 194.26 77.68 237.93 121.35 329.85 29.44 329.85 2.78"/><polygon class="cls-221" points="329.82 2.78 237.9 94.7 194.23 51.02 194.23 77.68 237.9 121.35 329.82 29.44 329.82 2.78"/><polygon class="cls-62" points="329.79 2.78 237.88 94.7 194.2 51.02 194.2 77.68 237.88 121.35 329.79 29.44 329.79 2.78"/><polygon class="cls-42" points="329.76 2.78 237.85 94.7 194.17 51.02 194.17 77.68 237.85 121.35 329.76 29.44 329.76 2.78"/><polygon class="cls-92" points="329.73 2.78 237.82 94.7 194.14 51.02 194.14 77.68 237.82 121.35 329.73 29.44 329.73 2.78"/><polygon class="cls-64" points="329.7 2.78 237.79 94.7 194.11 51.02 194.11 77.68 237.79 121.35 329.7 29.44 329.7 2.78"/><polygon class="cls-17" points="329.67 2.78 237.76 94.7 194.08 51.02 194.08 77.68 237.76 121.35 329.67 29.44 329.67 2.78"/><polygon class="cls-210" points="329.64 2.78 237.73 94.7 194.05 51.02 194.05 77.68 237.73 121.35 329.64 29.44 329.64 2.78"/><polygon class="cls-207" points="329.61 2.78 237.7 94.7 194.02 51.02 194.02 77.68 237.7 121.35 329.61 29.44 329.61 2.78"/><polygon class="cls-126" points="329.59 2.78 237.67 94.7 194 51.02 194 77.68 237.67 121.35 329.59 29.44 329.59 2.78"/><polygon class="cls-39" points="329.56 2.78 237.64 94.7 193.97 51.02 193.97 77.68 237.64 121.35 329.56 29.44 329.56 2.78"/><polygon class="cls-224" points="329.53 2.78 237.61 94.7 193.94 51.02 193.94 77.68 237.61 121.35 329.53 29.44 329.53 2.78"/><polygon class="cls-122" points="329.5 2.78 237.58 94.7 193.91 51.02 193.91 77.68 237.58 121.35 329.5 29.44 329.5 2.78"/><polygon class="cls-2" points="329.47 2.78 237.55 94.7 193.88 51.02 193.88 77.68 237.55 121.35 329.47 29.44 329.47 2.78"/><polygon class="cls-226" points="329.44 2.78 237.52 94.7 193.85 51.02 193.85 77.68 237.52 121.35 329.44 29.44 329.44 2.78"/><polygon class="cls-198" points="329.41 2.78 237.49 94.7 193.82 51.02 193.82 77.68 237.49 121.35 329.41 29.44 329.41 2.78"/><polygon class="cls-77" points="329.38 2.78 237.47 94.7 193.79 51.02 193.79 77.68 237.47 121.35 329.38 29.44 329.38 2.78"/><polygon class="cls-211" points="329.35 2.78 237.44 94.7 193.76 51.02 193.76 77.68 237.44 121.35 329.35 29.44 329.35 2.78"/><polygon class="cls-165" points="329.32 2.78 237.41 94.7 193.73 51.02 193.73 77.68 237.41 121.35 329.32 29.44 329.32 2.78"/><polygon class="cls-91" points="329.29 2.78 237.38 94.7 193.7 51.02 193.7 77.68 237.38 121.35 329.29 29.44 329.29 2.78"/><polygon class="cls-192" points="329.26 2.78 237.35 94.7 193.67 51.02 193.67 77.68 237.35 121.35 329.26 29.44 329.26 2.78"/><polygon class="cls-105" points="329.23 2.78 237.32 94.7 193.64 51.02 193.64 77.68 237.32 121.35 329.23 29.44 329.23 2.78"/><polygon class="cls-44" points="329.2 2.78 237.29 94.7 193.61 51.02 193.61 77.68 237.29 121.35 329.2 29.44 329.2 2.78"/><polygon class="cls-57" points="329.18 2.78 237.26 94.7 193.58 51.02 193.58 77.68 237.26 121.35 329.18 29.44 329.18 2.78"/><polygon class="cls-181" points="329.15 2.78 237.23 94.7 193.56 51.02 193.56 77.68 237.23 121.35 329.15 29.44 329.15 2.78"/><polygon class="cls-236" points="329.12 2.78 237.2 94.7 193.53 51.02 193.53 77.68 237.2 121.35 329.12 29.44 329.12 2.78"/><polygon class="cls-170" points="329.09 2.78 237.17 94.7 193.5 51.02 193.5 77.68 237.17 121.35 329.09 29.44 329.09 2.78"/><polygon class="cls-152" points="329.06 2.78 237.14 94.7 193.47 51.02 193.47 77.68 237.14 121.35 329.06 29.44 329.06 2.78"/><polygon class="cls-86" points="329.03 2.78 237.11 94.7 193.44 51.02 193.44 77.68 237.11 121.35 329.03 29.44 329.03 2.78"/><polygon class="cls-142" points="329 2.78 237.08 94.7 193.41 51.02 193.41 77.68 237.08 121.35 329 29.44 329 2.78"/><polygon class="cls-88" points="328.97 2.78 237.06 94.7 193.38 51.02 193.38 77.68 237.06 121.35 328.97 29.44 328.97 2.78"/><polygon class="cls-71" points="328.94 2.78 237.03 94.7 193.35 51.02 193.35 77.68 237.03 121.35 328.94 29.44 328.94 2.78"/><polygon class="cls-237" points="328.91 2.78 237 94.7 193.32 51.02 193.32 77.68 237 121.35 328.91 29.44 328.91 2.78"/><polygon class="cls-79" points="328.88 2.78 236.97 94.7 193.29 51.02 193.29 77.68 236.97 121.35 328.88 29.44 328.88 2.78"/><polygon class="cls-186" points="328.85 2.78 236.94 94.7 193.26 51.02 193.26 77.68 236.94 121.35 328.85 29.44 328.85 2.78"/><polygon class="cls-195" points="328.82 2.78 236.91 94.7 193.23 51.02 193.23 77.68 236.91 121.35 328.82 29.44 328.82 2.78"/><polygon class="cls-191" points="328.79 2.78 236.88 94.7 193.2 51.02 193.2 77.68 236.88 121.35 328.79 29.44 328.79 2.78"/><polygon class="cls-171" points="328.77 2.78 236.85 94.7 193.17 51.02 193.17 77.68 236.85 121.35 328.77 29.44 328.77 2.78"/><polygon class="cls-29" points="328.74 2.78 236.82 94.7 193.15 51.02 193.15 77.68 236.82 121.35 328.74 29.44 328.74 2.78"/><polygon class="cls-148" points="328.71 2.78 236.79 94.7 193.12 51.02 193.12 77.68 236.79 121.35 328.71 29.44 328.71 2.78"/><polygon class="cls-117" points="328.68 2.78 236.76 94.7 193.09 51.02 193.09 77.68 236.76 121.35 328.68 29.44 328.68 2.78"/><polygon class="cls-127" points="328.65 2.78 236.73 94.7 193.06 51.02 193.06 77.68 236.73 121.35 328.65 29.44 328.65 2.78"/><polygon class="cls-160" points="328.62 2.78 236.7 94.7 193.03 51.02 193.03 77.68 236.7 121.35 328.62 29.44 328.62 2.78"/><polygon class="cls-5" points="328.59 2.78 236.67 94.7 193 51.02 193 77.68 236.67 121.35 328.59 29.44 328.59 2.78"/><polygon class="cls-215" points="328.56 2.78 236.64 94.7 192.97 51.02 192.97 77.68 236.64 121.35 328.56 29.44 328.56 2.78"/><polygon class="cls-193" points="328.53 2.78 236.62 94.7 192.94 51.02 192.94 77.68 236.62 121.35 328.53 29.44 328.53 2.78"/><polygon class="cls-61" points="328.5 2.78 236.59 94.7 192.91 51.02 192.91 77.68 236.59 121.35 328.5 29.44 328.5 2.78"/><polygon class="cls-153" points="328.47 2.78 236.56 94.7 192.88 51.02 192.88 77.68 236.56 121.35 328.47 29.44 328.47 2.78"/><polygon class="cls-146" points="328.44 2.78 236.53 94.7 192.85 51.02 192.85 77.68 236.53 121.35 328.44 29.44 328.44 2.78"/><polygon class="cls-128" points="328.41 2.78 236.5 94.7 192.82 51.02 192.82 77.68 236.5 121.35 328.41 29.44 328.41 2.78"/><polygon class="cls-83" points="328.38 2.78 236.47 94.7 192.79 51.02 192.79 77.68 236.47 121.35 328.38 29.44 328.38 2.78"/><polygon class="cls-156" points="328.36 2.78 236.44 94.7 192.76 51.02 192.76 77.68 236.44 121.35 328.36 29.44 328.36 2.78"/><polygon class="cls-21" points="328.33 2.78 236.41 94.7 192.74 51.02 192.74 77.68 236.41 121.35 328.33 29.44 328.33 2.78"/><polygon class="cls-33" points="328.3 2.78 236.38 94.7 192.71 51.02 192.71 77.68 236.38 121.35 328.3 29.44 328.3 2.78"/><polygon class="cls-139" points="328.27 2.78 236.35 94.7 192.68 51.02 192.68 77.68 236.35 121.35 328.27 29.44 328.27 2.78"/><polygon class="cls-129" points="328.24 2.78 236.32 94.7 192.65 51.02 192.65 77.68 236.32 121.35 328.24 29.44 328.24 2.78"/><polygon class="cls-206" points="328.21 2.78 236.29 94.7 192.62 51.02 192.62 77.68 236.29 121.35 328.21 29.44 328.21 2.78"/><polygon class="cls-214" points="328.18 2.78 236.26 94.7 192.59 51.02 192.59 77.68 236.26 121.35 328.18 29.44 328.18 2.78"/><polygon class="cls-220" points="328.15 2.78 236.23 94.7 192.56 51.02 192.56 77.68 236.23 121.35 328.15 29.44 328.15 2.78"/><polygon class="cls-31" points="328.12 2.78 236.21 94.7 192.53 51.02 192.53 77.68 236.21 121.35 328.12 29.44 328.12 2.78"/><polygon class="cls-228" points="328.09 2.78 236.18 94.7 192.5 51.02 192.5 77.68 236.18 121.35 328.09 29.44 328.09 2.78"/><polygon class="cls-184" points="328.06 2.78 236.15 94.7 192.47 51.02 192.47 77.68 236.15 121.35 328.06 29.44 328.06 2.78"/><polygon class="cls-208" points="328.03 2.78 236.12 94.7 192.44 51.02 192.44 77.68 236.12 121.35 328.03 29.44 328.03 2.78"/><polygon class="cls-60" points="328 2.78 236.09 94.7 192.41 51.02 192.41 77.68 236.09 121.35 328 29.44 328 2.78"/><polygon class="cls-229" points="327.97 2.78 236.06 94.7 192.38 51.02 192.38 77.68 236.06 121.35 327.97 29.44 327.97 2.78"/><polygon class="cls-213" points="327.94 2.78 236.03 94.7 192.35 51.02 192.35 77.68 236.03 121.35 327.94 29.44 327.94 2.78"/><polygon class="cls-162" points="327.92 2.78 236 94.7 192.33 51.02 192.33 77.68 236 121.35 327.92 29.44 327.92 2.78"/><polygon class="cls-32" points="327.89 2.78 235.97 94.7 192.3 51.02 192.3 77.68 235.97 121.35 327.89 29.44 327.89 2.78"/><polygon class="cls-93" points="327.86 2.78 235.94 94.7 192.27 51.02 192.27 77.68 235.94 121.35 327.86 29.44 327.86 2.78"/><polygon class="cls-132" points="327.83 2.78 235.91 94.7 192.24 51.02 192.24 77.68 235.91 121.35 327.83 29.44 327.83 2.78"/><polygon class="cls-22" points="327.8 2.78 235.88 94.7 192.21 51.02 192.21 77.68 235.88 121.35 327.8 29.44 327.8 2.78"/><polygon class="cls-80" points="327.77 2.78 235.85 94.7 192.18 51.02 192.18 77.68 235.85 121.35 327.77 29.44 327.77 2.78"/><polygon class="cls-209" points="327.74 2.78 235.82 94.7 192.15 51.02 192.15 77.68 235.82 121.35 327.74 29.44 327.74 2.78"/><polygon class="cls-225" points="327.71 2.78 235.8 94.7 192.12 51.02 192.12 77.68 235.8 121.35 327.71 29.44 327.71 2.78"/><polygon class="cls-144" points="327.68 2.78 235.77 94.7 192.09 51.02 192.09 77.68 235.77 121.35 327.68 29.44 327.68 2.78"/><polygon class="cls-37" points="327.65 2.78 235.74 94.7 192.06 51.02 192.06 77.68 235.74 121.35 327.65 29.44 327.65 2.78"/><polygon class="cls-14" points="327.62 2.78 235.71 94.7 192.03 51.02 192.03 77.68 235.71 121.35 327.62 29.44 327.62 2.78"/><polygon class="cls-100" points="327.59 2.78 235.68 94.7 192 51.02 192 77.68 235.68 121.35 327.59 29.44 327.59 2.78"/><polygon class="cls-150" points="327.56 2.78 235.65 94.7 191.97 51.02 191.97 77.68 235.65 121.35 327.56 29.44 327.56 2.78"/><polygon class="cls-96" points="327.53 2.78 235.62 94.7 191.94 51.02 191.94 77.68 235.62 121.35 327.53 29.44 327.53 2.78"/><polygon class="cls-95" points="327.51 2.78 235.59 94.7 191.92 51.02 191.92 77.68 235.59 121.35 327.51 29.44 327.51 2.78"/><polygon class="cls-167" points="327.48 2.78 235.56 94.7 191.89 51.02 191.89 77.68 235.56 121.35 327.48 29.44 327.48 2.78"/><polygon class="cls-47" points="327.45 2.78 235.53 94.7 191.86 51.02 191.86 77.68 235.53 121.35 327.45 29.44 327.45 2.78"/><polygon class="cls-26" points="327.42 2.78 235.5 94.7 191.83 51.02 191.83 77.68 235.5 121.35 327.42 29.44 327.42 2.78"/><polygon class="cls-68" points="327.39 2.78 235.47 94.7 191.8 51.02 191.8 77.68 235.47 121.35 327.39 29.44 327.39 2.78"/><polygon class="cls-233" points="327.36 2.78 235.44 94.7 191.77 51.02 191.77 77.68 235.44 121.35 327.36 29.44 327.36 2.78"/><polygon class="cls-218" points="327.33 2.78 235.41 94.7 191.74 51.02 191.74 77.68 235.41 121.35 327.33 29.44 327.33 2.78"/><polygon class="cls-168" points="327.3 2.78 235.39 94.7 191.71 51.02 191.71 77.68 235.39 121.35 327.3 29.44 327.3 2.78"/><polygon class="cls-216" points="327.27 2.78 235.36 94.7 191.68 51.02 191.68 77.68 235.36 121.35 327.27 29.44 327.27 2.78"/><polygon class="cls-147" points="327.24 2.78 235.33 94.7 191.65 51.02 191.65 77.68 235.33 121.35 327.24 29.44 327.24 2.78"/></g><path class="cls-239" d="M21.03,103.74v-6.94l-3.16-2.73H0v37.67l2.59,3.13h7.23v-15.75h11.22v-6.9l-3.38-2.8h-7.84v-5.68h11.22Zm-3.52,6.58v5.28H6.29v15.75H.9v-36.34H17.51v5.21H6.29v10.1h11.22Z"/><polygon class="cls-240" points="6.29 100.22 6.29 110.32 17.51 110.32 17.51 115.6 6.29 115.6 6.29 131.35 .9 131.35 .9 95 17.51 95 17.51 100.22 6.29 100.22"/><path class="cls-239" d="M53.1,104.82l-15.42,19.81c.97,.58,2.8,1.58,6.18,1.58,7.26,0,11.9-5.32,11.9-12.58,0-4.64-1.62-7.26-2.66-8.81Zm-8.48,20.49c-1.04,0-1.98-.11-2.62-.4l12.19-15.78c.32,1.26,.68,2.34,.68,4.39,0,9.78-7.51,11.79-10.25,11.79Zm-.65-25.49c-5.54,0-12.69,4.13-12.69,13.7,0,4.57,1.55,6.61,2.44,7.84l15.53-20.02c-.97-.58-2.48-1.51-5.28-1.51Zm-8.63,14.24c0-10.64,7.51-11.65,9.71-11.65,.47,0,.97,0,2.09,.18l-11.47,14.85c-.22-.97-.32-1.69-.32-3.38Zm17.76-9.24l-15.42,19.81c.97,.58,2.8,1.58,6.18,1.58,7.26,0,11.9-5.32,11.9-12.58,0-4.64-1.62-7.26-2.66-8.81Zm-8.48,20.49c-1.04,0-1.98-.11-2.62-.4l12.19-15.78c.32,1.26,.68,2.34,.68,4.39,0,9.78-7.51,11.79-10.25,11.79Zm-.65-25.49c-5.54,0-12.69,4.13-12.69,13.7,0,4.57,1.55,6.61,2.44,7.84l15.53-20.02c-.97-.58-2.48-1.51-5.28-1.51Zm-8.63,14.24c0-10.64,7.51-11.65,9.71-11.65,.47,0,.97,0,2.09,.18l-11.47,14.85c-.22-.97-.32-1.69-.32-3.38Zm25.31-13.27l1.9-2.44-.65-4.53-4.96-3.81-3.88,5.03c-1.19-.54-3.7-1.51-7.8-1.51-12.87,0-20.49,9.38-20.49,20.6,0,2.44,.32,7.69,3.63,12.69l-3.42,4.49,.65,4.67,4.89,3.74,5.14-6.61c1.29,.76,4.1,2.3,9.6,2.3,12.19,0,19.92-9.13,19.92-20.56,0-8.16-3.34-12.47-4.53-14.06Zm-16.54,30.77c-5.03,0-8.41-1.73-9.81-2.48l-4.49,5.68-4.06-3.09,4.49-5.9c-1.4-1.51-4.46-4.82-4.46-11.86,0-13.12,9.71-19.45,18.33-19.45,4.13,0,6.61,1.29,8.56,2.37l4.46-5.64,4.06,3.2-4.67,5.93c1.4,1.62,4.6,5.46,4.6,13.3,0,11.11-7.51,17.94-17,17.94Zm-6.44-6.94c.97,.58,2.8,1.58,6.18,1.58,7.26,0,11.9-5.32,11.9-12.58,0-4.64-1.62-7.26-2.66-8.81l-15.42,19.81Zm17.18-11.11c0,9.78-7.51,11.79-10.25,11.79-1.04,0-1.98-.11-2.62-.4l12.19-15.78c.32,1.26,.68,2.34,.68,4.39Zm-10.89-13.7c-5.54,0-12.69,4.13-12.69,13.7,0,4.57,1.55,6.61,2.44,7.84l15.53-20.02c-.97-.58-2.48-1.51-5.28-1.51Zm-8.63,14.24c0-10.64,7.51-11.65,9.71-11.65,.47,0,.97,0,2.09,.18l-11.47,14.85c-.22-.97-.32-1.69-.32-3.38Z"/><path class="cls-240" d="M61.19,94.39l-4.06-3.2-4.46,5.64c-1.94-1.08-4.42-2.37-8.56-2.37-8.63,0-18.33,6.33-18.33,19.45,0,7.05,3.06,10.35,4.46,11.86l-4.49,5.9,4.06,3.09,4.49-5.68c1.4,.76,4.78,2.48,9.81,2.48,9.49,0,17-6.83,17-17.94,0-7.84-3.2-11.68-4.6-13.3l4.67-5.93Zm-27.47,26.96c-.9-1.22-2.44-3.27-2.44-7.84,0-9.56,7.15-13.7,12.69-13.7,2.8,0,4.31,.93,5.28,1.51l-15.53,20.02Zm10.14,4.85c-3.38,0-5.21-1.01-6.18-1.58l15.42-19.81c1.04,1.55,2.66,4.17,2.66,8.81,0,7.26-4.64,12.58-11.9,12.58Z"/><path class="cls-239" d="M91.81,125.09h-10.5v-28.4l-3.2-2.62h-6.61v37.67l2.48,3.13h20.99v-7.08l-3.16-2.7Zm-.36,6.26h-19.05v-36.34h5.39v30.99h13.66v5.36Z"/><polygon class="cls-240" points="91.45 125.99 91.45 131.35 72.4 131.35 72.4 95 77.79 95 77.79 125.99 91.45 125.99"/><path class="cls-239" d="M127.33,112.33h-12.58v6.4l2.26,2.88h3.7v3.63c-1.08,.29-2.12,.5-4.28,.5-8.63,0-11.83-5.54-11.83-11.54,0-7.33,5.1-11.14,11.07-11.14,4.93,0,9.74,1.44,14.2,3.59v-8.84l-3.06-2.59c-2.01-.61-5.97-1.69-11.04-1.69-12.15,0-20.78,8.34-20.78,20.81,0,13.98,10.03,21.07,20.89,21.07,5.14,0,9.74-1.19,14.56-3.09v-17.33l-3.13-2.66Zm-.4,17.58c-2.12,.65-6.11,1.98-11.22,1.98-13.34,0-19.77-10.35-19.77-18.8s6.51-18.62,19.74-18.62c3.63,0,7.19,.54,10.68,1.55v5.43c-3.38-1.19-6.94-1.91-10.57-1.91-9.78,0-14.38,7.23-14.38,13.66,0,3.85,1.58,6.9,3.63,9.13,2.84,3.02,6.08,4.31,10.96,4.31,2.66,0,4.28-.43,5.61-.68v-7.55h-5.93v-5.14h11.25v16.64Z"/><path class="cls-240" d="M126.94,113.27v16.64c-2.12,.65-6.11,1.98-11.22,1.98-13.34,0-19.77-10.35-19.77-18.8s6.51-18.62,19.74-18.62c3.63,0,7.19,.54,10.68,1.55v5.43c-3.38-1.19-6.94-1.91-10.57-1.91-9.78,0-14.38,7.23-14.38,13.66,0,3.85,1.58,6.9,3.63,9.13,2.84,3.02,6.08,4.31,10.96,4.31,2.66,0,4.28-.43,5.61-.68v-7.55h-5.93v-5.14h11.25Z"/><path class="cls-239" d="M156.77,125.24h-9.67v-6.11h11.9v-7.01l-3.16-2.66h-8.74v-5.72h12.55v-6.94l-3.38-2.73h-19.05v37.67l2.52,3.13h20.13v-6.97l-3.09-2.66Zm-.43,6.11h-18.23v-36.34h18.01v5.21h-12.65v10.17h12.01v5.21h-12.01v10.57h12.87v5.18Z"/><polygon class="cls-240" points="156.34 126.17 156.34 131.35 138.12 131.35 138.12 95 156.13 95 156.13 100.22 143.47 100.22 143.47 110.39 155.48 110.39 155.48 115.6 143.47 115.6 143.47 126.17 156.34 126.17"/><path class="cls-239" d="M177.91,110.82c-3.38-2.88-4.57-3.56-4.57-5.14,0-2.23,2.19-2.84,3.7-2.84,.68,0,1.69,.11,2.66,.58,4.1,1.87,4.53,2.09,5.18,2.37v-8.2l-2.95-2.66c-2.73-1.11-5.32-1.4-6.83-1.4-6.79,0-11.47,4.49-11.47,10.96s2.44,8.34,8.2,12.73c2.34,1.8,4.49,3.34,4.49,5.32,0,1.51-1.22,2.77-3.88,2.77-3.85,0-7.05-2.23-8.48-3.16v7.98l2.52,4.1c1.91,.54,4.17,1.19,7.26,1.19,7.15,0,12.62-5.46,12.62-12.22,0-5.32-2.55-7.26-8.45-12.37Zm-5.03,20.53c-3.7,0-6.61-1.19-7.98-1.76v-5.61c1.69,1.01,4.03,2.23,7.48,2.23,4.78,0,5.36-3.02,5.36-4.17,0-3.45-3.09-5.86-5.9-8.02-5.64-4.35-6.97-7.01-6.97-10.35,0-5.57,4.42-9.2,10.28-9.2,2.88,0,4.89,.79,6.18,1.29v5.46c-1.26-.58-3.49-1.55-6.22-1.55-3.7,0-5.1,2.48-5.1,3.95,0,2.37,1.83,3.77,6.76,7.59,3.52,2.7,6.4,5.68,6.4,10.39,0,5.25-4.06,9.74-10.28,9.74Z"/><path class="cls-240" d="M183.16,121.61c0,5.25-4.06,9.74-10.28,9.74-3.7,0-6.61-1.19-7.98-1.76v-5.61c1.69,1.01,4.03,2.23,7.48,2.23,4.78,0,5.36-3.02,5.36-4.17,0-3.45-3.09-5.86-5.9-8.02-5.64-4.35-6.97-7.01-6.97-10.35,0-5.57,4.42-9.2,10.28-9.2,2.88,0,4.89,.79,6.18,1.29v5.46c-1.26-.58-3.49-1.55-6.22-1.55-3.7,0-5.1,2.48-5.1,3.95,0,2.37,1.83,3.77,6.76,7.59,3.52,2.7,6.4,5.68,6.4,10.39Z"/></svg>