<?xml version="1.0" encoding="UTF-8"?><svg id="Layer_1" xmlns="http://www.w3.org/2000/svg" viewBox="0 0 944.45 304.51"><defs><style>.cls-1,.cls-2,.cls-3{stroke:#2a0c4e;}.cls-1,.cls-2,.cls-4{fill:none;}.cls-1,.cls-3{stroke-linecap:round;stroke-linejoin:round;stroke-width:5px;}.cls-2,.cls-4{stroke-miterlimit:10;stroke-width:14px;}.cls-5,.cls-3{fill:#fff8f0;}.cls-4{stroke:#ff7e6b;}</style></defs><g><g><path class="cls-2" d="M10,150.72c102.25,0,102.25,46,204.51,46s102.25-46,204.51-46,102.26,46,204.51,46,102.26-46,204.51-46"/><path class="cls-2" d="M10,201.11c102.25,0,102.25,46,204.51,46s102.25-46,204.51-46,102.26,46,204.51,46,102.26-46,204.51-46"/><path class="cls-2" d="M10,251.51c102.25,0,102.25,46,204.51,46s102.25-46,204.51-46,102.26,46,204.51,46,102.26-46,204.51-46"/></g><g><path class="cls-2" d="M9.91,150.62c102.25,0,102.25,46,204.51,46s102.25-46,204.51-46,102.26,46,204.51,46,102.26-46,204.51-46"/><path class="cls-2" d="M9.91,201.02c102.25,0,102.25,46,204.51,46s102.25-46,204.51-46,102.26,46,204.51,46,102.26-46,204.51-46"/><path class="cls-2" d="M9.91,251.41c102.25,0,102.25,46,204.51,46s102.25-46,204.51-46,102.26,46,204.51,46,102.26-46,204.51-46"/></g><g><path class="cls-2" d="M9.82,150.52c102.25,0,102.25,46,204.51,46s102.25-46,204.51-46,102.26,46,204.51,46,102.26-46,204.51-46"/><path class="cls-2" d="M9.82,200.92c102.25,0,102.25,46,204.51,46s102.25-46,204.51-46,102.26,46,204.51,46,102.26-46,204.51-46"/><path class="cls-2" d="M9.82,251.31c102.25,0,102.25,46,204.51,46s102.25-46,204.51-46,102.26,46,204.51,46,102.26-46,204.51-46"/></g><g><path class="cls-2" d="M9.73,150.42c102.25,0,102.25,46,204.51,46s102.25-46,204.51-46,102.26,46,204.51,46,102.26-46,204.51-46"/><path class="cls-2" d="M9.73,200.82c102.25,0,102.25,46,204.51,46s102.25-46,204.51-46,102.26,46,204.51,46,102.26-46,204.51-46"/><path class="cls-2" d="M9.73,251.21c102.25,0,102.25,46,204.51,46s102.25-46,204.51-46,102.26,46,204.51,46,102.26-46,204.51-46"/></g><g><path class="cls-2" d="M9.64,150.32c102.25,0,102.25,46,204.51,46s102.25-46,204.51-46,102.26,46,204.51,46,102.26-46,204.51-46"/><path class="cls-2" d="M9.64,200.72c102.25,0,102.25,46,204.51,46s102.25-46,204.51-46,102.26,46,204.51,46,102.26-46,204.51-46"/><path class="cls-2" d="M9.64,251.12c102.25,0,102.25,46,204.51,46s102.25-46,204.51-46,102.26,46,204.51,46,102.26-46,204.51-46"/></g><g><path class="cls-2" d="M9.55,150.22c102.25,0,102.25,46,204.51,46s102.25-46,204.51-46,102.26,46,204.51,46,102.26-46,204.51-46"/><path class="cls-2" d="M9.55,200.62c102.25,0,102.25,46,204.51,46s102.25-46,204.51-46,102.26,46,204.51,46,102.26-46,204.51-46"/><path class="cls-2" d="M9.55,251.02c102.25,0,102.25,46,204.51,46s102.25-46,204.51-46,102.26,46,204.51,46,102.26-46,204.51-46"/></g><g><path class="cls-2" d="M9.47,150.12c102.25,0,102.25,46,204.51,46s102.25-46,204.51-46,102.26,46,204.51,46,102.26-46,204.51-46"/><path class="cls-2" d="M9.47,200.52c102.25,0,102.25,46,204.51,46s102.25-46,204.51-46,102.26,46,204.51,46,102.26-46,204.51-46"/><path class="cls-2" d="M9.47,250.92c102.25,0,102.25,46,204.51,46s102.25-46,204.51-46,102.26,46,204.51,46,102.26-46,204.51-46"/></g><g><path class="cls-2" d="M9.38,150.02c102.25,0,102.25,46,204.51,46s102.25-46,204.51-46,102.26,46,204.51,46,102.26-46,204.51-46"/><path class="cls-2" d="M9.38,200.42c102.25,0,102.25,46,204.51,46s102.25-46,204.51-46,102.26,46,204.51,46,102.26-46,204.51-46"/><path class="cls-2" d="M9.38,250.82c102.25,0,102.25,46,204.51,46s102.25-46,204.51-46,102.26,46,204.51,46,102.26-46,204.51-46"/></g><g><path class="cls-2" d="M9.29,149.93c102.25,0,102.25,46,204.51,46s102.25-46,204.51-46,102.26,46,204.51,46,102.26-46,204.51-46"/><path class="cls-2" d="M9.29,200.32c102.25,0,102.25,46,204.51,46s102.25-46,204.51-46,102.26,46,204.51,46,102.26-46,204.51-46"/><path class="cls-2" d="M9.29,250.72c102.25,0,102.25,46,204.51,46s102.25-46,204.51-46,102.26,46,204.51,46,102.26-46,204.51-46"/></g><g><path class="cls-2" d="M9.2,149.83c102.25,0,102.25,46,204.51,46s102.25-46,204.51-46,102.26,46,204.51,46,102.26-46,204.51-46"/><path class="cls-2" d="M9.2,200.22c102.25,0,102.25,46,204.51,46s102.25-46,204.51-46,102.26,46,204.51,46,102.26-46,204.51-46"/><path class="cls-2" d="M9.2,250.62c102.25,0,102.25,46,204.51,46s102.25-46,204.51-46,102.26,46,204.51,46,102.26-46,204.51-46"/></g><g><path class="cls-2" d="M9.11,149.73c102.25,0,102.25,46,204.51,46s102.25-46,204.51-46,102.26,46,204.51,46,102.26-46,204.51-46"/><path class="cls-2" d="M9.11,200.12c102.25,0,102.25,46,204.51,46s102.25-46,204.51-46,102.26,46,204.51,46,102.26-46,204.51-46"/><path class="cls-2" d="M9.11,250.52c102.25,0,102.25,46,204.51,46s102.25-46,204.51-46,102.26,46,204.51,46,102.26-46,204.51-46"/></g><g><path class="cls-2" d="M9.02,149.63c102.25,0,102.25,46,204.51,46s102.25-46,204.51-46,102.26,46,204.51,46,102.26-46,204.51-46"/><path class="cls-2" d="M9.02,200.03c102.25,0,102.25,46,204.51,46s102.25-46,204.51-46,102.26,46,204.51,46,102.26-46,204.51-46"/><path class="cls-2" d="M9.02,250.42c102.25,0,102.25,46,204.51,46s102.25-46,204.51-46,102.26,46,204.51,46,102.26-46,204.51-46"/></g><g><path class="cls-2" d="M8.93,149.53c102.25,0,102.25,46,204.51,46s102.25-46,204.51-46,102.26,46,204.51,46,102.26-46,204.51-46"/><path class="cls-2" d="M8.93,199.93c102.25,0,102.25,46,204.51,46s102.25-46,204.51-46,102.26,46,204.51,46,102.26-46,204.51-46"/><path class="cls-2" d="M8.93,250.32c102.25,0,102.25,46,204.51,46s102.25-46,204.51-46,102.26,46,204.51,46,102.26-46,204.51-46"/></g><g><path class="cls-2" d="M8.84,149.43c102.25,0,102.25,46,204.51,46s102.25-46,204.51-46,102.26,46,204.51,46,102.26-46,204.51-46"/><path class="cls-2" d="M8.84,199.83c102.25,0,102.25,46,204.51,46s102.25-46,204.51-46,102.26,46,204.51,46,102.26-46,204.51-46"/><path class="cls-2" d="M8.84,250.22c102.25,0,102.25,46,204.51,46s102.25-46,204.51-46,102.26,46,204.51,46,102.26-46,204.51-46"/></g><g><path class="cls-2" d="M8.75,149.33c102.25,0,102.25,46,204.51,46s102.25-46,204.51-46,102.26,46,204.51,46,102.26-46,204.51-46"/><path class="cls-2" d="M8.75,199.73c102.25,0,102.25,46,204.51,46s102.25-46,204.51-46,102.26,46,204.51,46,102.26-46,204.51-46"/><path class="cls-2" d="M8.75,250.13c102.25,0,102.25,46,204.51,46s102.25-46,204.51-46,102.26,46,204.51,46,102.26-46,204.51-46"/></g><g><path class="cls-2" d="M8.66,149.23c102.25,0,102.25,46,204.51,46s102.25-46,204.51-46,102.26,46,204.51,46,102.26-46,204.51-46"/><path class="cls-2" d="M8.66,199.63c102.25,0,102.25,46,204.51,46s102.25-46,204.51-46,102.26,46,204.51,46,102.26-46,204.51-46"/><path class="cls-2" d="M8.66,250.03c102.25,0,102.25,46,204.51,46s102.25-46,204.51-46,102.26,46,204.51,46,102.26-46,204.51-46"/></g><g><path class="cls-2" d="M8.57,149.13c102.25,0,102.25,46,204.51,46s102.25-46,204.51-46,102.26,46,204.51,46,102.26-46,204.51-46"/><path class="cls-2" d="M8.57,199.53c102.25,0,102.25,46,204.51,46s102.25-46,204.51-46,102.26,46,204.51,46,102.26-46,204.51-46"/><path class="cls-2" d="M8.57,249.93c102.25,0,102.25,46,204.51,46s102.25-46,204.51-46,102.26,46,204.51,46,102.26-46,204.51-46"/></g><g><path class="cls-2" d="M8.49,149.03c102.25,0,102.25,46,204.51,46s102.25-46,204.51-46,102.26,46,204.51,46,102.26-46,204.51-46"/><path class="cls-2" d="M8.49,199.43c102.25,0,102.25,46,204.51,46s102.25-46,204.51-46,102.26,46,204.51,46,102.26-46,204.51-46"/><path class="cls-2" d="M8.49,249.83c102.25,0,102.25,46,204.51,46s102.25-46,204.51-46,102.26,46,204.51,46,102.26-46,204.51-46"/></g><g><path class="cls-2" d="M8.4,148.94c102.25,0,102.25,46,204.51,46s102.25-46,204.51-46,102.26,46,204.51,46,102.26-46,204.51-46"/><path class="cls-2" d="M8.4,199.33c102.25,0,102.25,46,204.51,46s102.25-46,204.51-46,102.26,46,204.51,46,102.26-46,204.51-46"/><path class="cls-2" d="M8.4,249.73c102.25,0,102.25,46,204.51,46s102.25-46,204.51-46,102.26,46,204.51,46,102.26-46,204.51-46"/></g><g><path class="cls-2" d="M8.31,148.84c102.25,0,102.25,46,204.51,46s102.25-46,204.51-46,102.26,46,204.51,46,102.26-46,204.51-46"/><path class="cls-2" d="M8.31,199.23c102.25,0,102.25,46,204.51,46s102.25-46,204.51-46,102.26,46,204.51,46,102.26-46,204.51-46"/><path class="cls-2" d="M8.31,249.63c102.25,0,102.25,46,204.51,46s102.25-46,204.51-46,102.26,46,204.51,46,102.26-46,204.51-46"/></g><g><path class="cls-2" d="M8.22,148.74c102.25,0,102.25,46,204.51,46s102.25-46,204.51-46,102.26,46,204.51,46,102.26-46,204.51-46"/><path class="cls-2" d="M8.22,199.13c102.25,0,102.25,46,204.51,46s102.25-46,204.51-46,102.26,46,204.51,46,102.26-46,204.51-46"/><path class="cls-2" d="M8.22,249.53c102.25,0,102.25,46,204.51,46s102.25-46,204.51-46,102.26,46,204.51,46,102.26-46,204.51-46"/></g><g><path class="cls-2" d="M8.13,148.64c102.25,0,102.25,46,204.51,46s102.25-46,204.51-46,102.26,46,204.51,46,102.26-46,204.51-46"/><path class="cls-2" d="M8.13,199.04c102.25,0,102.25,46,204.51,46s102.25-46,204.51-46,102.26,46,204.51,46,102.26-46,204.51-46"/><path class="cls-2" d="M8.13,249.43c102.25,0,102.25,46,204.51,46s102.25-46,204.51-46,102.26,46,204.51,46,102.26-46,204.51-46"/></g><g><path class="cls-2" d="M8.04,148.54c102.25,0,102.25,46,204.51,46s102.25-46,204.51-46,102.26,46,204.51,46,102.26-46,204.51-46"/><path class="cls-2" d="M8.04,198.94c102.25,0,102.25,46,204.51,46s102.25-46,204.51-46,102.26,46,204.51,46,102.26-46,204.51-46"/><path class="cls-2" d="M8.04,249.33c102.25,0,102.25,46,204.51,46s102.25-46,204.51-46,102.26,46,204.51,46,102.26-46,204.51-46"/></g><g><path class="cls-2" d="M7.95,148.44c102.25,0,102.25,46,204.51,46s102.25-46,204.51-46,102.26,46,204.51,46,102.26-46,204.51-46"/><path class="cls-2" d="M7.95,198.84c102.25,0,102.25,46,204.51,46s102.25-46,204.51-46,102.26,46,204.51,46,102.26-46,204.51-46"/><path class="cls-2" d="M7.95,249.23c102.25,0,102.25,46,204.51,46s102.25-46,204.51-46,102.26,46,204.51,46,102.26-46,204.51-46"/></g><g><path class="cls-2" d="M7.86,148.34c102.25,0,102.25,46,204.51,46s102.25-46,204.51-46,102.26,46,204.51,46,102.26-46,204.51-46"/><path class="cls-2" d="M7.86,198.74c102.25,0,102.25,46,204.51,46s102.25-46,204.51-46,102.26,46,204.51,46,102.26-46,204.51-46"/><path class="cls-2" d="M7.86,249.14c102.25,0,102.25,46,204.51,46s102.25-46,204.51-46,102.26,46,204.51,46,102.26-46,204.51-46"/></g><g><path class="cls-2" d="M7.77,148.24c102.25,0,102.25,46,204.51,46s102.25-46,204.51-46,102.26,46,204.51,46,102.26-46,204.51-46"/><path class="cls-2" d="M7.77,198.64c102.25,0,102.25,46,204.51,46s102.25-46,204.51-46,102.26,46,204.51,46,102.26-46,204.51-46"/><path class="cls-2" d="M7.77,249.04c102.25,0,102.25,46,204.51,46s102.25-46,204.51-46,102.26,46,204.51,46,102.26-46,204.51-46"/></g><g><path class="cls-2" d="M7.68,148.14c102.25,0,102.25,46,204.51,46s102.25-46,204.51-46,102.26,46,204.51,46,102.26-46,204.51-46"/><path class="cls-2" d="M7.68,198.54c102.25,0,102.25,46,204.51,46s102.25-46,204.51-46,102.26,46,204.51,46,102.26-46,204.51-46"/><path class="cls-2" d="M7.68,248.94c102.25,0,102.25,46,204.51,46s102.25-46,204.51-46,102.26,46,204.51,46,102.26-46,204.51-46"/></g><g><path class="cls-2" d="M7.59,148.04c102.25,0,102.25,46,204.51,46s102.25-46,204.51-46,102.26,46,204.51,46,102.26-46,204.51-46"/><path class="cls-2" d="M7.59,198.44c102.25,0,102.25,46,204.51,46s102.25-46,204.51-46,102.26,46,204.51,46,102.26-46,204.51-46"/><path class="cls-2" d="M7.59,248.84c102.25,0,102.25,46,204.51,46s102.25-46,204.51-46,102.26,46,204.51,46,102.26-46,204.51-46"/></g><g><path class="cls-2" d="M7.5,147.95c102.25,0,102.25,46,204.51,46s102.25-46,204.51-46,102.26,46,204.51,46,102.26-46,204.51-46"/><path class="cls-2" d="M7.5,198.34c102.25,0,102.25,46,204.51,46s102.25-46,204.51-46,102.26,46,204.51,46,102.26-46,204.51-46"/><path class="cls-2" d="M7.5,248.74c102.25,0,102.25,46,204.51,46s102.25-46,204.51-46,102.26,46,204.51,46,102.26-46,204.51-46"/></g><g><path class="cls-2" d="M7.42,147.85c102.25,0,102.25,46,204.51,46s102.25-46,204.51-46,102.26,46,204.51,46,102.26-46,204.51-46"/><path class="cls-2" d="M7.42,198.24c102.25,0,102.25,46,204.51,46s102.25-46,204.51-46,102.26,46,204.51,46,102.26-46,204.51-46"/><path class="cls-2" d="M7.42,248.64c102.25,0,102.25,46,204.51,46s102.25-46,204.51-46,102.26,46,204.51,46,102.26-46,204.51-46"/></g><g><path class="cls-2" d="M7.33,147.75c102.25,0,102.25,46,204.51,46s102.25-46,204.51-46,102.26,46,204.51,46,102.26-46,204.51-46"/><path class="cls-2" d="M7.33,198.14c102.25,0,102.25,46,204.51,46s102.25-46,204.51-46,102.26,46,204.51,46,102.26-46,204.51-46"/><path class="cls-2" d="M7.33,248.54c102.25,0,102.25,46,204.51,46s102.25-46,204.51-46,102.26,46,204.51,46,102.26-46,204.51-46"/></g><g><path class="cls-2" d="M7.24,147.65c102.25,0,102.25,46,204.51,46s102.25-46,204.51-46,102.26,46,204.51,46,102.26-46,204.51-46"/><path class="cls-2" d="M7.24,198.05c102.25,0,102.25,46,204.51,46s102.25-46,204.51-46,102.26,46,204.51,46,102.26-46,204.51-46"/><path class="cls-2" d="M7.24,248.44c102.25,0,102.25,46,204.51,46s102.25-46,204.51-46,102.26,46,204.51,46,102.26-46,204.51-46"/></g><g><path class="cls-2" d="M7.15,147.55c102.25,0,102.25,46,204.51,46s102.25-46,204.51-46,102.26,46,204.51,46,102.26-46,204.51-46"/><path class="cls-2" d="M7.15,197.95c102.25,0,102.25,46,204.51,46s102.25-46,204.51-46,102.26,46,204.51,46,102.26-46,204.51-46"/><path class="cls-2" d="M7.15,248.34c102.25,0,102.25,46,204.51,46s102.25-46,204.51-46,102.26,46,204.51,46,102.26-46,204.51-46"/></g><g><path class="cls-2" d="M7.06,147.45c102.25,0,102.25,46,204.51,46s102.25-46,204.51-46,102.26,46,204.51,46,102.26-46,204.51-46"/><path class="cls-2" d="M7.06,197.85c102.25,0,102.25,46,204.51,46s102.25-46,204.51-46,102.26,46,204.51,46,102.26-46,204.51-46"/><path class="cls-2" d="M7.06,248.24c102.25,0,102.25,46,204.51,46s102.25-46,204.51-46,102.26,46,204.51,46,102.26-46,204.51-46"/></g><g><path class="cls-2" d="M6.97,147.35c102.25,0,102.25,46,204.51,46s102.25-46,204.51-46,102.26,46,204.51,46,102.26-46,204.51-46"/><path class="cls-2" d="M6.97,197.75c102.25,0,102.25,46,204.51,46s102.25-46,204.51-46,102.26,46,204.51,46,102.26-46,204.51-46"/><path class="cls-2" d="M6.97,248.14c102.25,0,102.25,46,204.51,46s102.25-46,204.51-46,102.26,46,204.51,46,102.26-46,204.51-46"/></g><g><path class="cls-2" d="M6.88,147.25c102.25,0,102.25,46,204.51,46s102.25-46,204.51-46,102.26,46,204.51,46,102.26-46,204.51-46"/><path class="cls-2" d="M6.88,197.65c102.25,0,102.25,46,204.51,46s102.25-46,204.51-46,102.26,46,204.51,46,102.26-46,204.51-46"/><path class="cls-2" d="M6.88,248.05c102.25,0,102.25,46,204.51,46s102.25-46,204.51-46,102.26,46,204.51,46,102.26-46,204.51-46"/></g><g><path class="cls-2" d="M6.79,147.15c102.25,0,102.25,46,204.51,46s102.25-46,204.51-46,102.26,46,204.51,46,102.26-46,204.51-46"/><path class="cls-2" d="M6.79,197.55c102.25,0,102.25,46,204.51,46s102.25-46,204.51-46,102.26,46,204.51,46,102.26-46,204.51-46"/><path class="cls-2" d="M6.79,247.95c102.25,0,102.25,46,204.51,46s102.25-46,204.51-46,102.26,46,204.51,46,102.26-46,204.51-46"/></g><g><path class="cls-2" d="M6.7,147.05c102.25,0,102.25,46,204.51,46s102.25-46,204.51-46,102.26,46,204.51,46,102.26-46,204.51-46"/><path class="cls-2" d="M6.7,197.45c102.25,0,102.25,46,204.51,46s102.25-46,204.51-46,102.26,46,204.51,46,102.26-46,204.51-46"/><path class="cls-2" d="M6.7,247.85c102.25,0,102.25,46,204.51,46s102.25-46,204.51-46,102.26,46,204.51,46,102.26-46,204.51-46"/></g><g><path class="cls-2" d="M6.61,146.96c102.25,0,102.25,46,204.51,46s102.25-46,204.51-46,102.26,46,204.51,46,102.26-46,204.51-46"/><path class="cls-2" d="M6.61,197.35c102.25,0,102.25,46,204.51,46s102.25-46,204.51-46,102.26,46,204.51,46,102.26-46,204.51-46"/><path class="cls-2" d="M6.61,247.75c102.25,0,102.25,46,204.51,46s102.25-46,204.51-46,102.26,46,204.51,46,102.26-46,204.51-46"/></g><g><path class="cls-2" d="M6.52,146.86c102.25,0,102.25,46,204.51,46s102.25-46,204.51-46,102.26,46,204.51,46,102.26-46,204.51-46"/><path class="cls-2" d="M6.52,197.25c102.25,0,102.25,46,204.51,46s102.25-46,204.51-46,102.26,46,204.51,46,102.26-46,204.51-46"/><path class="cls-2" d="M6.52,247.65c102.25,0,102.25,46,204.51,46s102.25-46,204.51-46,102.26,46,204.51,46,102.26-46,204.51-46"/></g><g><path class="cls-2" d="M6.44,146.76c102.25,0,102.25,46,204.51,46s102.25-46,204.51-46,102.26,46,204.51,46,102.26-46,204.51-46"/><path class="cls-2" d="M6.44,197.15c102.25,0,102.25,46,204.51,46s102.25-46,204.51-46,102.26,46,204.51,46,102.26-46,204.51-46"/><path class="cls-2" d="M6.44,247.55c102.25,0,102.25,46,204.51,46s102.25-46,204.51-46,102.26,46,204.51,46,102.26-46,204.51-46"/></g><g><path class="cls-2" d="M6.35,146.66c102.25,0,102.25,46,204.51,46s102.25-46,204.51-46,102.26,46,204.51,46,102.26-46,204.51-46"/><path class="cls-2" d="M6.35,197.06c102.25,0,102.25,46,204.51,46s102.25-46,204.51-46,102.26,46,204.51,46,102.26-46,204.51-46"/><path class="cls-2" d="M6.35,247.45c102.25,0,102.25,46,204.51,46s102.25-46,204.51-46,102.26,46,204.51,46,102.26-46,204.51-46"/></g><g><path class="cls-2" d="M6.26,146.56c102.25,0,102.25,46,204.51,46s102.25-46,204.51-46,102.26,46,204.51,46,102.26-46,204.51-46"/><path class="cls-2" d="M6.26,196.96c102.25,0,102.25,46,204.51,46s102.25-46,204.51-46,102.26,46,204.51,46,102.26-46,204.51-46"/><path class="cls-2" d="M6.26,247.35c102.25,0,102.25,46,204.51,46s102.25-46,204.51-46,102.26,46,204.51,46,102.26-46,204.51-46"/></g><g><path class="cls-2" d="M6.17,146.46c102.25,0,102.25,46,204.51,46s102.25-46,204.51-46,102.26,46,204.51,46,102.26-46,204.51-46"/><path class="cls-2" d="M6.17,196.86c102.25,0,102.25,46,204.51,46s102.25-46,204.51-46,102.26,46,204.51,46,102.26-46,204.51-46"/><path class="cls-2" d="M6.17,247.25c102.25,0,102.25,46,204.51,46s102.25-46,204.51-46,102.26,46,204.51,46,102.26-46,204.51-46"/></g><g><path class="cls-2" d="M6.08,146.36c102.25,0,102.25,46,204.51,46s102.25-46,204.51-46,102.26,46,204.51,46,102.26-46,204.51-46"/><path class="cls-2" d="M6.08,196.76c102.25,0,102.25,46,204.51,46s102.25-46,204.51-46,102.26,46,204.51,46,102.26-46,204.51-46"/><path class="cls-2" d="M6.08,247.15c102.25,0,102.25,46,204.51,46s102.25-46,204.51-46,102.26,46,204.51,46,102.26-46,204.51-46"/></g><g><path class="cls-2" d="M5.99,146.26c102.25,0,102.25,46,204.51,46s102.25-46,204.51-46,102.26,46,204.51,46,102.26-46,204.51-46"/><path class="cls-2" d="M5.99,196.66c102.25,0,102.25,46,204.51,46s102.25-46,204.51-46,102.26,46,204.51,46,102.26-46,204.51-46"/><path class="cls-2" d="M5.99,247.06c102.25,0,102.25,46,204.51,46s102.25-46,204.51-46,102.26,46,204.51,46,102.26-46,204.51-46"/></g><g><path class="cls-2" d="M5.9,146.16c102.25,0,102.25,46,204.51,46s102.25-46,204.51-46,102.26,46,204.51,46,102.26-46,204.51-46"/><path class="cls-2" d="M5.9,196.56c102.25,0,102.25,46,204.51,46s102.25-46,204.51-46,102.26,46,204.51,46,102.26-46,204.51-46"/><path class="cls-2" d="M5.9,246.96c102.25,0,102.25,46,204.51,46s102.25-46,204.51-46,102.26,46,204.51,46,102.26-46,204.51-46"/></g><g><path class="cls-2" d="M5.81,146.06c102.25,0,102.25,46,204.51,46s102.25-46,204.51-46,102.26,46,204.51,46,102.26-46,204.51-46"/><path class="cls-2" d="M5.81,196.46c102.25,0,102.25,46,204.51,46s102.25-46,204.51-46,102.26,46,204.51,46,102.26-46,204.51-46"/><path class="cls-2" d="M5.81,246.86c102.25,0,102.25,46,204.51,46s102.25-46,204.51-46,102.26,46,204.51,46,102.26-46,204.51-46"/></g><g><path class="cls-2" d="M5.72,145.97c102.25,0,102.25,46,204.51,46s102.25-46,204.51-46,102.26,46,204.51,46,102.26-46,204.51-46"/><path class="cls-2" d="M5.72,196.36c102.25,0,102.25,46,204.51,46s102.25-46,204.51-46,102.26,46,204.51,46,102.26-46,204.51-46"/><path class="cls-2" d="M5.72,246.76c102.25,0,102.25,46,204.51,46s102.25-46,204.51-46,102.26,46,204.51,46,102.26-46,204.51-46"/></g><g><path class="cls-2" d="M5.63,145.87c102.25,0,102.25,46,204.51,46s102.25-46,204.51-46,102.26,46,204.51,46,102.26-46,204.51-46"/><path class="cls-2" d="M5.63,196.26c102.25,0,102.25,46,204.51,46s102.25-46,204.51-46,102.26,46,204.51,46,102.26-46,204.51-46"/><path class="cls-2" d="M5.63,246.66c102.25,0,102.25,46,204.51,46s102.25-46,204.51-46,102.26,46,204.51,46,102.26-46,204.51-46"/></g><g><path class="cls-2" d="M5.54,145.77c102.25,0,102.25,46,204.51,46s102.25-46,204.51-46,102.26,46,204.51,46,102.26-46,204.51-46"/><path class="cls-2" d="M5.54,196.16c102.25,0,102.25,46,204.51,46s102.25-46,204.51-46,102.26,46,204.51,46,102.26-46,204.51-46"/><path class="cls-2" d="M5.54,246.56c102.25,0,102.25,46,204.51,46s102.25-46,204.51-46,102.26,46,204.51,46,102.26-46,204.51-46"/></g><g><path class="cls-2" d="M5.46,145.67c102.25,0,102.25,46,204.51,46s102.25-46,204.51-46,102.26,46,204.51,46,102.26-46,204.51-46"/><path class="cls-2" d="M5.46,196.06c102.25,0,102.25,46,204.51,46s102.25-46,204.51-46,102.26,46,204.51,46,102.26-46,204.51-46"/><path class="cls-2" d="M5.46,246.46c102.25,0,102.25,46,204.51,46s102.25-46,204.51-46,102.26,46,204.51,46,102.26-46,204.51-46"/></g><g><path class="cls-2" d="M5.37,145.57c102.25,0,102.25,46,204.51,46s102.25-46,204.51-46,102.26,46,204.51,46,102.26-46,204.51-46"/><path class="cls-2" d="M5.37,195.97c102.25,0,102.25,46,204.51,46s102.25-46,204.51-46,102.26,46,204.51,46,102.26-46,204.51-46"/><path class="cls-2" d="M5.37,246.36c102.25,0,102.25,46,204.51,46s102.25-46,204.51-46,102.26,46,204.51,46,102.26-46,204.51-46"/></g><g><path class="cls-2" d="M5.28,145.47c102.25,0,102.25,46,204.51,46s102.25-46,204.51-46,102.26,46,204.51,46,102.26-46,204.51-46"/><path class="cls-2" d="M5.28,195.87c102.25,0,102.25,46,204.51,46s102.25-46,204.51-46,102.26,46,204.51,46,102.26-46,204.51-46"/><path class="cls-2" d="M5.28,246.26c102.25,0,102.25,46,204.51,46s102.25-46,204.51-46,102.26,46,204.51,46,102.26-46,204.51-46"/></g><g><path class="cls-2" d="M5.19,145.37c102.25,0,102.25,46,204.51,46s102.25-46,204.51-46,102.26,46,204.51,46,102.26-46,204.51-46"/><path class="cls-2" d="M5.19,195.77c102.25,0,102.25,46,204.51,46s102.25-46,204.51-46,102.26,46,204.51,46,102.26-46,204.51-46"/><path class="cls-2" d="M5.19,246.16c102.25,0,102.25,46,204.51,46s102.25-46,204.51-46,102.26,46,204.51,46,102.26-46,204.51-46"/></g><g><path class="cls-2" d="M5.1,145.27c102.25,0,102.25,46,204.51,46s102.25-46,204.51-46,102.26,46,204.51,46,102.26-46,204.51-46"/><path class="cls-2" d="M5.1,195.67c102.25,0,102.25,46,204.51,46s102.25-46,204.51-46,102.26,46,204.51,46,102.26-46,204.51-46"/><path class="cls-2" d="M5.1,246.07c102.25,0,102.25,46,204.51,46s102.25-46,204.51-46,102.26,46,204.51,46,102.26-46,204.51-46"/></g><g><path class="cls-2" d="M5.01,145.17c102.25,0,102.25,46,204.51,46s102.25-46,204.51-46,102.26,46,204.51,46,102.26-46,204.51-46"/><path class="cls-2" d="M5.01,195.57c102.25,0,102.25,46,204.51,46s102.25-46,204.51-46,102.26,46,204.51,46,102.26-46,204.51-46"/><path class="cls-2" d="M5.01,245.97c102.25,0,102.25,46,204.51,46s102.25-46,204.51-46,102.26,46,204.51,46,102.26-46,204.51-46"/></g><g><path class="cls-2" d="M4.92,145.07c102.25,0,102.25,46,204.51,46s102.25-46,204.51-46,102.26,46,204.51,46,102.26-46,204.51-46"/><path class="cls-2" d="M4.92,195.47c102.25,0,102.25,46,204.51,46s102.25-46,204.51-46,102.26,46,204.51,46,102.26-46,204.51-46"/><path class="cls-2" d="M4.92,245.87c102.25,0,102.25,46,204.51,46s102.25-46,204.51-46,102.26,46,204.51,46,102.26-46,204.51-46"/></g><g><path class="cls-2" d="M4.83,144.98c102.25,0,102.25,46,204.51,46s102.25-46,204.51-46,102.26,46,204.51,46,102.26-46,204.51-46"/><path class="cls-2" d="M4.83,195.37c102.25,0,102.25,46,204.51,46s102.25-46,204.51-46,102.26,46,204.51,46,102.26-46,204.51-46"/><path class="cls-2" d="M4.83,245.77c102.25,0,102.25,46,204.51,46s102.25-46,204.51-46,102.26,46,204.51,46,102.26-46,204.51-46"/></g><g><path class="cls-2" d="M4.74,144.88c102.25,0,102.25,46,204.51,46s102.25-46,204.51-46,102.26,46,204.51,46,102.26-46,204.51-46"/><path class="cls-2" d="M4.74,195.27c102.25,0,102.25,46,204.51,46s102.25-46,204.51-46,102.26,46,204.51,46,102.26-46,204.51-46"/><path class="cls-2" d="M4.74,245.67c102.25,0,102.25,46,204.51,46s102.25-46,204.51-46,102.26,46,204.51,46,102.26-46,204.51-46"/></g><g><path class="cls-2" d="M4.65,144.78c102.25,0,102.25,46,204.51,46s102.25-46,204.51-46,102.26,46,204.51,46,102.26-46,204.51-46"/><path class="cls-2" d="M4.65,195.17c102.25,0,102.25,46,204.51,46s102.25-46,204.51-46,102.26,46,204.51,46,102.26-46,204.51-46"/><path class="cls-2" d="M4.65,245.57c102.25,0,102.25,46,204.51,46s102.25-46,204.51-46,102.26,46,204.51,46,102.26-46,204.51-46"/></g><g><path class="cls-2" d="M4.56,144.68c102.25,0,102.25,46,204.51,46s102.25-46,204.51-46,102.26,46,204.51,46,102.26-46,204.51-46"/><path class="cls-2" d="M4.56,195.07c102.25,0,102.25,46,204.51,46s102.25-46,204.51-46,102.26,46,204.51,46,102.26-46,204.51-46"/><path class="cls-2" d="M4.56,245.47c102.25,0,102.25,46,204.51,46s102.25-46,204.51-46,102.26,46,204.51,46,102.26-46,204.51-46"/></g><g><path class="cls-2" d="M4.48,144.58c102.25,0,102.25,46,204.51,46s102.25-46,204.51-46,102.26,46,204.51,46,102.26-46,204.51-46"/><path class="cls-2" d="M4.48,194.98c102.25,0,102.25,46,204.51,46s102.25-46,204.51-46,102.26,46,204.51,46,102.26-46,204.51-46"/><path class="cls-2" d="M4.48,245.37c102.25,0,102.25,46,204.51,46s102.25-46,204.51-46,102.26,46,204.51,46,102.26-46,204.51-46"/></g><g><path class="cls-2" d="M4.39,144.48c102.25,0,102.25,46,204.51,46s102.25-46,204.51-46,102.26,46,204.51,46,102.26-46,204.51-46"/><path class="cls-2" d="M4.39,194.88c102.25,0,102.25,46,204.51,46s102.25-46,204.51-46,102.26,46,204.51,46,102.26-46,204.51-46"/><path class="cls-2" d="M4.39,245.27c102.25,0,102.25,46,204.51,46s102.25-46,204.51-46,102.26,46,204.51,46,102.26-46,204.51-46"/></g><g><path class="cls-2" d="M4.3,144.38c102.25,0,102.25,46,204.51,46s102.25-46,204.51-46,102.26,46,204.51,46,102.26-46,204.51-46"/><path class="cls-2" d="M4.3,194.78c102.25,0,102.25,46,204.51,46s102.25-46,204.51-46,102.26,46,204.51,46,102.26-46,204.51-46"/><path class="cls-2" d="M4.3,245.17c102.25,0,102.25,46,204.51,46s102.25-46,204.51-46,102.26,46,204.51,46,102.26-46,204.51-46"/></g><g><path class="cls-2" d="M4.21,144.28c102.25,0,102.25,46,204.51,46s102.25-46,204.51-46,102.26,46,204.51,46,102.26-46,204.51-46"/><path class="cls-2" d="M4.21,194.68c102.25,0,102.25,46,204.51,46s102.25-46,204.51-46,102.26,46,204.51,46,102.26-46,204.51-46"/><path class="cls-2" d="M4.21,245.08c102.25,0,102.25,46,204.51,46s102.25-46,204.51-46,102.26,46,204.51,46,102.26-46,204.51-46"/></g><g><path class="cls-2" d="M4.12,144.18c102.25,0,102.25,46,204.51,46s102.25-46,204.51-46,102.26,46,204.51,46,102.26-46,204.51-46"/><path class="cls-2" d="M4.12,194.58c102.25,0,102.25,46,204.51,46s102.25-46,204.51-46,102.26,46,204.51,46,102.26-46,204.51-46"/><path class="cls-2" d="M4.12,244.98c102.25,0,102.25,46,204.51,46s102.25-46,204.51-46,102.26,46,204.51,46,102.26-46,204.51-46"/></g><g><path class="cls-2" d="M4.03,144.08c102.25,0,102.25,46,204.51,46s102.25-46,204.51-46,102.26,46,204.51,46,102.26-46,204.51-46"/><path class="cls-2" d="M4.03,194.48c102.25,0,102.25,46,204.51,46s102.25-46,204.51-46,102.26,46,204.51,46,102.26-46,204.51-46"/><path class="cls-2" d="M4.03,244.88c102.25,0,102.25,46,204.51,46s102.25-46,204.51-46,102.26,46,204.51,46,102.26-46,204.51-46"/></g><g><path class="cls-2" d="M3.94,143.98c102.25,0,102.25,46,204.51,46s102.25-46,204.51-46,102.26,46,204.51,46,102.26-46,204.51-46"/><path class="cls-2" d="M3.94,194.38c102.25,0,102.25,46,204.51,46s102.25-46,204.51-46,102.26,46,204.51,46,102.26-46,204.51-46"/><path class="cls-2" d="M3.94,244.78c102.25,0,102.25,46,204.51,46s102.25-46,204.51-46,102.26,46,204.51,46,102.26-46,204.51-46"/></g><g><path class="cls-2" d="M3.85,143.89c102.25,0,102.25,46,204.51,46s102.25-46,204.51-46,102.26,46,204.51,46,102.26-46,204.51-46"/><path class="cls-2" d="M3.85,194.28c102.25,0,102.25,46,204.51,46s102.25-46,204.51-46,102.26,46,204.51,46,102.26-46,204.51-46"/><path class="cls-2" d="M3.85,244.68c102.25,0,102.25,46,204.51,46s102.25-46,204.51-46,102.26,46,204.51,46,102.26-46,204.51-46"/></g><g><path class="cls-2" d="M3.76,143.79c102.25,0,102.25,46,204.51,46s102.25-46,204.51-46,102.26,46,204.51,46,102.26-46,204.51-46"/><path class="cls-2" d="M3.76,194.18c102.25,0,102.25,46,204.51,46s102.25-46,204.51-46,102.26,46,204.51,46,102.26-46,204.51-46"/><path class="cls-2" d="M3.76,244.58c102.25,0,102.25,46,204.51,46s102.25-46,204.51-46,102.26,46,204.51,46,102.26-46,204.51-46"/></g><g><path class="cls-2" d="M3.67,143.69c102.25,0,102.25,46,204.51,46s102.25-46,204.51-46,102.26,46,204.51,46,102.26-46,204.51-46"/><path class="cls-2" d="M3.67,194.08c102.25,0,102.25,46,204.51,46s102.25-46,204.51-46,102.26,46,204.51,46,102.26-46,204.51-46"/><path class="cls-2" d="M3.67,244.48c102.25,0,102.25,46,204.51,46s102.25-46,204.51-46,102.26,46,204.51,46,102.26-46,204.51-46"/></g><g><path class="cls-2" d="M3.58,143.59c102.25,0,102.25,46,204.51,46s102.25-46,204.51-46,102.26,46,204.51,46,102.26-46,204.51-46"/><path class="cls-2" d="M3.58,193.99c102.25,0,102.25,46,204.51,46s102.25-46,204.51-46,102.26,46,204.51,46,102.26-46,204.51-46"/><path class="cls-2" d="M3.58,244.38c102.25,0,102.25,46,204.51,46s102.25-46,204.51-46,102.26,46,204.51,46,102.26-46,204.51-46"/></g><g><path class="cls-2" d="M3.5,143.49c102.25,0,102.25,46,204.51,46s102.25-46,204.51-46,102.26,46,204.51,46,102.26-46,204.51-46"/><path class="cls-2" d="M3.5,193.89c102.25,0,102.25,46,204.51,46s102.25-46,204.51-46,102.26,46,204.51,46,102.26-46,204.51-46"/><path class="cls-2" d="M3.5,244.28c102.25,0,102.25,46,204.51,46s102.25-46,204.51-46,102.26,46,204.51,46,102.26-46,204.51-46"/></g><g><path class="cls-2" d="M3.41,143.39c102.25,0,102.25,46,204.51,46s102.25-46,204.51-46,102.26,46,204.51,46,102.26-46,204.51-46"/><path class="cls-2" d="M3.41,193.79c102.25,0,102.25,46,204.51,46s102.25-46,204.51-46,102.26,46,204.51,46,102.26-46,204.51-46"/><path class="cls-2" d="M3.41,244.18c102.25,0,102.25,46,204.51,46s102.25-46,204.51-46,102.26,46,204.51,46,102.26-46,204.51-46"/></g><g><path class="cls-2" d="M3.32,143.29c102.25,0,102.25,46,204.51,46s102.25-46,204.51-46,102.26,46,204.51,46,102.26-46,204.51-46"/><path class="cls-2" d="M3.32,193.69c102.25,0,102.25,46,204.51,46s102.25-46,204.51-46,102.26,46,204.51,46,102.26-46,204.51-46"/><path class="cls-2" d="M3.32,244.09c102.25,0,102.25,46,204.51,46s102.25-46,204.51-46,102.26,46,204.51,46,102.26-46,204.51-46"/></g><g><path class="cls-2" d="M3.23,143.19c102.25,0,102.25,46,204.51,46s102.25-46,204.51-46,102.26,46,204.51,46,102.26-46,204.51-46"/><path class="cls-2" d="M3.23,193.59c102.25,0,102.25,46,204.51,46s102.25-46,204.51-46,102.26,46,204.51,46,102.26-46,204.51-46"/><path class="cls-2" d="M3.23,243.99c102.25,0,102.25,46,204.51,46s102.25-46,204.51-46,102.26,46,204.51,46,102.26-46,204.51-46"/></g><g><path class="cls-2" d="M3.14,143.09c102.25,0,102.25,46,204.51,46s102.25-46,204.51-46,102.26,46,204.51,46,102.26-46,204.51-46"/><path class="cls-2" d="M3.14,193.49c102.25,0,102.25,46,204.51,46s102.25-46,204.51-46,102.26,46,204.51,46,102.26-46,204.51-46"/><path class="cls-2" d="M3.14,243.89c102.25,0,102.25,46,204.51,46s102.25-46,204.51-46,102.26,46,204.51,46,102.26-46,204.51-46"/></g><g><path class="cls-2" d="M3.05,142.99c102.25,0,102.25,46,204.51,46s102.25-46,204.51-46,102.26,46,204.51,46,102.26-46,204.51-46"/><path class="cls-2" d="M3.05,193.39c102.25,0,102.25,46,204.51,46s102.25-46,204.51-46,102.26,46,204.51,46,102.26-46,204.51-46"/><path class="cls-2" d="M3.05,243.79c102.25,0,102.25,46,204.51,46s102.25-46,204.51-46,102.26,46,204.51,46,102.26-46,204.51-46"/></g><g><path class="cls-2" d="M2.96,142.9c102.25,0,102.25,46,204.51,46s102.25-46,204.51-46,102.26,46,204.51,46,102.26-46,204.51-46"/><path class="cls-2" d="M2.96,193.29c102.25,0,102.25,46,204.51,46s102.25-46,204.51-46,102.26,46,204.51,46,102.26-46,204.51-46"/><path class="cls-2" d="M2.96,243.69c102.25,0,102.25,46,204.51,46s102.25-46,204.51-46,102.26,46,204.51,46,102.26-46,204.51-46"/></g><g><path class="cls-2" d="M2.87,142.8c102.25,0,102.25,46,204.51,46s102.25-46,204.51-46,102.26,46,204.51,46,102.26-46,204.51-46"/><path class="cls-2" d="M2.87,193.19c102.25,0,102.25,46,204.51,46s102.25-46,204.51-46,102.26,46,204.51,46,102.26-46,204.51-46"/><path class="cls-2" d="M2.87,243.59c102.25,0,102.25,46,204.51,46s102.25-46,204.51-46,102.26,46,204.51,46,102.26-46,204.51-46"/></g><g><path class="cls-2" d="M2.78,142.7c102.25,0,102.25,46,204.51,46s102.25-46,204.51-46,102.26,46,204.51,46,102.26-46,204.51-46"/><path class="cls-2" d="M2.78,193.09c102.25,0,102.25,46,204.51,46s102.25-46,204.51-46,102.26,46,204.51,46,102.26-46,204.51-46"/><path class="cls-2" d="M2.78,243.49c102.25,0,102.25,46,204.51,46s102.25-46,204.51-46,102.26,46,204.51,46,102.26-46,204.51-46"/></g><g><path class="cls-2" d="M2.69,142.6c102.25,0,102.25,46,204.51,46s102.25-46,204.51-46,102.26,46,204.51,46,102.26-46,204.51-46"/><path class="cls-2" d="M2.69,193c102.25,0,102.25,46,204.51,46s102.25-46,204.51-46,102.26,46,204.51,46,102.26-46,204.51-46"/><path class="cls-2" d="M2.69,243.39c102.25,0,102.25,46,204.51,46s102.25-46,204.51-46,102.26,46,204.51,46,102.26-46,204.51-46"/></g><g><path class="cls-2" d="M2.6,142.5c102.25,0,102.25,46,204.51,46s102.25-46,204.51-46,102.26,46,204.51,46,102.26-46,204.51-46"/><path class="cls-2" d="M2.6,192.9c102.25,0,102.25,46,204.51,46s102.25-46,204.51-46,102.26,46,204.51,46,102.26-46,204.51-46"/><path class="cls-2" d="M2.6,243.29c102.25,0,102.25,46,204.51,46s102.25-46,204.51-46,102.26,46,204.51,46,102.26-46,204.51-46"/></g><g><path class="cls-2" d="M2.51,142.4c102.25,0,102.25,46,204.51,46s102.25-46,204.51-46,102.26,46,204.51,46,102.26-46,204.51-46"/><path class="cls-2" d="M2.51,192.8c102.25,0,102.25,46,204.51,46s102.25-46,204.51-46,102.26,46,204.51,46,102.26-46,204.51-46"/><path class="cls-2" d="M2.51,243.19c102.25,0,102.25,46,204.51,46s102.25-46,204.51-46,102.26,46,204.51,46,102.26-46,204.51-46"/></g><g><path class="cls-2" d="M2.43,142.3c102.25,0,102.25,46,204.51,46s102.25-46,204.51-46,102.26,46,204.51,46,102.26-46,204.51-46"/><path class="cls-2" d="M2.43,192.7c102.25,0,102.25,46,204.51,46s102.25-46,204.51-46,102.26,46,204.51,46,102.26-46,204.51-46"/><path class="cls-2" d="M2.43,243.1c102.25,0,102.25,46,204.51,46s102.25-46,204.51-46,102.26,46,204.51,46,102.26-46,204.51-46"/></g><g><path class="cls-2" d="M2.34,142.2c102.25,0,102.25,46,204.51,46s102.25-46,204.51-46,102.26,46,204.51,46,102.26-46,204.51-46"/><path class="cls-2" d="M2.34,192.6c102.25,0,102.25,46,204.51,46s102.25-46,204.51-46,102.26,46,204.51,46,102.26-46,204.51-46"/><path class="cls-2" d="M2.34,243c102.25,0,102.25,46,204.51,46s102.25-46,204.51-46,102.26,46,204.51,46,102.26-46,204.51-46"/></g><g><path class="cls-2" d="M2.25,142.1c102.25,0,102.25,46,204.51,46s102.25-46,204.51-46,102.26,46,204.51,46,102.26-46,204.51-46"/><path class="cls-2" d="M2.25,192.5c102.25,0,102.25,46,204.51,46s102.25-46,204.51-46,102.26,46,204.51,46,102.26-46,204.51-46"/><path class="cls-2" d="M2.25,242.9c102.25,0,102.25,46,204.51,46s102.25-46,204.51-46,102.26,46,204.51,46,102.26-46,204.51-46"/></g><g><path class="cls-2" d="M2.16,142c102.25,0,102.25,46,204.51,46s102.25-46,204.51-46,102.26,46,204.51,46,102.26-46,204.51-46"/><path class="cls-2" d="M2.16,192.4c102.25,0,102.25,46,204.51,46s102.25-46,204.51-46,102.26,46,204.51,46,102.26-46,204.51-46"/><path class="cls-2" d="M2.16,242.8c102.25,0,102.25,46,204.51,46s102.25-46,204.51-46,102.26,46,204.51,46,102.26-46,204.51-46"/></g><g><path class="cls-2" d="M2.07,141.91c102.25,0,102.25,46,204.51,46s102.25-46,204.51-46,102.26,46,204.51,46,102.26-46,204.51-46"/><path class="cls-2" d="M2.07,192.3c102.25,0,102.25,46,204.51,46s102.25-46,204.51-46,102.26,46,204.51,46,102.26-46,204.51-46"/><path class="cls-2" d="M2.07,242.7c102.25,0,102.25,46,204.51,46s102.25-46,204.51-46,102.26,46,204.51,46,102.26-46,204.51-46"/></g><g><path class="cls-2" d="M1.98,141.81c102.25,0,102.25,46,204.51,46s102.25-46,204.51-46,102.26,46,204.51,46,102.26-46,204.51-46"/><path class="cls-2" d="M1.98,192.2c102.25,0,102.25,46,204.51,46s102.25-46,204.51-46,102.26,46,204.51,46,102.26-46,204.51-46"/><path class="cls-2" d="M1.98,242.6c102.25,0,102.25,46,204.51,46s102.25-46,204.51-46,102.26,46,204.51,46,102.26-46,204.51-46"/></g><g><path class="cls-2" d="M1.89,141.71c102.25,0,102.25,46,204.51,46s102.25-46,204.51-46,102.26,46,204.51,46,102.26-46,204.51-46"/><path class="cls-2" d="M1.89,192.1c102.25,0,102.25,46,204.51,46s102.25-46,204.51-46,102.26,46,204.51,46,102.26-46,204.51-46"/><path class="cls-2" d="M1.89,242.5c102.25,0,102.25,46,204.51,46s102.25-46,204.51-46,102.26,46,204.51,46,102.26-46,204.51-46"/></g><g><path class="cls-2" d="M1.8,141.61c102.25,0,102.25,46,204.51,46s102.25-46,204.51-46,102.26,46,204.51,46,102.26-46,204.51-46"/><path class="cls-2" d="M1.8,192.01c102.25,0,102.25,46,204.51,46s102.25-46,204.51-46,102.26,46,204.51,46,102.26-46,204.51-46"/><path class="cls-2" d="M1.8,242.4c102.25,0,102.25,46,204.51,46s102.25-46,204.51-46,102.26,46,204.51,46,102.26-46,204.51-46"/></g><g><path class="cls-2" d="M1.71,141.51c102.25,0,102.25,46,204.51,46s102.25-46,204.51-46,102.26,46,204.51,46,102.26-46,204.51-46"/><path class="cls-2" d="M1.71,191.91c102.25,0,102.25,46,204.51,46s102.25-46,204.51-46,102.26,46,204.51,46,102.26-46,204.51-46"/><path class="cls-2" d="M1.71,242.3c102.25,0,102.25,46,204.51,46s102.25-46,204.51-46,102.26,46,204.51,46,102.26-46,204.51-46"/></g><g><path class="cls-2" d="M1.62,141.41c102.25,0,102.25,46,204.51,46s102.25-46,204.51-46,102.26,46,204.51,46,102.26-46,204.51-46"/><path class="cls-2" d="M1.62,191.81c102.25,0,102.25,46,204.51,46s102.25-46,204.51-46,102.26,46,204.51,46,102.26-46,204.51-46"/><path class="cls-2" d="M1.62,242.2c102.25,0,102.25,46,204.51,46s102.25-46,204.51-46,102.26,46,204.51,46,102.26-46,204.51-46"/></g><g><path class="cls-2" d="M1.53,141.31c102.25,0,102.25,46,204.51,46s102.25-46,204.51-46,102.26,46,204.51,46,102.26-46,204.51-46"/><path class="cls-2" d="M1.53,191.71c102.25,0,102.25,46,204.51,46s102.25-46,204.51-46,102.26,46,204.51,46,102.26-46,204.51-46"/><path class="cls-2" d="M1.53,242.11c102.25,0,102.25,46,204.51,46s102.25-46,204.51-46,102.26,46,204.51,46,102.26-46,204.51-46"/></g><g><path class="cls-2" d="M1.45,141.21c102.25,0,102.25,46,204.51,46s102.25-46,204.51-46,102.26,46,204.51,46,102.26-46,204.51-46"/><path class="cls-2" d="M1.45,191.61c102.25,0,102.25,46,204.51,46s102.25-46,204.51-46,102.26,46,204.51,46,102.26-46,204.51-46"/><path class="cls-2" d="M1.45,242.01c102.25,0,102.25,46,204.51,46s102.25-46,204.51-46,102.26,46,204.51,46,102.26-46,204.51-46"/></g><g><path class="cls-2" d="M1.36,141.11c102.25,0,102.25,46,204.51,46s102.25-46,204.51-46,102.26,46,204.51,46,102.26-46,204.51-46"/><path class="cls-2" d="M1.36,191.51c102.25,0,102.25,46,204.51,46s102.25-46,204.51-46,102.26,46,204.51,46,102.26-46,204.51-46"/><path class="cls-2" d="M1.36,241.91c102.25,0,102.25,46,204.51,46s102.25-46,204.51-46,102.26,46,204.51,46,102.26-46,204.51-46"/></g><g><path class="cls-2" d="M1.27,141.01c102.25,0,102.25,46,204.51,46s102.25-46,204.51-46,102.26,46,204.51,46,102.26-46,204.51-46"/><path class="cls-2" d="M1.27,191.41c102.25,0,102.25,46,204.51,46s102.25-46,204.51-46,102.26,46,204.51,46,102.26-46,204.51-46"/><path class="cls-2" d="M1.27,241.81c102.25,0,102.25,46,204.51,46s102.25-46,204.51-46,102.26,46,204.51,46,102.26-46,204.51-46"/></g><g><path class="cls-2" d="M1.18,140.92c102.25,0,102.25,46,204.51,46s102.25-46,204.51-46,102.26,46,204.51,46,102.26-46,204.51-46"/><path class="cls-2" d="M1.18,191.31c102.25,0,102.25,46,204.51,46s102.25-46,204.51-46,102.26,46,204.51,46,102.26-46,204.51-46"/><path class="cls-2" d="M1.18,241.71c102.25,0,102.25,46,204.51,46s102.25-46,204.51-46,102.26,46,204.51,46,102.26-46,204.51-46"/></g><g><path class="cls-2" d="M1.09,140.82c102.25,0,102.25,46,204.51,46s102.25-46,204.51-46,102.26,46,204.51,46,102.26-46,204.51-46"/><path class="cls-2" d="M1.09,191.21c102.25,0,102.25,46,204.51,46s102.25-46,204.51-46,102.26,46,204.51,46,102.26-46,204.51-46"/><path class="cls-2" d="M1.09,241.61c102.25,0,102.25,46,204.51,46s102.25-46,204.51-46,102.26,46,204.51,46,102.26-46,204.51-46"/></g><g><path class="cls-2" d="M1,140.72c102.25,0,102.25,46,204.51,46s102.25-46,204.51-46,102.26,46,204.51,46,102.26-46,204.51-46"/><path class="cls-2" d="M1,191.11c102.25,0,102.25,46,204.51,46s102.25-46,204.51-46,102.26,46,204.51,46,102.26-46,204.51-46"/><path class="cls-2" d="M1,241.51c102.25,0,102.25,46,204.51,46s102.25-46,204.51-46,102.26,46,204.51,46,102.26-46,204.51-46"/></g></g><g><path class="cls-4" d="M0,140.72c102.25,0,102.25,46,204.51,46s102.25-46,204.51-46,102.26,46,204.51,46,102.26-46,204.51-46"/><path class="cls-4" d="M0,191.11c102.25,0,102.25,46,204.51,46s102.25-46,204.51-46,102.26,46,204.51,46,102.26-46,204.51-46"/><path class="cls-4" d="M0,241.51c102.25,0,102.25,46,204.51,46s102.25-46,204.51-46,102.26,46,204.51,46,102.26-46,204.51-46"/></g><g><rect class="cls-3" x="16.5" y="235.15" width="76.83" height="52.96"/><polygon class="cls-3" points="16.5 287.83 54.92 252.95 93.34 287.83 93.34 287.83 16.5 287.83 16.5 287.83"/><path class="cls-3" d="M93.34,236.62c0,2.27-.97,4.37-2.55,5.5l-32.29,23.23c-2.15,1.85-5,1.85-7.16,0l-32.29-23.23c-1.58-1.13-2.55-3.23-2.55-5.5v-1.25H93.34v1.25Z"/></g><g><rect class="cls-3" x="350.73" y="154.55" width="116.58" height="80.36"/><polygon class="cls-3" points="350.73 234.48 409.02 181.55 467.31 234.48 467.31 234.48 350.73 234.48 350.73 234.48"/><path class="cls-3" d="M467.31,156.77c0,3.45-1.47,6.63-3.87,8.35l-48.99,35.24c-3.27,2.81-7.59,2.81-10.86,0l-48.99-35.24c-2.39-1.72-3.87-4.91-3.87-8.35v-1.89h116.58v1.89Z"/></g><g><rect class="cls-3" x="725.63" y="43.27" width="175.05" height="120.66"/><polygon class="cls-3" points="725.63 163.29 813.15 83.82 900.68 163.29 900.68 163.29 725.63 163.29 725.63 163.29"/><path class="cls-3" d="M900.68,46.61c0,5.18-2.21,9.96-5.81,12.54l-73.56,52.91c-4.91,4.22-11.4,4.22-16.31,0l-73.56-52.91c-3.59-2.58-5.81-7.37-5.81-12.54v-2.84h175.05v2.84Z"/></g><g><path class="cls-5" d="M942.19,43.77c-24.14,9.59-31.92,17.37-41.51,41.51-9.59-24.14-17.37-31.92-41.51-41.51,24.14-9.59,31.92-17.37,41.51-41.51,9.59,24.14,17.37,31.92,41.51,41.51Z"/><path class="cls-1" d="M942.19,43.77c-24.14,9.59-31.92,17.37-41.51,41.51-9.59-24.14-17.37-31.92-41.51-41.51,24.14-9.59,31.92-17.37,41.51-41.51,9.59,24.14,17.37,31.92,41.51,41.51Z"/></g><g><path class="cls-5" d="M496.66,156.17c-17.07,6.78-22.57,12.28-29.35,29.35-6.78-17.07-12.28-22.57-29.35-29.35,17.07-6.78,22.57-12.28,29.35-29.35,6.78,17.07,12.28,22.57,29.35,29.35Z"/><path class="cls-1" d="M496.66,156.17c-17.07,6.78-22.57,12.28-29.35,29.35-6.78-17.07-12.28-22.57-29.35-29.35,17.07-6.78,22.57-12.28,29.35-29.35,6.78,17.07,12.28,22.57,29.35,29.35Z"/></g><g><path class="cls-5" d="M114.09,234.91c-12.07,4.8-15.96,8.69-20.76,20.76-4.8-12.07-8.69-15.96-20.76-20.76,12.07-4.8,15.96-8.69,20.76-20.76,4.8,12.07,8.69,15.96,20.76,20.76Z"/><path class="cls-1" d="M114.09,234.91c-12.07,4.8-15.96,8.69-20.76,20.76-4.8-12.07-8.69-15.96-20.76-20.76,12.07-4.8,15.96-8.69,20.76-20.76,4.8,12.07,8.69,15.96,20.76,20.76Z"/></g></svg>