<?xml version="1.0" encoding="UTF-8"?><svg id="Layer_1" xmlns="http://www.w3.org/2000/svg" viewBox="0 0 337.04 378.77"><defs><style>.cls-1{stroke-width:3.09px;}.cls-1,.cls-2,.cls-3,.cls-4,.cls-5,.cls-6,.cls-7{stroke:#2a0c4e;stroke-linecap:round;stroke-linejoin:round;}.cls-1,.cls-2,.cls-4,.cls-5{fill:none;}.cls-2{stroke-width:5px;}.cls-3{stroke-width:3.8px;}.cls-3,.cls-6,.cls-8,.cls-7{fill:#fff8f0;}.cls-9{fill:#2a0c4e;}.cls-4{stroke-width:6.18px;}.cls-5{stroke-width:4px;}.cls-6{stroke-width:3px;}.cls-7{stroke-width:3.08px;}</style></defs><g><rect class="cls-8" x="79.6" y="41.83" width="220.98" height="272.61" rx="4.13" ry="4.13"/><rect class="cls-5" x="79.6" y="41.83" width="220.98" height="272.61" rx="4.13" ry="4.13"/></g><g><path class="cls-4" d="M259.69,118.04c-4.15-6.92-6.26-5.66-10.41-12.58-4.16-6.93-2.52-7.91-6.68-14.83-4.16-6.93-1.12-11.65-9.02-13.35-6.36-1.37-4.89,4.35-8.81,9.55s-2.89,5.96-6.8,11.16c-3.92,5.2-5.01,4.37-8.93,9.57-3.92,5.2-.77,7.91-7.16,9.13-8.79,1.67-7.57-4.07-16.49-4.77-7.94-.63-7.96,6.44-15.23,3.19-5.95-2.66-4.56-4.33-6.88-10.41s.16-7.03-2.16-13.11c-2.32-6.09-3.13-5.78-5.45-11.87s2.01-11.36-4.48-10.89c-7.24,.52-3.07,5.33-6.34,11.81-3.27,6.48-2.47,6.89-5.74,13.37-3.27,6.49-5.53,5.35-8.8,11.83-3.27,6.49-4.54,6.31-6.06,13.41-1.84,8.59,.26,8.94,.26,17.73,0,8.79,2.44,9.02,.6,17.62-1.44,6.71-3.51,5.77-5.06,12.46-1.74,7.47,1.39,7.59,.58,15.21-.69,6.43-2.49,6.32-3.98,12.61-1.49,6.29-4.06,5.68-5.55,11.97-1.49,6.29-1.51,6.37-.39,12.74,1.21,6.89,2.13,6.41,5.77,12.37,3.64,5.97,3,6.36,6.65,12.33,3.64,5.97,4.63,5.36,8.27,11.33,3.65,5.97,3.28,6.19,6.93,12.17s4.24,5.61,7.89,11.58"/><path class="cls-4" d="M210.46,289.26c5.19-5.57,4.63-6.1,9.82-11.67,5.19-5.57,5.23-5.53,10.42-11.1,5.2-5.57,4.67-6.06,9.86-11.63,5.2-5.57,4.39-6.7,10.64-11.06,4.86-3.4,5.83-1.73,11.42-3.7,5.59-1.97,8.88,1.76,11.94-3.33,3.78-6.3,.45-7.76,.45-15.11s-.35-7.39-1.41-14.66c-1.2-8.18-2.06-7.97-4.3-15.93-2.25-7.96-2.54-7.87-4.79-15.83"/><path class="cls-1" d="M169.2,225.3c-5.11-4.16-4.19-5.88-10.38-8.12-6.01-2.17-6.72-2-12.73,.17-6.2,2.24-6.31,2.89-10.06,8.3-1.84,2.66-1,3.16-.09,6.26,1.45,4.93,2.29,4.57,4.6,9.16"/><path class="cls-1" d="M141.72,253.46c5.43-1.92,4.94-4.76,10.65-3.96,9.07,1.26,7.78,5.15,16.68,7.29,7.46,1.79,7.9,1.95,15.23-.31,5.87-1.81,4.91-3.48,9.71-7.32"/><path class="cls-9" d="M147.2,231.96c0-1.88-1.49-3.38-3.38-3.38s-3.45,1.5-3.45,3.38,1.56,3.38,3.45,3.38,3.38-1.5,3.38-3.38Z"/><path class="cls-9" d="M149.14,180.09c0-2.74-2.14-4.99-4.88-4.99s-4.9,2.26-4.9,4.99,2.16,4.95,4.9,4.95,4.88-2.21,4.88-4.95Z"/><path class="cls-9" d="M201.7,182.99c0-3.14-2.54-5.71-5.67-5.71s-5.74,2.57-5.74,5.71,2.6,5.6,5.74,5.6,5.67-2.46,5.67-5.6Z"/><path class="cls-9" d="M161.57,231.96c0-1.88-1.51-3.46-3.39-3.46s-3.35,1.58-3.35,3.46,1.46,3.35,3.35,3.35,3.39-1.47,3.39-3.35Z"/><path class="cls-1" d="M169.14,165.1c-1.01,5.9-1.47,5.82-2.48,11.72-1.01,5.9,.32,6.21-1.86,11.78-4.01,10.26-5.09,9.74-10.2,19.5"/><path class="cls-1" d="M132.26,172.26c0-3.7-1.53-3.96,.06-7.3,2.22-4.7,2.5-4.92,6.91-7.68,2.15-1.34,3.54,2.01,5.09,0,3.58-4.63-1.29-7.83,3.58-11.08,5.48-3.66,8.41-4.72,13.14-.12,6.4,6.21,2.16,8.67,4.44,17.29"/><path class="cls-1" d="M174.22,162.84c2.79-4.06,2.64-4.13,5.95-7.77,4.35-4.78,2.78-9.1,9.24-9.16,9.13-.09,8.88,3.08,15.7,9.15,8.27,7.36,8.49,7.43,14.03,17.02,2.21,3.82-2.67,7.98,1.48,9.5,9.97,3.67,11.47-4.16,21.51-.68,5.63,1.95,3.92,4.48,7.35,9.36s5.19,4.24,6.02,10.14c.98,6.96-1.6,6.7-3.38,13.5s-1.52,6.86-3.29,13.66"/><path class="cls-1" d="M147.24,241.18c3.87,0,3.87-.11,7.74-.11"/><path class="cls-1" d="M145.33,251.63c3.58,6.32,.56,9.47,6.96,12.9,7.24,3.88,8.34,.35,16.55,.35s8.22,.06,16.43,.06,8.47,1.48,16.27-1.12c8.03-2.68,7.06-4.43,13.88-9.45,6.82-5.02,6.93-4.88,13.75-9.9"/><path class="cls-1" d="M169.05,231.97q-2.7,3.43-5.38,6.87"/></g><path class="cls-2" d="M332.1,351.68c-6.21,7.66-13.75-8.15-23.62-8.15-9.86,0-9.86,10-19.73,10-9.86,0-9.86-10-19.73-10-9.86,0-9.86,10-19.73,10-9.87,0-9.87-10-19.73-10-9.86,0-9.86,10-19.73,10-9.87,0-9.87-10-19.73-10-9.87,0-9.87,10-19.73,10-9.87,0-9.87-10-19.73-10-9.87,0-9.87,10-19.73,10-9.87,0-9.87-10-19.73-10-9.87,0-9.87,10-19.73,10-9.87,0-9.87-10-19.74-10s-17.41,15.81-23.62,8.15c-7.67-9.45,8.88-15.32,8.88-27.49,0-12.17-10-12.17-10-24.34,0-12.17,10-12.17,10-24.34,0-12.17-10-12.17-10-24.34,0-12.17,10-12.17,10-24.34,0-12.17-10-12.17-10-24.34,0-12.17,10-12.17,10-24.34,0-12.17-10-12.17-10-24.34,0-12.17,10-12.17,10-24.34,0-12.17-10-12.17-10-24.34s10-12.17,10-24.34-10-12.17-10-24.34c0-12.17,10-12.17,10-24.35,0-12.17-16.55-18.04-8.88-27.5,6.21-7.66,13.75,8.15,23.62,8.15s9.86-10,19.73-10,9.86,10,19.73,10,9.86-10,19.73-10,9.87,10,19.73,10,9.86-10,19.73-10,9.87,10,19.73,10,9.87-10,19.73-10,9.87,10,19.73,10,9.87-10,19.73-10,9.87,10,19.73,10,9.87-10,19.73-10,9.87,10,19.74,10,17.41-15.81,23.62-8.15c7.67,9.45-8.88,15.32-8.88,27.49,0,12.17,10,12.17,10,24.34,0,12.17-10,12.17-10,24.34,0,12.17,10,12.17,10,24.34,0,12.17-10,12.17-10,24.34,0,12.17,10,12.17,10,24.34,0,12.17-10,12.17-10,24.34s10,12.17,10,24.34c0,12.17-10,12.17-10,24.34,0,12.17,10,12.17,10,24.34s-10,12.17-10,24.34,10,12.17,10,24.34c0,12.17-13.02,13.92-9.82,25.66,3.86,14.17,16.37,16.72,8.71,26.18Z"/><g><rect class="cls-3" x="1.9" y="296.52" width="116.58" height="80.36"/><polygon class="cls-7" points="1.9 376.45 60.19 323.52 118.48 376.45 118.48 376.45 1.9 376.45 1.9 376.45"/><path class="cls-6" d="M118.48,298.74c0,3.45-1.47,6.63-3.87,8.35l-48.99,35.24c-3.27,2.81-7.59,2.81-10.86,0L5.77,307.09c-2.39-1.72-3.87-4.91-3.87-8.35v-1.89H118.48v1.89Z"/></g></svg>