<?xml version="1.0" encoding="UTF-8"?><svg id="Layer_1" xmlns="http://www.w3.org/2000/svg" viewBox="0 0 903.53 264.1"><defs><style>.cls-1{stroke:#2a0c4e;}.cls-1,.cls-2{fill:none;stroke-miterlimit:10;stroke-width:14px;}.cls-2{stroke:#ff7e6b;}</style></defs><g><g><path class="cls-1" d="M10,110.3c102.25,0,102.25,46,204.51,46s102.25-46,204.51-46,102.26,46,204.51,46,102.26-46,204.51-46"/><path class="cls-1" d="M10,160.7c102.25,0,102.25,46,204.51,46s102.25-46,204.51-46,102.26,46,204.51,46,102.26-46,204.51-46"/><path class="cls-1" d="M10,211.1c102.25,0,102.25,46,204.51,46s102.25-46,204.51-46,102.26,46,204.51,46,102.26-46,204.51-46"/></g><g><path class="cls-1" d="M9.91,110.2c102.25,0,102.25,46,204.51,46s102.25-46,204.51-46,102.26,46,204.51,46,102.26-46,204.51-46"/><path class="cls-1" d="M9.91,160.6c102.25,0,102.25,46,204.51,46s102.25-46,204.51-46,102.26,46,204.51,46,102.26-46,204.51-46"/><path class="cls-1" d="M9.91,211c102.25,0,102.25,46,204.51,46s102.25-46,204.51-46,102.26,46,204.51,46,102.26-46,204.51-46"/></g><g><path class="cls-1" d="M9.82,110.1c102.25,0,102.25,46,204.51,46s102.25-46,204.51-46,102.26,46,204.51,46,102.26-46,204.51-46"/><path class="cls-1" d="M9.82,160.5c102.25,0,102.25,46,204.51,46s102.25-46,204.51-46,102.26,46,204.51,46,102.26-46,204.51-46"/><path class="cls-1" d="M9.82,210.9c102.25,0,102.25,46,204.51,46s102.25-46,204.51-46,102.26,46,204.51,46,102.26-46,204.51-46"/></g><g><path class="cls-1" d="M9.73,110.01c102.25,0,102.25,46,204.51,46s102.25-46,204.51-46,102.26,46,204.51,46,102.26-46,204.51-46"/><path class="cls-1" d="M9.73,160.4c102.25,0,102.25,46,204.51,46s102.25-46,204.51-46,102.26,46,204.51,46,102.26-46,204.51-46"/><path class="cls-1" d="M9.73,210.8c102.25,0,102.25,46,204.51,46s102.25-46,204.51-46,102.26,46,204.51,46,102.26-46,204.51-46"/></g><g><path class="cls-1" d="M9.64,109.91c102.25,0,102.25,46,204.51,46s102.25-46,204.51-46,102.26,46,204.51,46,102.26-46,204.51-46"/><path class="cls-1" d="M9.64,160.3c102.25,0,102.25,46,204.51,46s102.25-46,204.51-46,102.26,46,204.51,46,102.26-46,204.51-46"/><path class="cls-1" d="M9.64,210.7c102.25,0,102.25,46,204.51,46s102.25-46,204.51-46,102.26,46,204.51,46,102.26-46,204.51-46"/></g><g><path class="cls-1" d="M9.55,109.81c102.25,0,102.25,46,204.51,46s102.25-46,204.51-46,102.26,46,204.51,46,102.26-46,204.51-46"/><path class="cls-1" d="M9.55,160.2c102.25,0,102.25,46,204.51,46s102.25-46,204.51-46,102.26,46,204.51,46,102.26-46,204.51-46"/><path class="cls-1" d="M9.55,210.6c102.25,0,102.25,46,204.51,46s102.25-46,204.51-46,102.26,46,204.51,46,102.26-46,204.51-46"/></g><g><path class="cls-1" d="M9.47,109.71c102.25,0,102.25,46,204.51,46s102.25-46,204.51-46,102.26,46,204.51,46,102.26-46,204.51-46"/><path class="cls-1" d="M9.47,160.11c102.25,0,102.25,46,204.51,46s102.25-46,204.51-46,102.26,46,204.51,46,102.26-46,204.51-46"/><path class="cls-1" d="M9.47,210.5c102.25,0,102.25,46,204.51,46s102.25-46,204.51-46,102.26,46,204.51,46,102.26-46,204.51-46"/></g><g><path class="cls-1" d="M9.38,109.61c102.25,0,102.25,46,204.51,46s102.25-46,204.51-46,102.26,46,204.51,46,102.26-46,204.51-46"/><path class="cls-1" d="M9.38,160.01c102.25,0,102.25,46,204.51,46s102.25-46,204.51-46,102.26,46,204.51,46,102.26-46,204.51-46"/><path class="cls-1" d="M9.38,210.4c102.25,0,102.25,46,204.51,46s102.25-46,204.51-46,102.26,46,204.51,46,102.26-46,204.51-46"/></g><g><path class="cls-1" d="M9.29,109.51c102.25,0,102.25,46,204.51,46s102.25-46,204.51-46,102.26,46,204.51,46,102.26-46,204.51-46"/><path class="cls-1" d="M9.29,159.91c102.25,0,102.25,46,204.51,46s102.25-46,204.51-46,102.26,46,204.51,46,102.26-46,204.51-46"/><path class="cls-1" d="M9.29,210.3c102.25,0,102.25,46,204.51,46s102.25-46,204.51-46,102.26,46,204.51,46,102.26-46,204.51-46"/></g><g><path class="cls-1" d="M9.2,109.41c102.25,0,102.25,46,204.51,46s102.25-46,204.51-46,102.26,46,204.51,46,102.26-46,204.51-46"/><path class="cls-1" d="M9.2,159.81c102.25,0,102.25,46,204.51,46s102.25-46,204.51-46,102.26,46,204.51,46,102.26-46,204.51-46"/><path class="cls-1" d="M9.2,210.21c102.25,0,102.25,46,204.51,46s102.25-46,204.51-46,102.26,46,204.51,46,102.26-46,204.51-46"/></g><g><path class="cls-1" d="M9.11,109.31c102.25,0,102.25,46,204.51,46s102.25-46,204.51-46,102.26,46,204.51,46,102.26-46,204.51-46"/><path class="cls-1" d="M9.11,159.71c102.25,0,102.25,46,204.51,46s102.25-46,204.51-46,102.26,46,204.51,46,102.26-46,204.51-46"/><path class="cls-1" d="M9.11,210.11c102.25,0,102.25,46,204.51,46s102.25-46,204.51-46,102.26,46,204.51,46,102.26-46,204.51-46"/></g><g><path class="cls-1" d="M9.02,109.21c102.25,0,102.25,46,204.51,46s102.25-46,204.51-46,102.26,46,204.51,46,102.26-46,204.51-46"/><path class="cls-1" d="M9.02,159.61c102.25,0,102.25,46,204.51,46s102.25-46,204.51-46,102.26,46,204.51,46,102.26-46,204.51-46"/><path class="cls-1" d="M9.02,210.01c102.25,0,102.25,46,204.51,46s102.25-46,204.51-46,102.26,46,204.51,46,102.26-46,204.51-46"/></g><g><path class="cls-1" d="M8.93,109.11c102.25,0,102.25,46,204.51,46s102.25-46,204.51-46,102.26,46,204.51,46,102.26-46,204.51-46"/><path class="cls-1" d="M8.93,159.51c102.25,0,102.25,46,204.51,46s102.25-46,204.51-46,102.26,46,204.51,46,102.26-46,204.51-46"/><path class="cls-1" d="M8.93,209.91c102.25,0,102.25,46,204.51,46s102.25-46,204.51-46,102.26,46,204.51,46,102.26-46,204.51-46"/></g><g><path class="cls-1" d="M8.84,109.02c102.25,0,102.25,46,204.51,46s102.25-46,204.51-46,102.26,46,204.51,46,102.26-46,204.51-46"/><path class="cls-1" d="M8.84,159.41c102.25,0,102.25,46,204.51,46s102.25-46,204.51-46,102.26,46,204.51,46,102.26-46,204.51-46"/><path class="cls-1" d="M8.84,209.81c102.25,0,102.25,46,204.51,46s102.25-46,204.51-46,102.26,46,204.51,46,102.26-46,204.51-46"/></g><g><path class="cls-1" d="M8.75,108.92c102.25,0,102.25,46,204.51,46s102.25-46,204.51-46,102.26,46,204.51,46,102.26-46,204.51-46"/><path class="cls-1" d="M8.75,159.31c102.25,0,102.25,46,204.51,46s102.25-46,204.51-46,102.26,46,204.51,46,102.26-46,204.51-46"/><path class="cls-1" d="M8.75,209.71c102.25,0,102.25,46,204.51,46s102.25-46,204.51-46,102.26,46,204.51,46,102.26-46,204.51-46"/></g><g><path class="cls-1" d="M8.66,108.82c102.25,0,102.25,46,204.51,46s102.25-46,204.51-46,102.26,46,204.51,46,102.26-46,204.51-46"/><path class="cls-1" d="M8.66,159.21c102.25,0,102.25,46,204.51,46s102.25-46,204.51-46,102.26,46,204.51,46,102.26-46,204.51-46"/><path class="cls-1" d="M8.66,209.61c102.25,0,102.25,46,204.51,46s102.25-46,204.51-46,102.26,46,204.51,46,102.26-46,204.51-46"/></g><g><path class="cls-1" d="M8.57,108.72c102.25,0,102.25,46,204.51,46s102.25-46,204.51-46,102.26,46,204.51,46,102.26-46,204.51-46"/><path class="cls-1" d="M8.57,159.12c102.25,0,102.25,46,204.51,46s102.25-46,204.51-46,102.26,46,204.51,46,102.26-46,204.51-46"/><path class="cls-1" d="M8.57,209.51c102.25,0,102.25,46,204.51,46s102.25-46,204.51-46,102.26,46,204.51,46,102.26-46,204.51-46"/></g><g><path class="cls-1" d="M8.49,108.62c102.25,0,102.25,46,204.51,46s102.25-46,204.51-46,102.26,46,204.51,46,102.26-46,204.51-46"/><path class="cls-1" d="M8.49,159.02c102.25,0,102.25,46,204.51,46s102.25-46,204.51-46,102.26,46,204.51,46,102.26-46,204.51-46"/><path class="cls-1" d="M8.49,209.41c102.25,0,102.25,46,204.51,46s102.25-46,204.51-46,102.26,46,204.51,46,102.26-46,204.51-46"/></g><g><path class="cls-1" d="M8.4,108.52c102.25,0,102.25,46,204.51,46s102.25-46,204.51-46,102.26,46,204.51,46,102.26-46,204.51-46"/><path class="cls-1" d="M8.4,158.92c102.25,0,102.25,46,204.51,46s102.25-46,204.51-46,102.26,46,204.51,46,102.26-46,204.51-46"/><path class="cls-1" d="M8.4,209.31c102.25,0,102.25,46,204.51,46s102.25-46,204.51-46,102.26,46,204.51,46,102.26-46,204.51-46"/></g><g><path class="cls-1" d="M8.31,108.42c102.25,0,102.25,46,204.51,46s102.25-46,204.51-46,102.26,46,204.51,46,102.26-46,204.51-46"/><path class="cls-1" d="M8.31,158.82c102.25,0,102.25,46,204.51,46s102.25-46,204.51-46,102.26,46,204.51,46,102.26-46,204.51-46"/><path class="cls-1" d="M8.31,209.22c102.25,0,102.25,46,204.51,46s102.25-46,204.51-46,102.26,46,204.51,46,102.26-46,204.51-46"/></g><g><path class="cls-1" d="M8.22,108.32c102.25,0,102.25,46,204.51,46s102.25-46,204.51-46,102.26,46,204.51,46,102.26-46,204.51-46"/><path class="cls-1" d="M8.22,158.72c102.25,0,102.25,46,204.51,46s102.25-46,204.51-46,102.26,46,204.51,46,102.26-46,204.51-46"/><path class="cls-1" d="M8.22,209.12c102.25,0,102.25,46,204.51,46s102.25-46,204.51-46,102.26,46,204.51,46,102.26-46,204.51-46"/></g><g><path class="cls-1" d="M8.13,108.22c102.25,0,102.25,46,204.51,46s102.25-46,204.51-46,102.26,46,204.51,46,102.26-46,204.51-46"/><path class="cls-1" d="M8.13,158.62c102.25,0,102.25,46,204.51,46s102.25-46,204.51-46,102.26,46,204.51,46,102.26-46,204.51-46"/><path class="cls-1" d="M8.13,209.02c102.25,0,102.25,46,204.51,46s102.25-46,204.51-46,102.26,46,204.51,46,102.26-46,204.51-46"/></g><g><path class="cls-1" d="M8.04,108.12c102.25,0,102.25,46,204.51,46s102.25-46,204.51-46,102.26,46,204.51,46,102.26-46,204.51-46"/><path class="cls-1" d="M8.04,158.52c102.25,0,102.25,46,204.51,46s102.25-46,204.51-46,102.26,46,204.51,46,102.26-46,204.51-46"/><path class="cls-1" d="M8.04,208.92c102.25,0,102.25,46,204.51,46s102.25-46,204.51-46,102.26,46,204.51,46,102.26-46,204.51-46"/></g><g><path class="cls-1" d="M7.95,108.03c102.25,0,102.25,46,204.51,46s102.25-46,204.51-46,102.26,46,204.51,46,102.26-46,204.51-46"/><path class="cls-1" d="M7.95,158.42c102.25,0,102.25,46,204.51,46s102.25-46,204.51-46,102.26,46,204.51,46,102.26-46,204.51-46"/><path class="cls-1" d="M7.95,208.82c102.25,0,102.25,46,204.51,46s102.25-46,204.51-46,102.26,46,204.51,46,102.26-46,204.51-46"/></g><g><path class="cls-1" d="M7.86,107.93c102.25,0,102.25,46,204.51,46s102.25-46,204.51-46,102.26,46,204.51,46,102.26-46,204.51-46"/><path class="cls-1" d="M7.86,158.32c102.25,0,102.25,46,204.51,46s102.25-46,204.51-46,102.26,46,204.51,46,102.26-46,204.51-46"/><path class="cls-1" d="M7.86,208.72c102.25,0,102.25,46,204.51,46s102.25-46,204.51-46,102.26,46,204.51,46,102.26-46,204.51-46"/></g><g><path class="cls-1" d="M7.77,107.83c102.25,0,102.25,46,204.51,46s102.25-46,204.51-46,102.26,46,204.51,46,102.26-46,204.51-46"/><path class="cls-1" d="M7.77,158.22c102.25,0,102.25,46,204.51,46s102.25-46,204.51-46,102.26,46,204.51,46,102.26-46,204.51-46"/><path class="cls-1" d="M7.77,208.62c102.25,0,102.25,46,204.51,46s102.25-46,204.51-46,102.26,46,204.51,46,102.26-46,204.51-46"/></g><g><path class="cls-1" d="M7.68,107.73c102.25,0,102.25,46,204.51,46s102.25-46,204.51-46,102.26,46,204.51,46,102.26-46,204.51-46"/><path class="cls-1" d="M7.68,158.13c102.25,0,102.25,46,204.51,46s102.25-46,204.51-46,102.26,46,204.51,46,102.26-46,204.51-46"/><path class="cls-1" d="M7.68,208.52c102.25,0,102.25,46,204.51,46s102.25-46,204.51-46,102.26,46,204.51,46,102.26-46,204.51-46"/></g><g><path class="cls-1" d="M7.59,107.63c102.25,0,102.25,46,204.51,46s102.25-46,204.51-46,102.26,46,204.51,46,102.26-46,204.51-46"/><path class="cls-1" d="M7.59,158.03c102.25,0,102.25,46,204.51,46s102.25-46,204.51-46,102.26,46,204.51,46,102.26-46,204.51-46"/><path class="cls-1" d="M7.59,208.42c102.25,0,102.25,46,204.51,46s102.25-46,204.51-46,102.26,46,204.51,46,102.26-46,204.51-46"/></g><g><path class="cls-1" d="M7.5,107.53c102.25,0,102.25,46,204.51,46s102.25-46,204.51-46,102.26,46,204.51,46,102.26-46,204.51-46"/><path class="cls-1" d="M7.5,157.93c102.25,0,102.25,46,204.51,46s102.25-46,204.51-46,102.26,46,204.51,46,102.26-46,204.51-46"/><path class="cls-1" d="M7.5,208.32c102.25,0,102.25,46,204.51,46s102.25-46,204.51-46,102.26,46,204.51,46,102.26-46,204.51-46"/></g><g><path class="cls-1" d="M7.42,107.43c102.25,0,102.25,46,204.51,46s102.25-46,204.51-46,102.26,46,204.51,46,102.26-46,204.51-46"/><path class="cls-1" d="M7.42,157.83c102.25,0,102.25,46,204.51,46s102.25-46,204.51-46,102.26,46,204.51,46,102.26-46,204.51-46"/><path class="cls-1" d="M7.42,208.22c102.25,0,102.25,46,204.51,46s102.25-46,204.51-46,102.26,46,204.51,46,102.26-46,204.51-46"/></g><g><path class="cls-1" d="M7.33,107.33c102.25,0,102.25,46,204.51,46s102.25-46,204.51-46,102.26,46,204.51,46,102.26-46,204.51-46"/><path class="cls-1" d="M7.33,157.73c102.25,0,102.25,46,204.51,46s102.25-46,204.51-46,102.26,46,204.51,46,102.26-46,204.51-46"/><path class="cls-1" d="M7.33,208.13c102.25,0,102.25,46,204.51,46s102.25-46,204.51-46,102.26,46,204.51,46,102.26-46,204.51-46"/></g><g><path class="cls-1" d="M7.24,107.23c102.25,0,102.25,46,204.51,46s102.25-46,204.51-46,102.26,46,204.51,46,102.26-46,204.51-46"/><path class="cls-1" d="M7.24,157.63c102.25,0,102.25,46,204.51,46s102.25-46,204.51-46,102.26,46,204.51,46,102.26-46,204.51-46"/><path class="cls-1" d="M7.24,208.03c102.25,0,102.25,46,204.51,46s102.25-46,204.51-46,102.26,46,204.51,46,102.26-46,204.51-46"/></g><g><path class="cls-1" d="M7.15,107.13c102.25,0,102.25,46,204.51,46s102.25-46,204.51-46,102.26,46,204.51,46,102.26-46,204.51-46"/><path class="cls-1" d="M7.15,157.53c102.25,0,102.25,46,204.51,46s102.25-46,204.51-46,102.26,46,204.51,46,102.26-46,204.51-46"/><path class="cls-1" d="M7.15,207.93c102.25,0,102.25,46,204.51,46s102.25-46,204.51-46,102.26,46,204.51,46,102.26-46,204.51-46"/></g><g><path class="cls-1" d="M7.06,107.04c102.25,0,102.25,46,204.51,46s102.25-46,204.51-46,102.26,46,204.51,46,102.26-46,204.51-46"/><path class="cls-1" d="M7.06,157.43c102.25,0,102.25,46,204.51,46s102.25-46,204.51-46,102.26,46,204.51,46,102.26-46,204.51-46"/><path class="cls-1" d="M7.06,207.83c102.25,0,102.25,46,204.51,46s102.25-46,204.51-46,102.26,46,204.51,46,102.26-46,204.51-46"/></g><g><path class="cls-1" d="M6.97,106.94c102.25,0,102.25,46,204.51,46s102.25-46,204.51-46,102.26,46,204.51,46,102.26-46,204.51-46"/><path class="cls-1" d="M6.97,157.33c102.25,0,102.25,46,204.51,46s102.25-46,204.51-46,102.26,46,204.51,46,102.26-46,204.51-46"/><path class="cls-1" d="M6.97,207.73c102.25,0,102.25,46,204.51,46s102.25-46,204.51-46,102.26,46,204.51,46,102.26-46,204.51-46"/></g><g><path class="cls-1" d="M6.88,106.84c102.25,0,102.25,46,204.51,46s102.25-46,204.51-46,102.26,46,204.51,46,102.26-46,204.51-46"/><path class="cls-1" d="M6.88,157.23c102.25,0,102.25,46,204.51,46s102.25-46,204.51-46,102.26,46,204.51,46,102.26-46,204.51-46"/><path class="cls-1" d="M6.88,207.63c102.25,0,102.25,46,204.51,46s102.25-46,204.51-46,102.26,46,204.51,46,102.26-46,204.51-46"/></g><g><path class="cls-1" d="M6.79,106.74c102.25,0,102.25,46,204.51,46s102.25-46,204.51-46,102.26,46,204.51,46,102.26-46,204.51-46"/><path class="cls-1" d="M6.79,157.14c102.25,0,102.25,46,204.51,46s102.25-46,204.51-46,102.26,46,204.51,46,102.26-46,204.51-46"/><path class="cls-1" d="M6.79,207.53c102.25,0,102.25,46,204.51,46s102.25-46,204.51-46,102.26,46,204.51,46,102.26-46,204.51-46"/></g><g><path class="cls-1" d="M6.7,106.64c102.25,0,102.25,46,204.51,46s102.25-46,204.51-46,102.26,46,204.51,46,102.26-46,204.51-46"/><path class="cls-1" d="M6.7,157.04c102.25,0,102.25,46,204.51,46s102.25-46,204.51-46,102.26,46,204.51,46,102.26-46,204.51-46"/><path class="cls-1" d="M6.7,207.43c102.25,0,102.25,46,204.51,46s102.25-46,204.51-46,102.26,46,204.51,46,102.26-46,204.51-46"/></g><g><path class="cls-1" d="M6.61,106.54c102.25,0,102.25,46,204.51,46s102.25-46,204.51-46,102.26,46,204.51,46,102.26-46,204.51-46"/><path class="cls-1" d="M6.61,156.94c102.25,0,102.25,46,204.51,46s102.25-46,204.51-46,102.26,46,204.51,46,102.26-46,204.51-46"/><path class="cls-1" d="M6.61,207.33c102.25,0,102.25,46,204.51,46s102.25-46,204.51-46,102.26,46,204.51,46,102.26-46,204.51-46"/></g><g><path class="cls-1" d="M6.52,106.44c102.25,0,102.25,46,204.51,46s102.25-46,204.51-46,102.26,46,204.51,46,102.26-46,204.51-46"/><path class="cls-1" d="M6.52,156.84c102.25,0,102.25,46,204.51,46s102.25-46,204.51-46,102.26,46,204.51,46,102.26-46,204.51-46"/><path class="cls-1" d="M6.52,207.23c102.25,0,102.25,46,204.51,46s102.25-46,204.51-46,102.26,46,204.51,46,102.26-46,204.51-46"/></g><g><path class="cls-1" d="M6.44,106.34c102.25,0,102.25,46,204.51,46s102.25-46,204.51-46,102.26,46,204.51,46,102.26-46,204.51-46"/><path class="cls-1" d="M6.44,156.74c102.25,0,102.25,46,204.51,46s102.25-46,204.51-46,102.26,46,204.51,46,102.26-46,204.51-46"/><path class="cls-1" d="M6.44,207.14c102.25,0,102.25,46,204.51,46s102.25-46,204.51-46,102.26,46,204.51,46,102.26-46,204.51-46"/></g><g><path class="cls-1" d="M6.35,106.24c102.25,0,102.25,46,204.51,46s102.25-46,204.51-46,102.26,46,204.51,46,102.26-46,204.51-46"/><path class="cls-1" d="M6.35,156.64c102.25,0,102.25,46,204.51,46s102.25-46,204.51-46,102.26,46,204.51,46,102.26-46,204.51-46"/><path class="cls-1" d="M6.35,207.04c102.25,0,102.25,46,204.51,46s102.25-46,204.51-46,102.26,46,204.51,46,102.26-46,204.51-46"/></g><g><path class="cls-1" d="M6.26,106.14c102.25,0,102.25,46,204.51,46s102.25-46,204.51-46,102.26,46,204.51,46,102.26-46,204.51-46"/><path class="cls-1" d="M6.26,156.54c102.25,0,102.25,46,204.51,46s102.25-46,204.51-46,102.26,46,204.51,46,102.26-46,204.51-46"/><path class="cls-1" d="M6.26,206.94c102.25,0,102.25,46,204.51,46s102.25-46,204.51-46,102.26,46,204.51,46,102.26-46,204.51-46"/></g><g><path class="cls-1" d="M6.17,106.05c102.25,0,102.25,46,204.51,46s102.25-46,204.51-46,102.26,46,204.51,46,102.26-46,204.51-46"/><path class="cls-1" d="M6.17,156.44c102.25,0,102.25,46,204.51,46s102.25-46,204.51-46,102.26,46,204.51,46,102.26-46,204.51-46"/><path class="cls-1" d="M6.17,206.84c102.25,0,102.25,46,204.51,46s102.25-46,204.51-46,102.26,46,204.51,46,102.26-46,204.51-46"/></g><g><path class="cls-1" d="M6.08,105.95c102.25,0,102.25,46,204.51,46s102.25-46,204.51-46,102.26,46,204.51,46,102.26-46,204.51-46"/><path class="cls-1" d="M6.08,156.34c102.25,0,102.25,46,204.51,46s102.25-46,204.51-46,102.26,46,204.51,46,102.26-46,204.51-46"/><path class="cls-1" d="M6.08,206.74c102.25,0,102.25,46,204.51,46s102.25-46,204.51-46,102.26,46,204.51,46,102.26-46,204.51-46"/></g><g><path class="cls-1" d="M5.99,105.85c102.25,0,102.25,46,204.51,46s102.25-46,204.51-46,102.26,46,204.51,46,102.26-46,204.51-46"/><path class="cls-1" d="M5.99,156.24c102.25,0,102.25,46,204.51,46s102.25-46,204.51-46,102.26,46,204.51,46,102.26-46,204.51-46"/><path class="cls-1" d="M5.99,206.64c102.25,0,102.25,46,204.51,46s102.25-46,204.51-46,102.26,46,204.51,46,102.26-46,204.51-46"/></g><g><path class="cls-1" d="M5.9,105.75c102.25,0,102.25,46,204.51,46s102.25-46,204.51-46,102.26,46,204.51,46,102.26-46,204.51-46"/><path class="cls-1" d="M5.9,156.14c102.25,0,102.25,46,204.51,46s102.25-46,204.51-46,102.26,46,204.51,46,102.26-46,204.51-46"/><path class="cls-1" d="M5.9,206.54c102.25,0,102.25,46,204.51,46s102.25-46,204.51-46,102.26,46,204.51,46,102.26-46,204.51-46"/></g><g><path class="cls-1" d="M5.81,105.65c102.25,0,102.25,46,204.51,46s102.25-46,204.51-46,102.26,46,204.51,46,102.26-46,204.51-46"/><path class="cls-1" d="M5.81,156.05c102.25,0,102.25,46,204.51,46s102.25-46,204.51-46,102.26,46,204.51,46,102.26-46,204.51-46"/><path class="cls-1" d="M5.81,206.44c102.25,0,102.25,46,204.51,46s102.25-46,204.51-46,102.26,46,204.51,46,102.26-46,204.51-46"/></g><g><path class="cls-1" d="M5.72,105.55c102.25,0,102.25,46,204.51,46s102.25-46,204.51-46,102.26,46,204.51,46,102.26-46,204.51-46"/><path class="cls-1" d="M5.72,155.95c102.25,0,102.25,46,204.51,46s102.25-46,204.51-46,102.26,46,204.51,46,102.26-46,204.51-46"/><path class="cls-1" d="M5.72,206.34c102.25,0,102.25,46,204.51,46s102.25-46,204.51-46,102.26,46,204.51,46,102.26-46,204.51-46"/></g><g><path class="cls-1" d="M5.63,105.45c102.25,0,102.25,46,204.51,46s102.25-46,204.51-46,102.26,46,204.51,46,102.26-46,204.51-46"/><path class="cls-1" d="M5.63,155.85c102.25,0,102.25,46,204.51,46s102.25-46,204.51-46,102.26,46,204.51,46,102.26-46,204.51-46"/><path class="cls-1" d="M5.63,206.24c102.25,0,102.25,46,204.51,46s102.25-46,204.51-46,102.26,46,204.51,46,102.26-46,204.51-46"/></g><g><path class="cls-1" d="M5.54,105.35c102.25,0,102.25,46,204.51,46s102.25-46,204.51-46,102.26,46,204.51,46,102.26-46,204.51-46"/><path class="cls-1" d="M5.54,155.75c102.25,0,102.25,46,204.51,46s102.25-46,204.51-46,102.26,46,204.51,46,102.26-46,204.51-46"/><path class="cls-1" d="M5.54,206.15c102.25,0,102.25,46,204.51,46s102.25-46,204.51-46,102.26,46,204.51,46,102.26-46,204.51-46"/></g><g><path class="cls-1" d="M5.46,105.25c102.25,0,102.25,46,204.51,46s102.25-46,204.51-46,102.26,46,204.51,46,102.26-46,204.51-46"/><path class="cls-1" d="M5.46,155.65c102.25,0,102.25,46,204.51,46s102.25-46,204.51-46,102.26,46,204.51,46,102.26-46,204.51-46"/><path class="cls-1" d="M5.46,206.05c102.25,0,102.25,46,204.51,46s102.25-46,204.51-46,102.26,46,204.51,46,102.26-46,204.51-46"/></g><g><path class="cls-1" d="M5.37,105.15c102.25,0,102.25,46,204.51,46s102.25-46,204.51-46,102.26,46,204.51,46,102.26-46,204.51-46"/><path class="cls-1" d="M5.37,155.55c102.25,0,102.25,46,204.51,46s102.25-46,204.51-46,102.26,46,204.51,46,102.26-46,204.51-46"/><path class="cls-1" d="M5.37,205.95c102.25,0,102.25,46,204.51,46s102.25-46,204.51-46,102.26,46,204.51,46,102.26-46,204.51-46"/></g><g><path class="cls-1" d="M5.28,105.06c102.25,0,102.25,46,204.51,46s102.25-46,204.51-46,102.26,46,204.51,46,102.26-46,204.51-46"/><path class="cls-1" d="M5.28,155.45c102.25,0,102.25,46,204.51,46s102.25-46,204.51-46,102.26,46,204.51,46,102.26-46,204.51-46"/><path class="cls-1" d="M5.28,205.85c102.25,0,102.25,46,204.51,46s102.25-46,204.51-46,102.26,46,204.51,46,102.26-46,204.51-46"/></g><g><path class="cls-1" d="M5.19,104.96c102.25,0,102.25,46,204.51,46s102.25-46,204.51-46,102.26,46,204.51,46,102.26-46,204.51-46"/><path class="cls-1" d="M5.19,155.35c102.25,0,102.25,46,204.51,46s102.25-46,204.51-46,102.26,46,204.51,46,102.26-46,204.51-46"/><path class="cls-1" d="M5.19,205.75c102.25,0,102.25,46,204.51,46s102.25-46,204.51-46,102.26,46,204.51,46,102.26-46,204.51-46"/></g><g><path class="cls-1" d="M5.1,104.86c102.25,0,102.25,46,204.51,46s102.25-46,204.51-46,102.26,46,204.51,46,102.26-46,204.51-46"/><path class="cls-1" d="M5.1,155.25c102.25,0,102.25,46,204.51,46s102.25-46,204.51-46,102.26,46,204.51,46,102.26-46,204.51-46"/><path class="cls-1" d="M5.1,205.65c102.25,0,102.25,46,204.51,46s102.25-46,204.51-46,102.26,46,204.51,46,102.26-46,204.51-46"/></g><g><path class="cls-1" d="M5.01,104.76c102.25,0,102.25,46,204.51,46s102.25-46,204.51-46,102.26,46,204.51,46,102.26-46,204.51-46"/><path class="cls-1" d="M5.01,155.15c102.25,0,102.25,46,204.51,46s102.25-46,204.51-46,102.26,46,204.51,46,102.26-46,204.51-46"/><path class="cls-1" d="M5.01,205.55c102.25,0,102.25,46,204.51,46s102.25-46,204.51-46,102.26,46,204.51,46,102.26-46,204.51-46"/></g><g><path class="cls-1" d="M4.92,104.66c102.25,0,102.25,46,204.51,46s102.25-46,204.51-46,102.26,46,204.51,46,102.26-46,204.51-46"/><path class="cls-1" d="M4.92,155.06c102.25,0,102.25,46,204.51,46s102.25-46,204.51-46,102.26,46,204.51,46,102.26-46,204.51-46"/><path class="cls-1" d="M4.92,205.45c102.25,0,102.25,46,204.51,46s102.25-46,204.51-46,102.26,46,204.51,46,102.26-46,204.51-46"/></g><g><path class="cls-1" d="M4.83,104.56c102.25,0,102.25,46,204.51,46s102.25-46,204.51-46,102.26,46,204.51,46,102.26-46,204.51-46"/><path class="cls-1" d="M4.83,154.96c102.25,0,102.25,46,204.51,46s102.25-46,204.51-46,102.26,46,204.51,46,102.26-46,204.51-46"/><path class="cls-1" d="M4.83,205.35c102.25,0,102.25,46,204.51,46s102.25-46,204.51-46,102.26,46,204.51,46,102.26-46,204.51-46"/></g><g><path class="cls-1" d="M4.74,104.46c102.25,0,102.25,46,204.51,46s102.25-46,204.51-46,102.26,46,204.51,46,102.26-46,204.51-46"/><path class="cls-1" d="M4.74,154.86c102.25,0,102.25,46,204.51,46s102.25-46,204.51-46,102.26,46,204.51,46,102.26-46,204.51-46"/><path class="cls-1" d="M4.74,205.25c102.25,0,102.25,46,204.51,46s102.25-46,204.51-46,102.26,46,204.51,46,102.26-46,204.51-46"/></g><g><path class="cls-1" d="M4.65,104.36c102.25,0,102.25,46,204.51,46s102.25-46,204.51-46,102.26,46,204.51,46,102.26-46,204.51-46"/><path class="cls-1" d="M4.65,154.76c102.25,0,102.25,46,204.51,46s102.25-46,204.51-46,102.26,46,204.51,46,102.26-46,204.51-46"/><path class="cls-1" d="M4.65,205.16c102.25,0,102.25,46,204.51,46s102.25-46,204.51-46,102.26,46,204.51,46,102.26-46,204.51-46"/></g><g><path class="cls-1" d="M4.56,104.26c102.25,0,102.25,46,204.51,46s102.25-46,204.51-46,102.26,46,204.51,46,102.26-46,204.51-46"/><path class="cls-1" d="M4.56,154.66c102.25,0,102.25,46,204.51,46s102.25-46,204.51-46,102.26,46,204.51,46,102.26-46,204.51-46"/><path class="cls-1" d="M4.56,205.06c102.25,0,102.25,46,204.51,46s102.25-46,204.51-46,102.26,46,204.51,46,102.26-46,204.51-46"/></g><g><path class="cls-1" d="M4.48,104.16c102.25,0,102.25,46,204.51,46s102.25-46,204.51-46,102.26,46,204.51,46,102.26-46,204.51-46"/><path class="cls-1" d="M4.48,154.56c102.25,0,102.25,46,204.51,46s102.25-46,204.51-46,102.26,46,204.51,46,102.26-46,204.51-46"/><path class="cls-1" d="M4.48,204.96c102.25,0,102.25,46,204.51,46s102.25-46,204.51-46,102.26,46,204.51,46,102.26-46,204.51-46"/></g><g><path class="cls-1" d="M4.39,104.06c102.25,0,102.25,46,204.51,46s102.25-46,204.51-46,102.26,46,204.51,46,102.26-46,204.51-46"/><path class="cls-1" d="M4.39,154.46c102.25,0,102.25,46,204.51,46s102.25-46,204.51-46,102.26,46,204.51,46,102.26-46,204.51-46"/><path class="cls-1" d="M4.39,204.86c102.25,0,102.25,46,204.51,46s102.25-46,204.51-46,102.26,46,204.51,46,102.26-46,204.51-46"/></g><g><path class="cls-1" d="M4.3,103.97c102.25,0,102.25,46,204.51,46s102.25-46,204.51-46,102.26,46,204.51,46,102.26-46,204.51-46"/><path class="cls-1" d="M4.3,154.36c102.25,0,102.25,46,204.51,46s102.25-46,204.51-46,102.26,46,204.51,46,102.26-46,204.51-46"/><path class="cls-1" d="M4.3,204.76c102.25,0,102.25,46,204.51,46s102.25-46,204.51-46,102.26,46,204.51,46,102.26-46,204.51-46"/></g><g><path class="cls-1" d="M4.21,103.87c102.25,0,102.25,46,204.51,46s102.25-46,204.51-46,102.26,46,204.51,46,102.26-46,204.51-46"/><path class="cls-1" d="M4.21,154.26c102.25,0,102.25,46,204.51,46s102.25-46,204.51-46,102.26,46,204.51,46,102.26-46,204.51-46"/><path class="cls-1" d="M4.21,204.66c102.25,0,102.25,46,204.51,46s102.25-46,204.51-46,102.26,46,204.51,46,102.26-46,204.51-46"/></g><g><path class="cls-1" d="M4.12,103.77c102.25,0,102.25,46,204.51,46s102.25-46,204.51-46,102.26,46,204.51,46,102.26-46,204.51-46"/><path class="cls-1" d="M4.12,154.16c102.25,0,102.25,46,204.51,46s102.25-46,204.51-46,102.26,46,204.51,46,102.26-46,204.51-46"/><path class="cls-1" d="M4.12,204.56c102.25,0,102.25,46,204.51,46s102.25-46,204.51-46,102.26,46,204.51,46,102.26-46,204.51-46"/></g><g><path class="cls-1" d="M4.03,103.67c102.25,0,102.25,46,204.51,46s102.25-46,204.51-46,102.26,46,204.51,46,102.26-46,204.51-46"/><path class="cls-1" d="M4.03,154.07c102.25,0,102.25,46,204.51,46s102.25-46,204.51-46,102.26,46,204.51,46,102.26-46,204.51-46"/><path class="cls-1" d="M4.03,204.46c102.25,0,102.25,46,204.51,46s102.25-46,204.51-46,102.26,46,204.51,46,102.26-46,204.51-46"/></g><g><path class="cls-1" d="M3.94,103.57c102.25,0,102.25,46,204.51,46s102.25-46,204.51-46,102.26,46,204.51,46,102.26-46,204.51-46"/><path class="cls-1" d="M3.94,153.97c102.25,0,102.25,46,204.51,46s102.25-46,204.51-46,102.26,46,204.51,46,102.26-46,204.51-46"/><path class="cls-1" d="M3.94,204.36c102.25,0,102.25,46,204.51,46s102.25-46,204.51-46,102.26,46,204.51,46,102.26-46,204.51-46"/></g><g><path class="cls-1" d="M3.85,103.47c102.25,0,102.25,46,204.51,46s102.25-46,204.51-46,102.26,46,204.51,46,102.26-46,204.51-46"/><path class="cls-1" d="M3.85,153.87c102.25,0,102.25,46,204.51,46s102.25-46,204.51-46,102.26,46,204.51,46,102.26-46,204.51-46"/><path class="cls-1" d="M3.85,204.26c102.25,0,102.25,46,204.51,46s102.25-46,204.51-46,102.26,46,204.51,46,102.26-46,204.51-46"/></g><g><path class="cls-1" d="M3.76,103.37c102.25,0,102.25,46,204.51,46s102.25-46,204.51-46,102.26,46,204.51,46,102.26-46,204.51-46"/><path class="cls-1" d="M3.76,153.77c102.25,0,102.25,46,204.51,46s102.25-46,204.51-46,102.26,46,204.51,46,102.26-46,204.51-46"/><path class="cls-1" d="M3.76,204.17c102.25,0,102.25,46,204.51,46s102.25-46,204.51-46,102.26,46,204.51,46,102.26-46,204.51-46"/></g><g><path class="cls-1" d="M3.67,103.27c102.25,0,102.25,46,204.51,46s102.25-46,204.51-46,102.26,46,204.51,46,102.26-46,204.51-46"/><path class="cls-1" d="M3.67,153.67c102.25,0,102.25,46,204.51,46s102.25-46,204.51-46,102.26,46,204.51,46,102.26-46,204.51-46"/><path class="cls-1" d="M3.67,204.07c102.25,0,102.25,46,204.51,46s102.25-46,204.51-46,102.26,46,204.51,46,102.26-46,204.51-46"/></g><g><path class="cls-1" d="M3.58,103.17c102.25,0,102.25,46,204.51,46s102.25-46,204.51-46,102.26,46,204.51,46,102.26-46,204.51-46"/><path class="cls-1" d="M3.58,153.57c102.25,0,102.25,46,204.51,46s102.25-46,204.51-46,102.26,46,204.51,46,102.26-46,204.51-46"/><path class="cls-1" d="M3.58,203.97c102.25,0,102.25,46,204.51,46s102.25-46,204.51-46,102.26,46,204.51,46,102.26-46,204.51-46"/></g><g><path class="cls-1" d="M3.5,103.07c102.25,0,102.25,46,204.51,46s102.25-46,204.51-46,102.26,46,204.51,46,102.26-46,204.51-46"/><path class="cls-1" d="M3.5,153.47c102.25,0,102.25,46,204.51,46s102.25-46,204.51-46,102.26,46,204.51,46,102.26-46,204.51-46"/><path class="cls-1" d="M3.5,203.87c102.25,0,102.25,46,204.51,46s102.25-46,204.51-46,102.26,46,204.51,46,102.26-46,204.51-46"/></g><g><path class="cls-1" d="M3.41,102.98c102.25,0,102.25,46,204.51,46s102.25-46,204.51-46,102.26,46,204.51,46,102.26-46,204.51-46"/><path class="cls-1" d="M3.41,153.37c102.25,0,102.25,46,204.51,46s102.25-46,204.51-46,102.26,46,204.51,46,102.26-46,204.51-46"/><path class="cls-1" d="M3.41,203.77c102.25,0,102.25,46,204.51,46s102.25-46,204.51-46,102.26,46,204.51,46,102.26-46,204.51-46"/></g><g><path class="cls-1" d="M3.32,102.88c102.25,0,102.25,46,204.51,46s102.25-46,204.51-46,102.26,46,204.51,46,102.26-46,204.51-46"/><path class="cls-1" d="M3.32,153.27c102.25,0,102.25,46,204.51,46s102.25-46,204.51-46,102.26,46,204.51,46,102.26-46,204.51-46"/><path class="cls-1" d="M3.32,203.67c102.25,0,102.25,46,204.51,46s102.25-46,204.51-46,102.26,46,204.51,46,102.26-46,204.51-46"/></g><g><path class="cls-1" d="M3.23,102.78c102.25,0,102.25,46,204.51,46s102.25-46,204.51-46,102.26,46,204.51,46,102.26-46,204.51-46"/><path class="cls-1" d="M3.23,153.17c102.25,0,102.25,46,204.51,46s102.25-46,204.51-46,102.26,46,204.51,46,102.26-46,204.51-46"/><path class="cls-1" d="M3.23,203.57c102.25,0,102.25,46,204.51,46s102.25-46,204.51-46,102.26,46,204.51,46,102.26-46,204.51-46"/></g><g><path class="cls-1" d="M3.14,102.68c102.25,0,102.25,46,204.51,46s102.25-46,204.51-46,102.26,46,204.51,46,102.26-46,204.51-46"/><path class="cls-1" d="M3.14,153.08c102.25,0,102.25,46,204.51,46s102.25-46,204.51-46,102.26,46,204.51,46,102.26-46,204.51-46"/><path class="cls-1" d="M3.14,203.47c102.25,0,102.25,46,204.51,46s102.25-46,204.51-46,102.26,46,204.51,46,102.26-46,204.51-46"/></g><g><path class="cls-1" d="M3.05,102.58c102.25,0,102.25,46,204.51,46s102.25-46,204.51-46,102.26,46,204.51,46,102.26-46,204.51-46"/><path class="cls-1" d="M3.05,152.98c102.25,0,102.25,46,204.51,46s102.25-46,204.51-46,102.26,46,204.51,46,102.26-46,204.51-46"/><path class="cls-1" d="M3.05,203.37c102.25,0,102.25,46,204.51,46s102.25-46,204.51-46,102.26,46,204.51,46,102.26-46,204.51-46"/></g><g><path class="cls-1" d="M2.96,102.48c102.25,0,102.25,46,204.51,46s102.25-46,204.51-46,102.26,46,204.51,46,102.26-46,204.51-46"/><path class="cls-1" d="M2.96,152.88c102.25,0,102.25,46,204.51,46s102.25-46,204.51-46,102.26,46,204.51,46,102.26-46,204.51-46"/><path class="cls-1" d="M2.96,203.27c102.25,0,102.25,46,204.51,46s102.25-46,204.51-46,102.26,46,204.51,46,102.26-46,204.51-46"/></g><g><path class="cls-1" d="M2.87,102.38c102.25,0,102.25,46,204.51,46s102.25-46,204.51-46,102.26,46,204.51,46,102.26-46,204.51-46"/><path class="cls-1" d="M2.87,152.78c102.25,0,102.25,46,204.51,46s102.25-46,204.51-46,102.26,46,204.51,46,102.26-46,204.51-46"/><path class="cls-1" d="M2.87,203.18c102.25,0,102.25,46,204.51,46s102.25-46,204.51-46,102.26,46,204.51,46,102.26-46,204.51-46"/></g><g><path class="cls-1" d="M2.78,102.28c102.25,0,102.25,46,204.51,46s102.25-46,204.51-46,102.26,46,204.51,46,102.26-46,204.51-46"/><path class="cls-1" d="M2.78,152.68c102.25,0,102.25,46,204.51,46s102.25-46,204.51-46,102.26,46,204.51,46,102.26-46,204.51-46"/><path class="cls-1" d="M2.78,203.08c102.25,0,102.25,46,204.51,46s102.25-46,204.51-46,102.26,46,204.51,46,102.26-46,204.51-46"/></g><g><path class="cls-1" d="M2.69,102.18c102.25,0,102.25,46,204.51,46s102.25-46,204.51-46,102.26,46,204.51,46,102.26-46,204.51-46"/><path class="cls-1" d="M2.69,152.58c102.25,0,102.25,46,204.51,46s102.25-46,204.51-46,102.26,46,204.51,46,102.26-46,204.51-46"/><path class="cls-1" d="M2.69,202.98c102.25,0,102.25,46,204.51,46s102.25-46,204.51-46,102.26,46,204.51,46,102.26-46,204.51-46"/></g><g><path class="cls-1" d="M2.6,102.08c102.25,0,102.25,46,204.51,46s102.25-46,204.51-46,102.26,46,204.51,46,102.26-46,204.51-46"/><path class="cls-1" d="M2.6,152.48c102.25,0,102.25,46,204.51,46s102.25-46,204.51-46,102.26,46,204.51,46,102.26-46,204.51-46"/><path class="cls-1" d="M2.6,202.88c102.25,0,102.25,46,204.51,46s102.25-46,204.51-46,102.26,46,204.51,46,102.26-46,204.51-46"/></g><g><path class="cls-1" d="M2.51,101.99c102.25,0,102.25,46,204.51,46s102.25-46,204.51-46,102.26,46,204.51,46,102.26-46,204.51-46"/><path class="cls-1" d="M2.51,152.38c102.25,0,102.25,46,204.51,46s102.25-46,204.51-46,102.26,46,204.51,46,102.26-46,204.51-46"/><path class="cls-1" d="M2.51,202.78c102.25,0,102.25,46,204.51,46s102.25-46,204.51-46,102.26,46,204.51,46,102.26-46,204.51-46"/></g><g><path class="cls-1" d="M2.43,101.89c102.25,0,102.25,46,204.51,46s102.25-46,204.51-46,102.26,46,204.51,46,102.26-46,204.51-46"/><path class="cls-1" d="M2.43,152.28c102.25,0,102.25,46,204.51,46s102.25-46,204.51-46,102.26,46,204.51,46,102.26-46,204.51-46"/><path class="cls-1" d="M2.43,202.68c102.25,0,102.25,46,204.51,46s102.25-46,204.51-46,102.26,46,204.51,46,102.26-46,204.51-46"/></g><g><path class="cls-1" d="M2.34,101.79c102.25,0,102.25,46,204.51,46s102.25-46,204.51-46,102.26,46,204.51,46,102.26-46,204.51-46"/><path class="cls-1" d="M2.34,152.18c102.25,0,102.25,46,204.51,46s102.25-46,204.51-46,102.26,46,204.51,46,102.26-46,204.51-46"/><path class="cls-1" d="M2.34,202.58c102.25,0,102.25,46,204.51,46s102.25-46,204.51-46,102.26,46,204.51,46,102.26-46,204.51-46"/></g><g><path class="cls-1" d="M2.25,101.69c102.25,0,102.25,46,204.51,46s102.25-46,204.51-46,102.26,46,204.51,46,102.26-46,204.51-46"/><path class="cls-1" d="M2.25,152.09c102.25,0,102.25,46,204.51,46s102.25-46,204.51-46,102.26,46,204.51,46,102.26-46,204.51-46"/><path class="cls-1" d="M2.25,202.48c102.25,0,102.25,46,204.51,46s102.25-46,204.51-46,102.26,46,204.51,46,102.26-46,204.51-46"/></g><g><path class="cls-1" d="M2.16,101.59c102.25,0,102.25,46,204.51,46s102.25-46,204.51-46,102.26,46,204.51,46,102.26-46,204.51-46"/><path class="cls-1" d="M2.16,151.99c102.25,0,102.25,46,204.51,46s102.25-46,204.51-46,102.26,46,204.51,46,102.26-46,204.51-46"/><path class="cls-1" d="M2.16,202.38c102.25,0,102.25,46,204.51,46s102.25-46,204.51-46,102.26,46,204.51,46,102.26-46,204.51-46"/></g><g><path class="cls-1" d="M2.07,101.49c102.25,0,102.25,46,204.51,46s102.25-46,204.51-46,102.26,46,204.51,46,102.26-46,204.51-46"/><path class="cls-1" d="M2.07,151.89c102.25,0,102.25,46,204.51,46s102.25-46,204.51-46,102.26,46,204.51,46,102.26-46,204.51-46"/><path class="cls-1" d="M2.07,202.28c102.25,0,102.25,46,204.51,46s102.25-46,204.51-46,102.26,46,204.51,46,102.26-46,204.51-46"/></g><g><path class="cls-1" d="M1.98,101.39c102.25,0,102.25,46,204.51,46s102.25-46,204.51-46,102.26,46,204.51,46,102.26-46,204.51-46"/><path class="cls-1" d="M1.98,151.79c102.25,0,102.25,46,204.51,46s102.25-46,204.51-46,102.26,46,204.51,46,102.26-46,204.51-46"/><path class="cls-1" d="M1.98,202.19c102.25,0,102.25,46,204.51,46s102.25-46,204.51-46,102.26,46,204.51,46,102.26-46,204.51-46"/></g><g><path class="cls-1" d="M1.89,101.29c102.25,0,102.25,46,204.51,46s102.25-46,204.51-46,102.26,46,204.51,46,102.26-46,204.51-46"/><path class="cls-1" d="M1.89,151.69c102.25,0,102.25,46,204.51,46s102.25-46,204.51-46,102.26,46,204.51,46,102.26-46,204.51-46"/><path class="cls-1" d="M1.89,202.09c102.25,0,102.25,46,204.51,46s102.25-46,204.51-46,102.26,46,204.51,46,102.26-46,204.51-46"/></g><g><path class="cls-1" d="M1.8,101.19c102.25,0,102.25,46,204.51,46s102.25-46,204.51-46,102.26,46,204.51,46,102.26-46,204.51-46"/><path class="cls-1" d="M1.8,151.59c102.25,0,102.25,46,204.51,46s102.25-46,204.51-46,102.26,46,204.51,46,102.26-46,204.51-46"/><path class="cls-1" d="M1.8,201.99c102.25,0,102.25,46,204.51,46s102.25-46,204.51-46,102.26,46,204.51,46,102.26-46,204.51-46"/></g><g><path class="cls-1" d="M1.71,101.09c102.25,0,102.25,46,204.51,46s102.25-46,204.51-46,102.26,46,204.51,46,102.26-46,204.51-46"/><path class="cls-1" d="M1.71,151.49c102.25,0,102.25,46,204.51,46s102.25-46,204.51-46,102.26,46,204.51,46,102.26-46,204.51-46"/><path class="cls-1" d="M1.71,201.89c102.25,0,102.25,46,204.51,46s102.25-46,204.51-46,102.26,46,204.51,46,102.26-46,204.51-46"/></g><g><path class="cls-1" d="M1.62,101c102.25,0,102.25,46,204.51,46s102.25-46,204.51-46,102.26,46,204.51,46,102.26-46,204.51-46"/><path class="cls-1" d="M1.62,151.39c102.25,0,102.25,46,204.51,46s102.25-46,204.51-46,102.26,46,204.51,46,102.26-46,204.51-46"/><path class="cls-1" d="M1.62,201.79c102.25,0,102.25,46,204.51,46s102.25-46,204.51-46,102.26,46,204.51,46,102.26-46,204.51-46"/></g><g><path class="cls-1" d="M1.53,100.9c102.25,0,102.25,46,204.51,46s102.25-46,204.51-46,102.26,46,204.51,46,102.26-46,204.51-46"/><path class="cls-1" d="M1.53,151.29c102.25,0,102.25,46,204.51,46s102.25-46,204.51-46,102.26,46,204.51,46,102.26-46,204.51-46"/><path class="cls-1" d="M1.53,201.69c102.25,0,102.25,46,204.51,46s102.25-46,204.51-46,102.26,46,204.51,46,102.26-46,204.51-46"/></g><g><path class="cls-1" d="M1.45,100.8c102.25,0,102.25,46,204.51,46s102.25-46,204.51-46,102.26,46,204.51,46,102.26-46,204.51-46"/><path class="cls-1" d="M1.45,151.19c102.25,0,102.25,46,204.51,46s102.25-46,204.51-46,102.26,46,204.51,46,102.26-46,204.51-46"/><path class="cls-1" d="M1.45,201.59c102.25,0,102.25,46,204.51,46s102.25-46,204.51-46,102.26,46,204.51,46,102.26-46,204.51-46"/></g><g><path class="cls-1" d="M1.36,100.7c102.25,0,102.25,46,204.51,46s102.25-46,204.51-46,102.26,46,204.51,46,102.26-46,204.51-46"/><path class="cls-1" d="M1.36,151.1c102.25,0,102.25,46,204.51,46s102.25-46,204.51-46,102.26,46,204.51,46,102.26-46,204.51-46"/><path class="cls-1" d="M1.36,201.49c102.25,0,102.25,46,204.51,46s102.25-46,204.51-46,102.26,46,204.51,46,102.26-46,204.51-46"/></g><g><path class="cls-1" d="M1.27,100.6c102.25,0,102.25,46,204.51,46s102.25-46,204.51-46,102.26,46,204.51,46,102.26-46,204.51-46"/><path class="cls-1" d="M1.27,151c102.25,0,102.25,46,204.51,46s102.25-46,204.51-46,102.26,46,204.51,46,102.26-46,204.51-46"/><path class="cls-1" d="M1.27,201.39c102.25,0,102.25,46,204.51,46s102.25-46,204.51-46,102.26,46,204.51,46,102.26-46,204.51-46"/></g><g><path class="cls-1" d="M1.18,100.5c102.25,0,102.25,46,204.51,46s102.25-46,204.51-46,102.26,46,204.51,46,102.26-46,204.51-46"/><path class="cls-1" d="M1.18,150.9c102.25,0,102.25,46,204.51,46s102.25-46,204.51-46,102.26,46,204.51,46,102.26-46,204.51-46"/><path class="cls-1" d="M1.18,201.29c102.25,0,102.25,46,204.51,46s102.25-46,204.51-46,102.26,46,204.51,46,102.26-46,204.51-46"/></g><g><path class="cls-1" d="M1.09,100.4c102.25,0,102.25,46,204.51,46s102.25-46,204.51-46,102.26,46,204.51,46,102.26-46,204.51-46"/><path class="cls-1" d="M1.09,150.8c102.25,0,102.25,46,204.51,46s102.25-46,204.51-46,102.26,46,204.51,46,102.26-46,204.51-46"/><path class="cls-1" d="M1.09,201.2c102.25,0,102.25,46,204.51,46s102.25-46,204.51-46,102.26,46,204.51,46,102.26-46,204.51-46"/></g><g><path class="cls-1" d="M1,100.3c102.25,0,102.25,46,204.51,46s102.25-46,204.51-46,102.26,46,204.51,46,102.26-46,204.51-46"/><path class="cls-1" d="M1,150.7c102.25,0,102.25,46,204.51,46s102.25-46,204.51-46,102.26,46,204.51,46,102.26-46,204.51-46"/><path class="cls-1" d="M1,201.1c102.25,0,102.25,46,204.51,46s102.25-46,204.51-46,102.26,46,204.51,46,102.26-46,204.51-46"/></g></g><g><path class="cls-2" d="M0,100.3c102.25,0,102.25,46,204.51,46s102.25-46,204.51-46,102.26,46,204.51,46,102.26-46,204.51-46"/><path class="cls-2" d="M0,150.7c102.25,0,102.25,46,204.51,46s102.25-46,204.51-46,102.26,46,204.51,46,102.26-46,204.51-46"/><path class="cls-2" d="M0,201.1c102.25,0,102.25,46,204.51,46s102.25-46,204.51-46,102.26,46,204.51,46,102.26-46,204.51-46"/></g></svg>