<?xml version="1.0" encoding="UTF-8"?><svg id="Layer_1" xmlns="http://www.w3.org/2000/svg" viewBox="0 0 475.1 372.79"><defs><style>.cls-1{fill:none;}.cls-1,.cls-2{stroke:#2a0c4e;stroke-linecap:round;stroke-linejoin:round;stroke-width:5px;}.cls-3,.cls-2{fill:#fff8f0;}</style></defs><g><rect class="cls-2" x="43.35" y="74.25" width="175.05" height="120.66"/><polygon class="cls-2" points="43.35 194.27 130.88 114.8 218.41 194.27 218.41 194.27 43.35 194.27 43.35 194.27"/><path class="cls-2" d="M218.41,77.59c0,5.18-2.21,9.96-5.81,12.54l-73.56,52.91c-4.91,4.22-11.4,4.22-16.31,0L49.16,90.13c-3.59-2.58-5.81-7.37-5.81-12.54v-2.84H218.41v2.84Z"/></g><g><rect class="cls-2" x="87.53" y="141.53" width="249.42" height="171.93"/><polygon class="cls-2" points="87.53 312.54 212.24 199.31 336.95 312.54 336.95 312.54 87.53 312.54 87.53 312.54"/><path class="cls-2" d="M336.95,146.28c0,7.37-3.15,14.19-8.27,17.87l-104.82,75.39c-7,6.02-16.24,6.02-23.24,0l-104.82-75.39c-5.12-3.68-8.27-10.49-8.27-17.87v-4.04h249.42v4.04Z"/></g><g><rect class="cls-2" x="212.24" y="227.49" width="205.92" height="141.94"/><polygon class="cls-2" points="212.24 368.68 315.2 275.19 418.16 368.68 418.16 368.68 212.24 368.68 212.24 368.68"/><path class="cls-2" d="M418.16,231.42c0,6.09-2.6,11.71-6.83,14.75l-86.54,62.25c-5.78,4.97-13.41,4.97-19.19,0l-86.54-62.25c-4.23-3.04-6.83-8.66-6.83-14.75v-3.34h205.92v3.34Z"/></g><g><rect class="cls-2" x="1.43" y="40.64" width="87.53" height="60.33"/><polygon class="cls-2" points="1.43 100.65 45.19 60.91 88.95 100.65 88.95 100.65 1.43 100.65 1.43 100.65"/><path class="cls-2" d="M88.95,42.31c0,2.59-1.11,4.98-2.9,6.27l-36.78,26.46c-2.45,2.11-5.7,2.11-8.15,0L4.33,48.58c-1.8-1.29-2.9-3.68-2.9-6.27v-1.42H88.95v1.42Z"/></g><g><rect class="cls-2" x="180.95" y="41.59" width="172.29" height="118.76"/><polygon class="cls-2" points="180.95 159.72 267.09 81.5 353.23 159.72 353.23 159.72 180.95 159.72 180.95 159.72"/><path class="cls-2" d="M353.23,44.88c0,5.09-2.18,9.8-5.71,12.34l-72.4,52.08c-4.83,4.16-11.22,4.16-16.05,0l-72.4-52.08c-3.54-2.54-5.71-7.25-5.71-12.34v-2.79h172.29v2.79Z"/></g><g><path class="cls-3" d="M390.02,38.78c-21.39,8.5-28.28,15.39-36.78,36.78-8.5-21.39-15.39-28.28-36.78-36.78,21.39-8.5,28.28-15.39,36.78-36.78,8.5,21.39,15.39,28.28,36.78,36.78Z"/><path class="cls-1" d="M390.02,38.78c-21.39,8.5-28.28,15.39-36.78,36.78-8.5-21.39-15.39-28.28-36.78-36.78,21.39-8.5,28.28-15.39,36.78-36.78,8.5,21.39,15.39,28.28,36.78,36.78Z"/></g><g><path class="cls-3" d="M472.11,227.49c-31.96,12.7-42.25,22.99-54.95,54.95-12.7-31.96-22.99-42.25-54.95-54.95,31.96-12.7,42.25-22.99,54.95-54.95,12.7,31.96,22.99,42.25,54.95,54.95Z"/><path class="cls-1" d="M472.11,227.49c-31.96,12.7-42.25,22.99-54.95,54.95-12.7-31.96-22.99-42.25-54.95-54.95,31.96-12.7,42.25-22.99,54.95-54.95,12.7,31.96,22.99,42.25,54.95,54.95Z"/></g><g><path class="cls-3" d="M114.96,38.78c-15.13,6.01-20,10.88-26.01,26.01-6.01-15.13-10.88-20-26.01-26.01,15.13-6.01,20-10.88,26.01-26.01,6.01,15.13,10.88,20,26.01,26.01Z"/><path class="cls-1" d="M114.96,38.78c-15.13,6.01-20,10.88-26.01,26.01-6.01-15.13-10.88-20-26.01-26.01,15.13-6.01,20-10.88,26.01-26.01,6.01,15.13,10.88,20,26.01,26.01Z"/></g></svg>